<?xml version="1.0" encoding="utf-8"?><!DOCTYPE svg PUBLIC "-//W3C//DTD SVG 1.1//EN" "http://www.w3.org/Graphics/SVG/1.1/DTD/svg11.dtd"><svg version="1.1" baseProfile="full" xmlns="http://www.w3.org/2000/svg" xmlns:xlink="http://www.w3.org/1999/xlink" xmlns:ev="http://www.w3.org/2001/xml-events"   height="47px"   width="70px" ><path fill="rgb( 237, 85, 101 )" d="M6.364,0 C6.364,0 63.636,0 63.636,0 C67.151,0 70,2.869 70,6.40900000000001 C70,6.40900000000001 70,40.591 70,40.591 C70,44.131 67.151,47 63.636,47 C63.636,47 6.364,47 6.364,47 C2.849,47 0,44.131 0,40.591 C0,40.591 0,6.40900000000001 0,6.40900000000001 C0,2.869 2.849,0 6.364,0 Z "/><path fill="rgb( 255, 255, 255 )" d="M46.027,29.289 C46.504,29.181 46.878,29.41 47.003,29.839 C46.643,29.796 46.311,29.668 46.075,29.796 C45.882,30.168 45.342,30.182 44.996,29.911 C44.469,29.896 43.445,29.882 43.21,29.882 C43.556,30.097 43.971,30.354 44.179,30.483 C44.996,30.311 45.439,30.64 45.383,31.255 C45.577,31.569 45.563,32.013 45.328,32.213 C45.272,31.955 45.134,31.626 44.94,31.441 C44.442,31.541 44.082,31.369 43.929,30.797 C43.611,30.583 43.196,30.311 43.03,30.197 C42.863,30.082 42.731,29.951 42.351,30.125 C41.977,30.297 41.631,30.44 41.41,30.568 C41.285,31.069 40.815,31.098 40.51,30.869 C40.316,30.983 40.15,31.183 40.039,31.398 C39.859,31.069 39.956,30.626 40.302,30.511 C40.427,30.125 40.87,29.997 41.188,30.182 C41.451,30.068 41.825,29.882 41.991,29.811 C41.451,29.611 40.081,29.081 39.596,28.867 C39.139,29.224 38.627,29.568 38.253,29.468 C38.198,29.124 38.027,28.842 37.797,28.352 C37.43,27.573 36.973,26.844 36.599,26.393 C36.225,25.943 35.846,26.201 35.872,26.822 C35.934,28.323 37.007,30.568 38.586,30.654 C39.125,30.684 39.34,30.798 39.043,31.212 C38.766,31.598 37.907,31.648 37.43,31.283 C36.952,30.919 36.786,30.94 36.883,31.426 C36.98,31.912 37.521,32.098 37.921,32.127 C38.503,32.17 39.167,32.384 38.627,32.899 C38.087,33.414 37.201,33.128 36.551,32.356 C36.325,32.088 36.147,32.012 36.163,32.441 C36.191,33.185 36.62,33.657 37.063,33.757 C37.506,33.857 37.949,33.978 37.824,34.243 C37.617,34.686 36.924,34.758 36.537,34.544 C36.149,34.329 35.734,33.929 35.651,33.686 C35.568,33.443 35.398,33.581 35.443,33.914 C35.54,34.629 36.025,34.615 36.025,35.201 C36.025,35.787 35.554,36.359 35,37.003 C34.446,36.359 33.975,35.787 33.975,35.201 C33.975,34.615 34.46,34.629 34.557,33.914 C34.602,33.581 34.433,33.443 34.349,33.686 C34.266,33.929 33.851,34.329 33.463,34.544 C33.076,34.758 32.383,34.686 32.176,34.243 C32.051,33.978 32.494,33.857 32.937,33.757 C33.38,33.657 33.809,33.185 33.837,32.441 C33.853,32.012 33.675,32.088 33.449,32.356 C32.799,33.128 31.913,33.414 31.373,32.899 C30.833,32.384 31.497,32.17 32.079,32.127 C32.48,32.098 33.02,31.912 33.117,31.426 C33.214,30.94 33.048,30.919 32.57,31.283 C32.093,31.648 31.234,31.598 30.957,31.212 C30.66,30.798 30.875,30.684 31.414,30.654 C32.993,30.568 34.065,28.323 34.128,26.822 C34.154,26.201 33.775,25.943 33.401,26.393 C33.027,26.844 32.57,27.573 32.204,28.352 C31.973,28.842 31.802,29.124 31.747,29.468 C31.373,29.568 30.861,29.224 30.404,28.867 C29.919,29.081 28.549,29.611 28.009,29.811 C28.175,29.882 28.549,30.068 28.812,30.182 C29.13,29.997 29.573,30.125 29.698,30.511 C30.044,30.626 30.141,31.069 29.961,31.398 C29.85,31.183 29.684,30.983 29.49,30.869 C29.185,31.098 28.715,31.069 28.59,30.568 C28.369,30.44 28.023,30.297 27.649,30.125 C27.269,29.951 27.137,30.082 26.97,30.197 C26.804,30.311 26.389,30.583 26.071,30.797 C25.918,31.369 25.558,31.541 25.06,31.441 C24.866,31.626 24.728,31.955 24.672,32.213 C24.437,32.013 24.423,31.569 24.617,31.255 C24.562,30.64 25.005,30.311 25.821,30.483 C26.029,30.354 26.444,30.097 26.791,29.882 C26.555,29.882 25.531,29.896 25.005,29.911 C24.658,30.182 24.119,30.168 23.925,29.796 C23.689,29.668 23.357,29.796 22.997,29.839 C23.122,29.41 23.496,29.181 23.973,29.289 C24.264,29.01 24.638,29.01 25.032,29.417 C25.448,29.46 26.029,29.503 26.818,29.525 C26.569,29.353 26.216,29.096 25.801,28.838 C25.427,28.967 25.032,28.817 24.908,28.517 C24.638,28.259 24.326,28.323 23.952,28.388 C23.994,27.766 24.451,27.702 25.094,27.959 C25.468,27.745 26.05,27.959 26.133,28.452 C26.382,28.817 26.88,29.031 27.441,29.417 C28.147,29.117 29.04,28.817 29.892,28.367 C29.705,28.173 29.518,27.937 29.31,27.723 C30.694,27.008 31.747,26.265 32.217,24.72 C32.374,24.207 32.093,24.32 31.968,24.649 C31.74,25.251 31.373,25.65 30.791,25.921 C30.379,26.114 30.141,25.635 30.445,25.349 C30.75,25.063 31.027,24.577 31.041,23.991 C31.05,23.576 30.593,23.63 30.514,23.848 C29.85,25.707 29.033,26.979 28.341,26.665 C27.649,26.35 27.975,25.935 28.341,25.75 C29.047,25.392 29.449,24.306 29.49,23.748 C29.532,23.19 29.199,23.205 28.978,23.634 C28.756,24.063 28.147,24.878 27.15,26.022 C26.154,27.165 24.769,27.423 24.008,26.736 C23.336,26.131 23.982,25.75 24.645,25.921 C25.918,26.25 27.233,24.892 28.023,22.79 C28.144,22.465 27.912,22.415 27.773,22.59 C26.001,24.835 24.52,25.035 23.676,24.277 C23.379,24.012 23.039,23.162 24.409,23.433 C25.89,23.727 26.777,22.575 27.815,21.003 C28.276,20.304 27.856,20.288 27.441,20.702 C27.026,21.117 26.403,21.603 25.711,22.032 C25.018,22.461 23.62,22.404 23.44,21.546 C23.26,20.688 23.883,20.717 24.562,20.945 C25.74,21.343 26.61,20.502 27.455,19.501 C27.832,19.055 27.676,18.786 27.344,18.944 C27.012,19.101 26.223,19.487 25.711,19.773 C25.198,20.059 24.077,20.259 23.537,19.487 C22.997,18.715 23.842,18.257 24.52,18.758 C25.198,19.258 26.86,18.801 27.51,17.914 C28.161,17.028 27.427,17.199 27.026,17.414 C26.008,17.957 24.742,18.014 23.648,17.199 C23.152,16.829 23.228,16.557 23.399,16.256 C23.496,16.084 23.828,16.041 24.257,16.313 C25.712,17.234 26.873,17.042 27.746,15.798 C28.093,15.302 27.663,15.269 27.261,15.469 C25.566,16.314 23.828,15.784 23.316,14.525 C23.075,13.935 23.62,13.267 24.174,14.01 C24.891,14.974 26.043,14.997 27.22,14.826 C27.785,14.743 27.79,14.004 27.192,13.925 C25.905,13.753 23.869,12.881 23.26,11.809 C22.754,10.918 23.772,9.878 24.312,10.936 C24.852,11.995 25.987,12.681 27.233,13.081 C27.673,13.222 27.829,13.21 27.843,13.067 C27.862,12.863 28.009,12.509 28.147,12.609 C28.493,12.809 29.739,13.253 30.348,13.481 C30.957,13.71 31.234,14.282 31.207,14.811 C31.179,15.34 31.041,16.27 31.94,16.27 C33.38,16.27 32.778,13.868 31.927,13.141 C31.269,12.58 30.556,12.309 30.016,12.323 C29.476,12.338 28.832,12.109 28.77,11.604 C28.639,11.575 28.39,11.511 28.133,11.511 C27.94,11.511 27.573,11.304 27.393,11.139 C27.213,10.975 26.998,10.71 27.178,10.553 C27.358,10.396 27.642,10.66 27.753,10.882 C27.863,11.103 28.102,11.261 28.223,11.275 C28.403,11.296 28.711,11.346 28.877,11.389 C29.043,11.432 29.314,11.389 29.383,11.304 C29.518,11.136 29.369,11.036 29.185,10.968 C28.975,10.89 28.753,10.914 28.687,11.053 C28.641,11.151 28.559,11.239 28.41,11.254 C28.244,10.296 29.144,10.338 29.892,10.381 C30.335,9.652 31.484,10.153 32.273,10.539 C32.647,10.624 33.283,10.582 33.602,10.439 C33.92,10.296 33.906,10.467 33.796,10.624 C33.685,10.782 33.283,11.068 33.117,11.111 C32.951,11.154 33.006,11.239 33.062,11.311 C33.237,11.537 33.629,11.754 33.809,11.783 C33.99,11.811 34.045,11.897 33.948,11.969 C33.851,12.04 33.713,12.126 33.574,12.169 C33.436,12.212 33.449,12.269 33.532,12.383 C33.704,12.619 34.156,12.855 34.308,12.826 C34.46,12.798 34.474,12.884 34.418,12.955 C34.363,13.027 34.156,13.127 34.045,13.127 C33.934,13.127 33.924,13.148 34.017,13.27 C34.117,13.401 34.343,13.686 34.543,13.626 C34.813,13.546 34.881,13.615 34.798,13.733 C34.602,14.011 34.612,14.132 35,14.199 C35.388,14.132 35.398,14.011 35.202,13.733 C35.119,13.615 35.187,13.546 35.457,13.626 C35.657,13.686 35.883,13.401 35.983,13.27 C36.076,13.148 36.066,13.127 35.955,13.127 C35.844,13.127 35.637,13.027 35.582,12.955 C35.526,12.884 35.54,12.798 35.692,12.826 C35.844,12.855 36.296,12.619 36.468,12.383 C36.551,12.269 36.564,12.212 36.426,12.169 C36.287,12.126 36.149,12.04 36.052,11.969 C35.955,11.897 36.011,11.811 36.191,11.783 C36.371,11.754 36.763,11.537 36.938,11.311 C36.994,11.239 37.049,11.154 36.883,11.111 C36.717,11.068 36.315,10.782 36.204,10.624 C36.094,10.467 36.08,10.296 36.398,10.439 C36.717,10.582 37.354,10.624 37.727,10.539 C38.516,10.153 39.666,9.652 40.109,10.381 C40.856,10.338 41.756,10.296 41.59,11.254 C41.441,11.239 41.359,11.151 41.313,11.053 C41.247,10.914 41.025,10.89 40.815,10.968 C40.631,11.036 40.482,11.136 40.617,11.304 C40.687,11.389 40.956,11.432 41.123,11.389 C41.289,11.346 41.597,11.296 41.777,11.275 C41.898,11.261 42.137,11.103 42.247,10.882 C42.358,10.66 42.642,10.396 42.822,10.553 C43.002,10.71 42.787,10.975 42.607,11.139 C42.427,11.304 42.06,11.511 41.867,11.511 C41.61,11.511 41.361,11.575 41.23,11.604 C41.168,12.109 40.524,12.338 39.984,12.323 C39.444,12.309 38.731,12.58 38.073,13.141 C37.222,13.868 36.62,16.27 38.06,16.27 C38.959,16.27 38.821,15.34 38.793,14.811 C38.766,14.282 39.043,13.71 39.652,13.481 C40.261,13.253 41.507,12.809 41.853,12.609 C41.991,12.509 42.138,12.863 42.157,13.067 C42.171,13.21 42.327,13.222 42.767,13.081 C44.013,12.681 45.148,11.995 45.688,10.936 C46.228,9.878 47.246,10.918 46.74,11.809 C46.131,12.881 44.096,13.753 42.808,13.925 C42.21,14.004 42.215,14.743 42.78,14.826 C43.957,14.997 45.109,14.974 45.826,14.01 C46.38,13.267 46.925,13.935 46.684,14.525 C46.172,15.784 44.434,16.314 42.739,15.469 C42.337,15.269 41.907,15.302 42.254,15.798 C43.127,17.042 44.288,17.234 45.743,16.313 C46.172,16.041 46.504,16.084 46.601,16.256 C46.772,16.557 46.849,16.829 46.352,17.199 C45.259,18.014 43.992,17.957 42.974,17.414 C42.573,17.199 41.839,17.028 42.49,17.914 C43.14,18.801 44.802,19.258 45.48,18.758 C46.158,18.257 47.003,18.715 46.463,19.487 C45.923,20.259 44.802,20.059 44.289,19.773 C43.777,19.487 42.988,19.101 42.656,18.944 C42.324,18.786 42.169,19.055 42.545,19.501 C43.39,20.502 44.26,21.343 45.439,20.945 C46.117,20.717 46.74,20.688 46.56,21.546 C46.38,22.404 44.982,22.461 44.289,22.032 C43.597,21.603 42.974,21.117 42.559,20.702 C42.144,20.288 41.724,20.304 42.185,21.003 C43.223,22.575 44.11,23.727 45.591,23.433 C46.961,23.162 46.621,24.012 46.325,24.277 C45.48,25.035 43.999,24.835 42.227,22.59 C42.088,22.415 41.856,22.465 41.977,22.79 C42.767,24.892 44.082,26.25 45.355,25.921 C46.018,25.75 46.664,26.131 45.992,26.736 C45.231,27.423 43.846,27.165 42.85,26.022 C41.853,24.878 41.244,24.063 41.022,23.634 C40.801,23.205 40.468,23.19 40.51,23.748 C40.552,24.306 40.953,25.392 41.659,25.75 C42.025,25.935 42.351,26.35 41.659,26.665 C40.967,26.979 40.15,25.707 39.486,23.848 C39.408,23.63 38.95,23.576 38.959,23.991 C38.973,24.577 39.25,25.063 39.555,25.349 C39.859,25.635 39.621,26.114 39.209,25.921 C38.627,25.65 38.26,25.251 38.032,24.649 C37.907,24.32 37.626,24.207 37.783,24.72 C38.253,26.265 39.306,27.008 40.69,27.723 C40.482,27.937 40.295,28.173 40.109,28.367 C40.96,28.817 41.853,29.117 42.559,29.417 C43.12,29.031 43.618,28.817 43.867,28.452 C43.95,27.959 44.532,27.745 44.906,27.959 C45.549,27.702 46.006,27.766 46.048,28.388 C45.674,28.323 45.362,28.259 45.092,28.517 C44.968,28.817 44.573,28.967 44.199,28.838 C43.784,29.096 43.431,29.353 43.182,29.525 C43.971,29.503 44.553,29.46 44.968,29.417 C45.362,29.01 45.736,29.01 46.027,29.289 Z "/></svg>