<?xml version="1.0" encoding="utf-8"?>
<!-- Generator: Adobe Illustrator 15.1.0, SVG Export Plug-In . SVG Version: 6.00 Build 0)  -->
<!DOCTYPE svg PUBLIC "-//W3C//DTD SVG 1.1//EN" "http://www.w3.org/Graphics/SVG/1.1/DTD/svg11.dtd">
<svg version="1.1" id="Layer_1" xmlns:ev="http://www.w3.org/2001/xml-events"
	 xmlns="http://www.w3.org/2000/svg" xmlns:xlink="http://www.w3.org/1999/xlink" x="0px" y="0px" width="70px" height="49px"
	 viewBox="0 0 70 49" enable-background="new 0 0 70 49" xml:space="preserve">
<g>
	<g>
		<defs>
			<path id="SVGID_1_" d="M6.364,0h57.273C67.15,0,70,2.991,70,6.682v35.636C70,46.008,67.15,49,63.637,49H6.364
				C2.849,49,0,46.008,0,42.317V6.682C0,2.991,2.849,0,6.364,0z"/>
		</defs>
		<clipPath id="SVGID_2_">
			<use xlink:href="#SVGID_1_"  overflow="visible"/>
		</clipPath>
		<path clip-path="url(#SVGID_2_)" fill="#F5F7FA" d="M6.364,0h57.273C67.15,0,70,2.991,70,6.682v35.636
			C70,46.008,67.15,49,63.637,49H6.364C2.849,49,0,46.008,0,42.317V6.682C0,2.991,2.849,0,6.364,0z"/>
	</g>
	<g>
		<defs>
			<path id="SVGID_3_" d="M6.364,0h57.273C67.15,0,70,2.991,70,6.682v35.636C70,46.008,67.15,49,63.637,49H6.364
				C2.849,49,0,46.008,0,42.317V6.682C0,2.991,2.849,0,6.364,0z"/>
		</defs>
		<clipPath id="SVGID_4_">
			<use xlink:href="#SVGID_3_"  overflow="visible"/>
		</clipPath>
		<path clip-path="url(#SVGID_4_)" fill="#ED5565" d="M0,19.802h70v10.436H0V19.802z"/>
	</g>
	<g>
		<defs>
			<path id="SVGID_5_" d="M6.364,0h57.273C67.15,0,70,2.991,70,6.682v35.636C70,46.008,67.15,49,63.637,49H6.364
				C2.849,49,0,46.008,0,42.317V6.682C0,2.991,2.849,0,6.364,0z"/>
		</defs>
		<clipPath id="SVGID_6_">
			<use xlink:href="#SVGID_5_"  overflow="visible"/>
		</clipPath>
		<path clip-path="url(#SVGID_6_)" fill="#ED5565" d="M0,38.567h70v10.436H0V38.567z"/>
	</g>
	<g>
		<defs>
			<path id="SVGID_7_" d="M6.364,0h57.273C67.15,0,70,2.991,70,6.682v35.636C70,46.008,67.15,49,63.637,49H6.364
				C2.849,49,0,46.008,0,42.317V6.682C0,2.991,2.849,0,6.364,0z"/>
		</defs>
		<clipPath id="SVGID_8_">
			<use xlink:href="#SVGID_7_"  overflow="visible"/>
		</clipPath>
		<path clip-path="url(#SVGID_8_)" fill="#ED5565" d="M0-0.007h70v10.436H0V-0.007z"/>
	</g>
	<g>
		<defs>
			<path id="SVGID_9_" d="M6.364,0h57.273C67.15,0,70,2.991,70,6.682v35.636C70,46.008,67.15,49,63.637,49H6.364
				C2.849,49,0,46.008,0,42.317V6.682C0,2.991,2.849,0,6.364,0z"/>
		</defs>
		<clipPath id="SVGID_10_">
			<use xlink:href="#SVGID_9_"  overflow="visible"/>
		</clipPath>
		<path clip-path="url(#SVGID_10_)" fill="#4A89DC" d="M0,0h34.884v30.234H0V0z"/>
	</g>
	<g>
		<defs>
			<path id="SVGID_11_" d="M6.364,0h57.273C67.15,0,70,2.991,70,6.682v35.636C70,46.008,67.15,49,63.637,49H6.364
				C2.849,49,0,46.008,0,42.317V6.682C0,2.991,2.849,0,6.364,0z"/>
		</defs>
		<clipPath id="SVGID_12_">
			<use xlink:href="#SVGID_11_"  overflow="visible"/>
		</clipPath>
		<path clip-path="url(#SVGID_12_)" fill="#FFFFFF" d="M16.279,10.021c-0.39,0.289-0.617,0.126-0.504-0.36l0.42-1.813
			c0.113-0.486-0.09-1.153-0.452-1.479l-1.272-1.147c-0.362-0.326-0.268-0.605,0.208-0.619L16.46,4.55
			c0.477-0.015,0.977-0.419,1.113-0.9l0.557-1.98c0.136-0.48,0.379-0.489,0.541-0.017l0.671,1.954
			c0.162,0.472,0.684,0.861,1.161,0.866l1.816,0.02c0.477,0.004,0.572,0.277,0.212,0.606l-1.382,1.262
			c-0.36,0.33-0.545,0.991-0.412,1.473l0.441,1.595c0.134,0.481-0.09,0.661-0.497,0.399l-1.475-0.951
			c-0.407-0.262-1.058-0.24-1.448,0.049L16.279,10.021z"/>
	</g>
	<g>
		<defs>
			<path id="SVGID_13_" d="M6.364,0h57.273C67.15,0,70,2.991,70,6.682v35.636C70,46.008,67.15,49,63.637,49H6.364
				C2.849,49,0,46.008,0,42.317V6.682C0,2.991,2.849,0,6.364,0z"/>
		</defs>
		<clipPath id="SVGID_14_">
			<use xlink:href="#SVGID_13_"  overflow="visible"/>
		</clipPath>
		<path clip-path="url(#SVGID_14_)" fill="#FFFFFF" d="M26.279,10.021c-0.39,0.289-0.617,0.126-0.504-0.36l0.42-1.813
			c0.113-0.486-0.09-1.153-0.452-1.479l-1.272-1.147c-0.362-0.326-0.268-0.605,0.208-0.619L26.46,4.55
			c0.477-0.015,0.977-0.419,1.113-0.9l0.558-1.98c0.135-0.48,0.378-0.489,0.54-0.017l0.671,1.954
			c0.162,0.472,0.684,0.861,1.161,0.866l1.816,0.02c0.477,0.004,0.572,0.277,0.212,0.606l-1.382,1.262
			c-0.36,0.33-0.545,0.991-0.412,1.473l0.441,1.595c0.134,0.481-0.09,0.661-0.497,0.399l-1.475-0.951
			c-0.407-0.262-1.058-0.24-1.448,0.049L26.279,10.021z"/>
	</g>
	<g>
		<defs>
			<path id="SVGID_15_" d="M6.364,0h57.273C67.15,0,70,2.991,70,6.682v35.636C70,46.008,67.15,49,63.637,49H6.364
				C2.849,49,0,46.008,0,42.317V6.682C0,2.991,2.849,0,6.364,0z"/>
		</defs>
		<clipPath id="SVGID_16_">
			<use xlink:href="#SVGID_15_"  overflow="visible"/>
		</clipPath>
		<path clip-path="url(#SVGID_16_)" fill="#FFFFFF" d="M5.279,10.021c-0.39,0.289-0.617,0.126-0.504-0.36l0.42-1.813
			c0.113-0.486-0.09-1.153-0.452-1.479L3.471,5.221C3.109,4.895,3.203,4.615,3.679,4.602L5.46,4.55
			c0.477-0.015,0.977-0.419,1.113-0.9l0.558-1.98c0.135-0.48,0.378-0.489,0.54-0.017l0.671,1.954
			c0.162,0.472,0.684,0.861,1.161,0.866l1.816,0.02c0.477,0.004,0.572,0.277,0.212,0.606l-1.382,1.262
			c-0.36,0.33-0.545,0.991-0.412,1.473l0.441,1.595c0.134,0.481-0.09,0.661-0.497,0.399L8.206,8.877
			c-0.407-0.262-1.058-0.24-1.448,0.049L5.279,10.021z"/>
	</g>
	<g>
		<defs>
			<path id="SVGID_17_" d="M6.364,0h57.273C67.15,0,70,2.991,70,6.682v35.636C70,46.008,67.15,49,63.637,49H6.364
				C2.849,49,0,46.008,0,42.317V6.682C0,2.991,2.849,0,6.364,0z"/>
		</defs>
		<clipPath id="SVGID_18_">
			<use xlink:href="#SVGID_17_"  overflow="visible"/>
		</clipPath>
		<path clip-path="url(#SVGID_18_)" fill="#FFFFFF" d="M16.279,19.404c-0.39,0.289-0.617,0.126-0.504-0.36l0.42-1.813
			c0.113-0.486-0.09-1.153-0.452-1.479l-1.272-1.147c-0.362-0.326-0.268-0.605,0.208-0.619l1.781-0.052
			c0.477-0.014,0.977-0.419,1.113-0.899l0.557-1.981c0.136-0.48,0.379-0.488,0.541-0.017l0.671,1.954
			c0.162,0.473,0.684,0.861,1.161,0.866l1.816,0.02c0.477,0.004,0.572,0.278,0.212,0.606l-1.382,1.262
			c-0.36,0.33-0.545,0.991-0.412,1.474l0.441,1.594c0.134,0.481-0.09,0.661-0.497,0.399l-1.475-0.951
			c-0.407-0.262-1.058-0.24-1.448,0.049L16.279,19.404z"/>
	</g>
	<g>
		<defs>
			<path id="SVGID_19_" d="M6.364,0h57.273C67.15,0,70,2.991,70,6.682v35.636C70,46.008,67.15,49,63.637,49H6.364
				C2.849,49,0,46.008,0,42.317V6.682C0,2.991,2.849,0,6.364,0z"/>
		</defs>
		<clipPath id="SVGID_20_">
			<use xlink:href="#SVGID_19_"  overflow="visible"/>
		</clipPath>
		<path clip-path="url(#SVGID_20_)" fill="#FFFFFF" d="M26.279,19.404c-0.39,0.289-0.617,0.126-0.504-0.36l0.42-1.813
			c0.113-0.486-0.09-1.153-0.452-1.479l-1.272-1.147c-0.362-0.326-0.268-0.605,0.208-0.619l1.781-0.052
			c0.477-0.014,0.977-0.419,1.113-0.899l0.558-1.981c0.135-0.48,0.378-0.488,0.54-0.017l0.671,1.954
			c0.162,0.473,0.684,0.861,1.161,0.866l1.816,0.02c0.477,0.004,0.572,0.278,0.212,0.606l-1.382,1.262
			c-0.36,0.33-0.545,0.991-0.412,1.474l0.441,1.594c0.134,0.481-0.09,0.661-0.497,0.399l-1.475-0.951
			c-0.407-0.262-1.058-0.24-1.448,0.049L26.279,19.404z"/>
	</g>
	<g>
		<defs>
			<path id="SVGID_21_" d="M6.364,0h57.273C67.15,0,70,2.991,70,6.682v35.636C70,46.008,67.15,49,63.637,49H6.364
				C2.849,49,0,46.008,0,42.317V6.682C0,2.991,2.849,0,6.364,0z"/>
		</defs>
		<clipPath id="SVGID_22_">
			<use xlink:href="#SVGID_21_"  overflow="visible"/>
		</clipPath>
		<path clip-path="url(#SVGID_22_)" fill="#FFFFFF" d="M5.279,19.404c-0.39,0.289-0.617,0.126-0.504-0.36l0.42-1.813
			c0.113-0.486-0.09-1.153-0.452-1.479l-1.272-1.147c-0.362-0.326-0.268-0.605,0.208-0.619l1.781-0.052
			c0.477-0.014,0.977-0.419,1.113-0.899l0.558-1.981c0.135-0.48,0.378-0.488,0.54-0.017l0.671,1.954
			c0.162,0.473,0.684,0.861,1.161,0.866l1.816,0.02c0.477,0.004,0.572,0.278,0.212,0.606l-1.382,1.262
			c-0.36,0.33-0.545,0.991-0.412,1.474l0.441,1.594c0.134,0.481-0.09,0.661-0.497,0.399L8.206,18.26
			c-0.407-0.262-1.058-0.24-1.448,0.049L5.279,19.404z"/>
	</g>
	<g>
		<defs>
			<path id="SVGID_23_" d="M6.364,0h57.273C67.15,0,70,2.991,70,6.682v35.636C70,46.008,67.15,49,63.637,49H6.364
				C2.849,49,0,46.008,0,42.317V6.682C0,2.991,2.849,0,6.364,0z"/>
		</defs>
		<clipPath id="SVGID_24_">
			<use xlink:href="#SVGID_23_"  overflow="visible"/>
		</clipPath>
		<path clip-path="url(#SVGID_24_)" fill="#FFFFFF" d="M16.279,28.787c-0.39,0.289-0.617,0.125-0.504-0.361l0.42-1.812
			c0.113-0.486-0.09-1.153-0.452-1.48l-1.272-1.147c-0.362-0.326-0.268-0.605,0.208-0.618l1.781-0.053
			c0.477-0.014,0.977-0.418,1.113-0.899l0.557-1.981c0.136-0.48,0.379-0.488,0.541-0.017l0.671,1.954
			c0.162,0.473,0.684,0.862,1.161,0.866l1.816,0.02c0.477,0.004,0.572,0.278,0.212,0.606l-1.382,1.261
			c-0.36,0.329-0.545,0.991-0.412,1.473l0.441,1.595c0.134,0.481-0.09,0.661-0.497,0.399l-1.475-0.949
			c-0.407-0.264-1.058-0.239-1.448,0.049L16.279,28.787z"/>
	</g>
	<g>
		<defs>
			<path id="SVGID_25_" d="M6.364,0h57.273C67.15,0,70,2.991,70,6.682v35.636C70,46.008,67.15,49,63.637,49H6.364
				C2.849,49,0,46.008,0,42.317V6.682C0,2.991,2.849,0,6.364,0z"/>
		</defs>
		<clipPath id="SVGID_26_">
			<use xlink:href="#SVGID_25_"  overflow="visible"/>
		</clipPath>
		<path clip-path="url(#SVGID_26_)" fill="#FFFFFF" d="M26.279,28.787c-0.39,0.289-0.617,0.125-0.504-0.361l0.42-1.812
			c0.113-0.486-0.09-1.153-0.452-1.48l-1.272-1.147c-0.362-0.326-0.268-0.605,0.208-0.618l1.781-0.053
			c0.477-0.014,0.977-0.418,1.113-0.899l0.558-1.981c0.135-0.48,0.378-0.488,0.54-0.017l0.671,1.954
			c0.162,0.473,0.684,0.862,1.161,0.866l1.816,0.02c0.477,0.004,0.572,0.278,0.212,0.606l-1.382,1.261
			c-0.36,0.329-0.545,0.991-0.412,1.473l0.441,1.595c0.134,0.481-0.09,0.661-0.497,0.399l-1.475-0.949
			c-0.407-0.264-1.058-0.239-1.448,0.049L26.279,28.787z"/>
	</g>
	<g>
		<defs>
			<path id="SVGID_27_" d="M6.364,0h57.273C67.15,0,70,2.991,70,6.682v35.636C70,46.008,67.15,49,63.637,49H6.364
				C2.849,49,0,46.008,0,42.317V6.682C0,2.991,2.849,0,6.364,0z"/>
		</defs>
		<clipPath id="SVGID_28_">
			<use xlink:href="#SVGID_27_"  overflow="visible"/>
		</clipPath>
		<path clip-path="url(#SVGID_28_)" fill="#FFFFFF" d="M5.279,28.787c-0.39,0.289-0.617,0.125-0.504-0.361l0.42-1.812
			c0.113-0.486-0.09-1.153-0.452-1.48l-1.272-1.147c-0.362-0.326-0.268-0.605,0.208-0.618l1.781-0.053
			c0.477-0.014,0.977-0.418,1.113-0.899l0.558-1.981c0.135-0.48,0.378-0.488,0.54-0.017l0.671,1.954
			c0.162,0.473,0.684,0.862,1.161,0.866l1.816,0.02c0.477,0.004,0.572,0.278,0.212,0.606l-1.382,1.261
			c-0.36,0.329-0.545,0.991-0.412,1.473l0.441,1.595c0.134,0.481-0.09,0.661-0.497,0.399l-1.475-0.949
			c-0.407-0.264-1.058-0.239-1.448,0.049L5.279,28.787z"/>
	</g>
</g>
</svg>
