<?xml version="1.0" encoding="utf-8"?><!DOCTYPE svg PUBLIC "-//W3C//DTD SVG 1.1//EN" "http://www.w3.org/Graphics/SVG/1.1/DTD/svg11.dtd"><svg version="1.1" baseProfile="full" xmlns="http://www.w3.org/2000/svg" xmlns:xlink="http://www.w3.org/1999/xlink" xmlns:ev="http://www.w3.org/2001/xml-events"   height="47px"   width="70px" ><path fill="rgb( 87, 168, 99 )" d="M6.36400000000003,0 C6.36400000000003,0 63.636,0 63.636,0 C67.1510000000001,0 70,2.86900000000003 70,6.40899999999999 C70,6.40899999999999 70,40.591 70,40.591 C70,44.131 67.1510000000001,47 63.636,47 C63.636,47 6.36400000000003,47 6.36400000000003,47 C2.84900000000005,47 0,44.131 0,40.591 C0,40.591 0,6.40899999999999 0,6.40899999999999 C0,2.86900000000003 2.84900000000005,0 6.36400000000003,0 Z "/><path fill="rgb( 255, 255, 255 )" d="M10,34 C10,34 59,34 59,34 C60.105,34 61,34 61,34 C61,34 60.105,36 59,36 C59,36 12,36 12,36 C10.895,36 10,34 10,34 C10,34 10,34 10,34 Z "/><path fill="rgb( 255, 255, 255 )" d="M51,31 C51,31 53,31 53,31 C53,31 53,39 53,39 C53,39 51,39 51,39 C51,39 51,31 51,31 Z "/><path fill="rgb( 255, 255, 255 )" d="M60.221,13.291 C60.174,13.375 60.297,14.019 60.335,14.299 C60.924,17.172 61.0650000000001,20.138 60.9760000000001,24.113 C60.962,24.791 60.6579999999999,25.896 60.403,26.305 C59.4469999999999,27.763 58.0609999999999,27.861 56.8879999999999,27.999 C56.2080000000001,27.978 56.2090000000001,27.413 57.05,26.921 C57.316,26.708 58.1289999999999,26.434 58.51,26.147 C58.8920000000001,25.86 59.298,25.265 59.665,24.79 C59.8309999999999,24.339 59.845,24.147 59.8979999999999,23.789 C59.8030000000001,20.022 59.3399999999999,16.83 58.7180000000001,12.58 C58.614,11.904 58.7049999999999,11.137 58.963,10.71 C59.2080000000001,10.184 59.26,10.38 59.4090000000001,10.675 C59.826,11.335 61.0170000000001,12.88 60.816,13.086 C60.6800000000001,13.313 60.297,13.095 60.221,13.291 ZM57.893,14.83 C57.6990000000001,14.744 57.932,13.812 57.8389999999999,13.522 C57.7349999999999,13.114 57.097,12.37 57.164,12.151 C57.0319999999999,11.691 57.4349999999999,11.49 57.722,11.571 C58.1900000000001,11.806 58.4639999999999,13.122 58.412,13.498 C58.319,14.185 58.0709999999999,14.927 57.893,14.83 ZM56.6420000000001,13.559 C56.597,13.645 56.741,14.537 56.787,14.815 C56.9580000000001,15.528 56.9300000000001,16.428 57.0429999999999,17.028 C57.155,17.629 57.0060000000001,18.083 57.2470000000001,18.647 C57.307,18.772 57.3589999999999,18.901 57.405,19.035 C58.0050000000001,19.852 58.8499999999999,20.977 59.4829999999999,22.05 C59.7059999999999,22.329 59.8230000000001,24.347 59.47,24.536 C58.903,23.506 58.3,22.529 57.6800000000001,21.585 C57.6800000000001,22.055 57.6759999999999,22.561 57.681,23.111 C57.6900000000001,23.789 56.4059999999999,25.22 56.4490000000001,24.86 C56.5070000000001,23.046 56.404,21.269 56.2249999999999,19.481 C55.825,18.93 55.4200000000001,18.392 55.0129999999999,17.862 C55.0709999999999,19.984 55.2270000000001,23.531 54.942,24.302 C54.6849999999999,24.942 54.3979999999999,25.264 53.958,25.513 C53.314,25.958 52.66,25.869 52.112,25.381 C51.776,25.2 51.5069999999999,24.986 51.278,24.653 C51.0410000000001,24.4 50.5549999999999,24.302 50.361,24.874 C50.086,25.185 50.079,26.754 49.492,27.368 C49.241,27.672 48.787,27.943 48.203,27.51 C47.563,27.181 47.298,26.754 46.968,26.089 C46.7430000000001,25.683 46.303,23.803 47.301,22.667 C47.307,22.644 47.309,22.633 47.312,22.619 C47.256,22.908 46.995,24.593 47.905,25.849 C48.346,26.285 48.744,26.091 48.885,25.865 C49.432,24.853 49.796,23.385 50.6,22.6 C50.8920000000001,22.329 51.162,22.22 51.572,22.6 C51.572,22.6 52.374,23.869 52.574,23.95 C52.85,24.216 53.26,23.975 53.26,23.975 C53.53,23.857 53.818,23.042 53.842,22.107 C53.67,19.898 53.627,18.09 53.455,15.882 C52.659,14.89 51.865,13.919 51.09,12.957 C50.877,12.691 50.63,12.239 50.6319999999999,11.999 C50.598,11.567 50.635,10.974 50.671,10.461 C50.761,9.87700000000001 50.928,10.219 51.203,10.399 C51.75,10.826 51.937,11.049 52.577,11.759 C53.3339999999999,12.713 51.636,11.679 52.8,12.915 C52.835,12.95 52.893,13.017 52.965,13.103 C52.946,12.996 52.927,12.889 52.908,12.782 C52.8680000000001,12.178 52.763,11.564 52.722,10.961 C52.717,10.618 52.894,10.352 53.0599999999999,10.205 C53.234,9.94499999999999 53.376,10.065 53.485,10.174 C53.941,11.023 54.396,11.872 54.8520000000001,12.721 C54.941,12.954 54.809,13.207 54.6610000000001,13.179 C54.5699999999999,13.139 54.55,13.131 54.405,13.007 C54.2670000000001,12.99 54.3,13.028 54.3099999999999,13.161 C54.3699999999999,13.487 54.443,14.859 54.443,14.89 C54.443,14.893 54.451,14.936 54.463,15.003 C54.961,15.65 55.4829999999999,16.338 55.9079999999999,16.912 C55.684,15.369 55.424,13.809 55.116,12.184 C54.991,11.512 54.8699999999999,10.805 55.1969999999999,10.495 C55.55,10.025 55.837,9.92500000000001 55.9949999999999,10.215 C56.434,10.861 57.299,13.122 57.105,13.335 C56.9760000000001,13.566 56.711,13.36 56.6420000000001,13.559 ZM50.191,20.539 C50.0599999999999,20.635 49.928,19.8 50.191,19.564 C50.2569999999999,19.497 52.9109999999999,17.592 52.9109999999999,17.592 C53.182,17.496 53.123,18.574 52.999,18.567 C53.05,18.781 50.381,20.613 50.191,20.539 ZM52.612,19.549 C53.08,19.783 53.266,21.166 53.2140000000001,21.542 C53.231,22.274 52.763,22.86 52.585,22.764 C52.391,22.677 52.602,21.856 52.509,21.566 C52.405,21.159 52.008,20.392 52.075,20.173 C51.943,19.713 52.325,19.468 52.612,19.549 ZM50.918,15.259 C50.937,15.051 50.832,14.927 50.831,14.698 C50.954,14.077 51.6559999999999,13.98 51.921,14.376 C52.115,14.618 52.186,15.131 52.215,15.477 C52.212,15.654 51.928,15.447 51.7670000000001,15.489 C51.606,15.532 51.567,15.72 51.554,15.89 C51.525,16.34 51.473,17.063 51.463,17.608 C50.933,17.598 49.825,16.567 49.501,15.963 C49.379,15.616 49.457,15.278 49.5650000000001,15.08 C49.761,14.952 50.063,14.807 50.288,14.946 C50.288,14.946 50.522,15.276 50.477,15.318 C50.766,15.458 50.888,15.377 50.918,15.259 ZM47.897,25.128 C48.034,20.904 47.171,17.215 46.33,12.778 C46.205,12.106 46.318,11.221 46.646,10.139 C46.999,9.66800000000001 46.933,9.92500000000001 47.091,10.215 C47.353,10.89 48.189,12.023 48.525,12.8 C48.631,13.417 47.66,12.499 47.855,13.559 C48.0170000000001,14.12 48.814,19.777 48.847,20.518 C48.879,21.259 49.061,22.028 48.953,23.29 C48.756,24.205 48.296,25.131 47.897,25.128 ZM46.172,23.357 C46.158,24.035 45.7089999999999,24.909 45.453,25.317 C44.497,27.069 43.465,27.735 42.292,27.872 C41.591,27.873 41.051,27.119 41.207,26.942 C42.653,26.391 43.982,25.194 44.903,24.223 C45.152,24.003 45.207,23.453 45.177,23.075 C44.812,19.161 44.64,15.737 44.08,11.824 C44.0599999999999,11.127 44.234,10.381 44.492,9.95299999999997 C44.737,9.428 44.789,9.62400000000002 44.937,9.91899999999998 C45.355,10.579 46.088,12.291 45.8869999999999,12.498 C45.751,12.724 45.4930000000001,12.632 45.417,12.724 C45.37,12.808 45.347,13.137 45.385,13.417 C45.975,16.289 46.261,19.382 46.172,23.357 ZM42.23,15.202 C41.803,15.023 41.816,14.376 41.84,14.351 C41.822,14.214 41.843,13.853 42.1559999999999,13.852 C42.2140000000001,13.867 42.265,13.887 42.296,13.929 C42.317,13.975 42.333,14.089 42.333,14.159 C42.333,14.227 42.378,14.242 42.414,14.282 C42.474,14.321 42.457,14.312 42.532,14.312 C42.599,14.299 42.633,14.266 42.643,14.174 C42.643,14.096 42.669,14.028 42.687,13.959 C42.731,13.892 42.73,13.871 42.8099999999999,13.867 C42.875,13.867 42.898,13.874 42.9349999999999,13.898 C42.971,13.95 43.0309999999999,14.038 43.0309999999999,14.121 C43.023,14.378 43.206,14.407 43.254,14.358 C43.337,14.311 43.274,14.16 43.297,14.067 C43.369,13.783 43.688,13.715 43.8049999999999,13.99 C43.813,14.066 43.8339999999999,14.345 43.8339999999999,14.427 C43.879,15.361 42.802,15.478 42.23,15.202 ZM42.674,12.794 C42.461,12.714 42.819,12.163 42.614,11.585 C42.501,11.209 41.8,10.522 41.874,10.319 C41.729,9.89400000000001 42.172,9.70800000000003 42.487,9.78300000000002 C43,10 43.362,11.051 43.244,11.563 C43.1420000000001,12.198 42.869,12.883 42.674,12.794 ZM41.125,13.535 C41.182,13.777 41.265,14.503 41.348,15.404 C41.873,16.188 42.3150000000001,16.87 42.444,17.112 C42.793,17.765 43.888,19.465 44.679,21.186 C44.89,21.474 44.9690000000001,23.52 44.609,23.694 C43.614,21.687 42.6,19.866 41.5549999999999,18.142 C41.5890000000001,18.702 41.615,19.228 41.627,19.661 C41.641,20.458 41.84,22.863 41.694,24.213 C41.47,25.19 40.829,25.857 40.4299999999999,25.841 C40.562,23.576 40.518,21.251 40.373,19.101 C40.297,17.976 40.173,16.842 39.999,15.68 C39.126,14.359 38.228,13.079 37.29,11.806 C37.0890000000001,11.53 36.681,11.056 36.616,10.772 C36.5309999999999,10.347 36.499,10.07 36.557,9.55900000000003 C36.673,8.98000000000002 37.324,9.32999999999998 37.591,9.52100000000002 C38.12,9.97199999999998 38.157,10.005 38.794,10.558 C38.954,10.753 39.069,10.907 39.163,11.043 C39.157,10.758 39.1849999999999,10.459 39.336,10.112 C39.704,9.61900000000003 39.696,9.68799999999999 39.934,10.029 C40.672,11.076 41.299,11.851 41.503,12.995 C41.591,13.66 40.961,12.39 41.125,13.535 ZM39.386,12.411 C39.353,12.183 39.3,11.963 39.249,11.74 C39.004,11.763 38.646,11.649 39.078,12.167 C39.141,12.238 39.268,12.407 39.431,12.631 C39.415,12.556 39.403,12.485 39.386,12.411 ZM36.53,11.21 C36.475,11.502 36.1319999999999,11.411 35.971,11.38 C35.652,11.427 35.995,12.147 35.995,12.182 C36.192,12.662 36.196,13.325 36.454,13.801 C36.707,14.196 37.218,14.02 37.482,13.98 C37.689,13.852 37.702,13.811 37.909,13.684 C38.068,13.593 38.312,13.556 38.288,13.997 C38.288,13.997 37.884,15.182 37.3440000000001,15.443 C37.192,15.486 37.1319999999999,15.612 36.875,15.416 C36.727,15.124 36.944,14.961 36.978,14.798 C36.978,14.706 36.609,14.577 36.3920000000001,14.868 C36.251,15.068 36.178,15.248 35.875,15.774 C35.649,16.17 34.675,16.312 34.22,16.128 C33.679,15.85 33.7140000000001,15.449 33.461,15.217 C33.201,15.044 32.956,15.056 32.772,15.251 C32.772,15.251 32.013,16.018 31.944,16.087 C31.875,16.157 30.996,16.88 29.933,16.051 C29.457,15.483 29.299,15.068 29.324,13.196 C29.228,12.993 29.086,13.035 28.899,13.43 C28.625,14.838 28.199,16.123 27.5309999999999,15.844 C26.604,16.105 25.2670000000001,13.421 26.117,10.967 C26.648,10.432 26.678,13.686 27.117,14.102 C27.298,14.419 27.554,14.645 27.796,13.858 C28.058,12.778 28.4880000000001,11.422 29.3579999999999,10.618 C29.539,10.462 29.963,10.274 30.22,10.792 C30.395,11.127 30.341,12.705 30.318,13.668 C30.446,14.273 30.665,14.371 30.944,14.562 C31.2430000000001,14.708 31.634,14.807 31.994,14.416 C32.25,14.115 32.293,14.012 32.489,13.71 C32.617,12.648 32.502,11.693 32.22,11.106 C31.875,10.18 32.351,9.73000000000002 32.461,9.43400000000003 C32.873,8.67899999999997 32.997,9.10500000000002 33.1660000000001,9.54700000000003 C33.634,10.278 33.45,11.837 33.599,12.952 C33.797,14.425 34.1660000000001,14.523 34.394,14.573 C34.9400000000001,14.638 35.254,14.136 35.254,14.136 C35.4299999999999,13.075 34.893,12.319 34.599,11.733 C34.264,11.292 34.248,10.882 34.323,10.549 C34.381,10.258 34.3390000000001,9.952 34.634,9.678 C35.0549999999999,9.32100000000003 35.491,9.363 35.806,9.71199999999999 C36.169,10.12 36.699,10.926 36.53,11.21 ZM30.67,11.165 C30.648,11.165 30.78,9.88600000000002 30.89,9.64100000000002 C31.146,8.99700000000001 31.533,8.97800000000001 31.635,9.55900000000003 C31.6130000000001,9.94 31.6130000000001,10.321 31.284,11.22 C31.0650000000001,11.709 30.583,11.546 30.67,11.165 ZM27.687,10.295 C27.749,10.731 28.237,10.153 28.159,10.545 C28.096,10.778 28.033,10.871 27.846,11.01 C27.52,11.183 27.357,11.204 27.196,10.969 C26.972,10.749 27.0359999999999,10.75 27.051,10.405 C27.067,9.79399999999998 27.574,9.26400000000001 27.828,9.09100000000001 C28.191,8.87400000000002 28.196,9.06400000000002 28.187,9.33199999999999 C27.8920000000001,9.72399999999999 27.579,9.88999999999999 27.687,10.295 ZM25.205,11.405 C25.318,11.503 25.419,11.576 25.532,11.674 C25.532,11.674 23.35,14.197 22.89,14.368 C22.841,14.446 21.338,14.45 21.278,14.368 C20.995,14.311 23.439,12.65 24.332,11.687 C24.526,11.523 24.235,11.225 23.944,11.087 C23.645,10.719 23.734,10.132 24.114,9.76400000000001 C24.413,9.60899999999998 24.821,9.54000000000002 25.29,9.75200000000001 C25.572,10.07 25.746,10.768 25.205,11.087 C25.096,11.193 25.083,11.299 25.205,11.405 ZM24.91,10.686 C24.826,10.499 24.646,10.374 24.508,10.408 C24.5069999999999,10.408 24.5069999999999,10.408 24.5069999999999,10.408 C24.3680000000001,10.441 24.324,10.62 24.407,10.807 C24.491,10.995 24.671,11.12 24.809,11.087 C24.8099999999999,11.087 24.811,11.087 24.812,11.086 C24.95,11.053 24.994,10.874 24.91,10.686 ZM24.6799999999999,15.253 C25.269,14.72 25.253,15.002 25.253,15.002 C25.253,15.002 24.9589999999999,16.005 24.463,15.943 C24.401,15.943 23.9349999999999,16.099 23.641,15.676 C23.325,15.196 23.522,14.37 24.028,14.094 C24.313,13.921 24.504,14.031 24.4160000000001,14.282 C24.297,14.543 24.287,14.804 24.338,15.065 C24.401,15.206 24.432,15.3 24.6799999999999,15.253 ZM21.7140000000001,18.361 C21.771,18.728 22.312,18.679 22.611,18.434 C23.056,17.169 23.7910000000001,17.275 23.968,18.091 C23.984,18.352 24.389,18.344 24.429,18.14 C24.462,17.928 24.494,17.716 24.526,17.503 C24.558,17.307 24.9059999999999,17.21 25.374,17.063 C25.35,17.83 25.253,18.573 25.1319999999999,19.291 C24.922,20.026 23.912,20.222 23.338,19.805 C23.169,19.626 22.926,19.715 22.829,19.854 C22.603,20.132 21.577,20.826 20.842,20.026 C20.494,20.018 21.2380000000001,21.601 20.599,23.748 C19.396,27.626 11.986,29.642 11.679,24.948 C11.679,24.328 11.655,24.148 11.752,23.503 C11.849,22.344 12.455,21.895 12.6,23.062 C12.624,23.65 12.697,24.63 12.9400000000001,25.07 C13.917,26.94 19.67,26.532 19.848,20.589 C19.7910000000001,20.148 19.468,20.418 19.3869999999999,20.687 C18.53,27.25 10.8630000000001,26.418 13.158,20.442 C13.933,19.903 13.5940000000001,22.23 13.909,22.842 C14.418,23.822 15.3630000000001,23.699 16.551,23.16 C18.514,22.107 18.587,20.736 18.49,20.614 C18.345,20.516 18.006,20.932 17.593,21.103 C17.093,21.234 16.519,21.291 16.042,20.711 C15.889,20.213 15.929,19.593 16.042,19.022 C16.139,18.303 16.915,17.56 17.593,17.552 C18.5309999999999,17.52 18.668,18.279 19.217,18.654 C19.5410000000001,18.695 19.7910000000001,18.295 19.726,17.993 C19.306,15.414 19.032,13.446 18.611,10.867 C18.506,10.263 18.838,9.952 19.193,9.83800000000002 C19.403,9.78899999999999 19.5410000000001,9.66699999999997 19.702,9.863 C20.034,9.99299999999999 20.631,11.814 20.915,12.703 C20.6559999999999,13.03 20.397,12.818 20.114,12.826 C20.333,14.508 20.551,16.116 20.769,17.797 C21.447,17.397 21.787,17.512 21.7140000000001,18.361 ZM17.8150000000001,19.239 C17.657,18.84 17.217,18.989 17.134,19.131 C17.067,19.25 16.918,19.404 16.968,19.563 C17.073,19.707 17.1559999999999,19.736 17.331,19.744 C17.482,19.744 17.694,19.78 17.74,19.69 C17.821,19.599 17.883,19.414 17.8150000000001,19.239 ZM18.239,12.5 C18.194,12.639 18.439,12.997 18.393,13.136 C18.72,13.898 18.804,14.66 18.865,15.422 C18.849,16.224 18.228,16.731 17.1950000000001,17.019 C16.516,17.173 16.321,16.788 15.884,16.477 C15.61,16.324 15.2140000000001,16.343 15.206,16.656 C14.9880000000001,16.974 15.36,18.344 15.312,19.981 C15.263,22.769 14.247,22.474 14.247,22.474 C14.178,20.997 14.11,19.519 14.0410000000001,18.042 C13.869,17.61 13.577,17.596 13.138,17.63 C12.717,17.458 12.175,17.212 12.1900000000001,16.379 C12.1900000000001,15.525 12.1900000000001,14.67 12.1900000000001,13.816 C12.173,13.475 11.962,13.476 11.847,13.747 C11.242,14.295 12.164,17.316 10.492,17.154 C9.11000000000001,16.857 9.25400000000002,13.964 9.375,12.321 C9.79600000000005,11.828 9.95100000000002,13.932 10.202,14.786 C10.4930000000001,15.961 10.908,15.512 11,14.875 C11.069,14.312 11.23,13.678 11.23,13.678 C11.419,12.445 12.093,11.702 12.355,11.718 C12.684,11.659 12.845,11.747 12.98,12.105 C13.151,12.462 13.201,13.873 13.009,14.769 C12.97,15.459 13.8049999999999,16.247 13.7670000000001,14.855 C13.63,13.816 13.5410000000001,12.924 13.259,11.909 C13.189,11.331 13.191,10.703 13.218,10.076 C13.349,9.75999999999999 13.721,9.59199999999998 13.972,9.93700000000001 C14.384,10.28 14.4640000000001,11.629 14.537,12.261 C14.537,12.771 14.586,13.904 14.828,14.663 C14.998,15.031 15.231,15.104 15.3440000000001,14.786 C15.481,14.786 15.191,14.432 15.001,13.869 C14.7380000000001,13.257 14.569,11.89 14.932,11.253 C15.0650000000001,11.033 15.3440000000001,11.033 15.55,11.253 C15.755,11.623 16.009,11.796 16.0940000000001,12.337 C16.215,12.729 16.385,12.889 16.1660000000001,14.301 C16.1660000000001,14.44 16.989,15.063 16.989,15.063 C17.24,15.331 17.54,15.403 17.84,15.23 C17.914,14.787 17.746,14.295 17.626,13.999 C17.063,13.242 16.693,12.313 16.784,11.53 C16.98,10.852 17.515,10.785 17.88,11.111 C18.323,11.353 18.596,11.914 18.772,12.5 C18.707,12.769 18.425,12.794 18.239,12.5 ZM15.645,10.993 C15.2190000000001,10.814 15.232,10.167 15.255,10.142 C15.237,10.005 15.259,9.64400000000001 15.572,9.64299999999997 C15.629,9.65800000000002 15.6799999999999,9.678 15.712,9.72000000000003 C15.7329999999999,9.76600000000002 15.749,9.88 15.749,9.94999999999999 C15.749,10.018 15.794,10.033 15.829,10.073 C15.89,10.112 15.873,10.103 15.948,10.103 C16.015,10.09 16.049,10.057 16.059,9.96499999999997 C16.059,9.887 16.085,9.81999999999999 16.103,9.75 C16.147,9.68299999999999 16.146,9.66199999999998 16.225,9.65800000000002 C16.2910000000001,9.65800000000002 16.314,9.66500000000002 16.35,9.68900000000002 C16.386,9.74099999999999 16.446,9.82900000000001 16.446,9.91199999999998 C16.439,10.169 16.622,10.198 16.67,10.149 C16.753,10.102 16.6900000000001,9.95100000000002 16.712,9.858 C16.785,9.57400000000001 17.104,9.50599999999997 17.221,9.78100000000001 C17.229,9.85700000000003 17.25,10.136 17.25,10.218 C17.295,11.152 16.218,11.269 15.645,10.993 ZM11.149,11.953 C10.966,11.888 11.141,11.177 11.054,10.956 C10.956,10.646 10.398,10.079 10.461,9.91199999999998 C10.337,9.56200000000001 10.717,9.40899999999999 10.9880000000001,9.47000000000003 C11.648,9.67099999999999 11.687,10.652 11.639,10.939 C11.551,11.462 11.317,12.027 11.149,11.953 ZM13.01,18.354 C13.905,18.38 13.6799999999999,18.705 13.918,19.064 C12.443,19.793 11.016,20.472 9.56399999999996,21.177 C9.61800000000005,20.179 11.634,18.38 13.01,18.354 ZM9.89999999999998,23.466 C9.81500000000005,24.039 9.74199999999996,24.763 9.798,25.55 C9.82899999999995,25.964 9.97900000000004,26.473 10.341,25.731 C10.5119999999999,25.501 10.648,25.544 10.819,25.815 C10.941,26.2 10.716,27.252 10.202,27.477 C9.91099999999994,27.564 9.51599999999996,27.443 9.27599999999995,27.166 C8.82500000000005,26.579 8.89599999999996,24.612 9.71400000000006,23.295 C9.89800000000002,23.057 9.99000000000001,22.878 9.89999999999998,23.466 ZM22.415,21.331 C22.299,20.92 22.675,20.845 22.95,20.905 C23.398,21.077 23.66,22.044 23.61,22.321 C23.521,22.825 23.284,23.37 23.1130000000001,23.299 C22.928,23.236 23.15,22.551 23.061,22.338 C23.024,21.821 22.402,21.554 22.415,21.331 ZM34.013,16.962 C34.021,17.038 34.042,17.317 34.042,17.4 C34.374,18.291 33.01,18.45 32.437,18.174 C32.011,17.995 32.024,17.349 32.048,17.323 C32.03,17.186 32.051,16.825 32.364,16.824 C32.422,16.839 32.472,16.859 32.504,16.901 C32.525,16.947 32.5410000000001,17.061 32.5410000000001,17.131 C32.5410000000001,17.199 32.586,17.214 32.622,17.254 C32.682,17.293 32.665,17.284 32.74,17.284 C32.807,17.271 32.841,17.238 32.851,17.146 C32.851,17.068 32.877,17.001 32.895,16.932 C32.939,16.864 32.938,16.843 33.018,16.84 C33.083,16.84 33.106,16.846 33.143,16.87 C33.179,16.922 33.2380000000001,17.011 33.2380000000001,17.093 C33.231,17.351 33.414,17.379 33.462,17.33 C33.545,17.284 33.482,17.132 33.505,17.039 C33.577,16.755 33.896,16.687 34.013,16.962 ZM23.84,24.006 C23.96,23.616 24.179,22.297 24.837,21.867 C24.875,21.87 24.7329999999999,22.642 24.747,22.967 C24.755,23.235 24.728,23.339 24.7859999999999,23.27 C24.898,23.198 26.922,21.591 27.078,21.099 C27.276,20.816 27.138,20.101 27.138,20.079 C26.758,19.091 26.226,19.007 26.028,18.516 C25.851,17.864 25.931,17.119 26.3,16.911 C26.628,16.611 27.016,16.648 27.374,16.977 C27.783,17.346 28.146,18.069 28.251,18.608 C28.1799999999999,18.821 27.716,18.466 27.5549999999999,18.572 C27.84,18.87 27.973,19.215 28.076,19.636 C28.34,20.764 28.259,21.203 27.994,21.932 C27.095,23.841 25.947,24.41 24.943,25.117 C24.9160000000001,25.127 24.898,25.601 25.276,25.858 C25.4059999999999,25.997 25.9299999999999,26.067 26.546,25.868 C27.737,25.212 28.973,24.003 29.587,22.657 C29.765,21.639 29.518,20.559 29.256,19.617 C28.861,18.697 28.396,17.382 28.396,17.361 C28.381,16.787 28.427,16.588 28.676,16.301 C29.062,16.025 28.881,15.832 29.458,16.415 C30.181,17.663 30.645,19.279 30.715,20.711 C30.684,21.064 30.931,21.287 31.043,21.211 C31.11,20.382 33.104,19.228 34.932,19.059 C35.212,18.998 35.076,18.457 35.122,18.18 C35.0119999999999,17.155 35.692,16.221 36.645,16.147 C37.942,16.341 38.374,17.04 38.396,18.108 C38.256,20.159 36.1420000000001,20.507 34.954,20.67 C34.772,20.74 34.696,20.825 34.954,20.925 C34.954,20.925 39.931,20.948 39.931,20.948 C39.931,20.948 40.1849999999999,21.096 40.1849999999999,21.096 C40.215,21.216 40.112,21.116 39.9160000000001,21.443 C39.7190000000001,21.77 39.4299999999999,22.524 39.415,23.027 C37.932,23.509 36.398,23.72 34.8390000000001,23.91 C34.298,24.187 34.029,24.555 34.14,24.971 C34.323,25.431 35.522,25.891 35.522,25.913 C35.75,26.057 36.02,26.394 35.458,27.084 C33.03,26.976 31.149,25.932 30.498,24.459 C30.301,24.305 30.09,24.458 29.954,24.657 C29.0069999999999,25.892 28.074,27.003 26.458,27.593 C25.494,27.837 24.508,27.444 24.042,26.806 C23.73,26.444 23.742,26.043 23.627,25.956 C23.106,26.189 18.624,28.113 19.192,27.217 C20.283,26.037 22.172,25.17 23.84,24.006 ZM36.373,18.436 C36.604,18.572 36.85,18.579 36.925,18.453 C36.925,18.452 36.926,18.451 36.926,18.45 C37,18.323 36.872,18.111 36.6420000000001,17.976 C36.4109999999999,17.841 36.165,17.834 36.092,17.961 C36.091,17.961 36.091,17.962 36.091,17.962 C36.0170000000001,18.088 36.143,18.301 36.373,18.436 ZM32.489,24.717 C32.768,24.865 33.236,25.237 33.039,24.151 C33.0410000000001,23.372 33.554,23.228 34.088,23.043 C34.629,22.851 34.34,22.393 33.763,22.356 C33.054,22.282 32.236,22.271 31.682,22.119 C31.314,22.117 31.085,22.367 31.105,22.663 C31.237,23.904 32.16,24.478 32.489,24.717 ZM37.592,24.838 C37.855,24.705 38.112,24.942 38.097,24.927 C38.141,25.193 37.9299999999999,25.44 37.996,25.795 C38.054,25.938 38.096,26.096 38.355,26.036 C38.776,25.701 39.167,25.679 39.588,25.658 C39.9109999999999,25.678 39.924,26.23 39.72,26.234 C38.942,26.405 38.593,26.616 38.037,26.83 C37.774,26.985 37.548,26.788 37.548,26.766 C37.548,26.744 37.394,26.615 37.502,26.263 C37.521,25.98 37.408,25.826 37.175,25.858 C37,25.954 36.845,26.017 36.758,25.813 C36.723,25.663 36.712,25.59 36.825,25.503 C37.009,25.23 37.579,24.838 37.592,24.838 ZM55.395,26.77 C55.5909999999999,26.529 55.5170000000001,26.394 55.404,26.248 C55.2070000000001,26.122 55.0170000000001,26.14 55.0050000000001,25.824 C55.0350000000001,25.615 55.0940000000001,25.538 55.2639999999999,25.501 C55.5799999999999,25.475 55.693,25.449 55.9780000000001,25.501 C56.2570000000001,25.595 56.3230000000001,25.71 56.2460000000001,25.882 C56.1769999999999,26.059 56.1400000000001,26.146 56.038,26.289 C55.9159999999999,26.519 56.173,26.558 56.251,26.558 C56.4159999999999,26.578 56.6600000000001,26.504 56.769,26.629 C56.7840000000001,26.629 56.846,26.896 56.6600000000001,27.037 C56.6600000000001,27.052 55.5129999999999,27.804 55.0160000000001,27.663 C54.7470000000001,27.59 54.8030000000001,27.36 54.8910000000001,27.209 C55.077,27.037 55.2090000000001,26.942 55.395,26.77 Z "/></svg>