<?xml version="1.0" encoding="utf-8"?>
<!-- Generator: Adobe Illustrator 15.1.0, SVG Export Plug-In . SVG Version: 6.00 Build 0)  -->
<!DOCTYPE svg PUBLIC "-//W3C//DTD SVG 1.1//EN" "http://www.w3.org/Graphics/SVG/1.1/DTD/svg11.dtd">
<svg version="1.1" id="Layer_1" xmlns:ev="http://www.w3.org/2001/xml-events"
	 xmlns="http://www.w3.org/2000/svg" xmlns:xlink="http://www.w3.org/1999/xlink" x="0px" y="0px" width="70px" height="47px"
	 viewBox="0 0 70 47" enable-background="new 0 0 70 47" xml:space="preserve">
<g>
	<defs>
		<path id="SVGID_1_" d="M6.364,0h57.273C67.15,0,70,2.869,70,6.409v34.182C70,44.131,67.15,47,63.637,47H6.364
			C2.849,47,0,44.131,0,40.591V6.409C0,2.869,2.849,0,6.364,0z"/>
	</defs>
	<clipPath id="SVGID_2_">
		<use xlink:href="#SVGID_1_"  overflow="visible"/>
	</clipPath>
	<path clip-path="url(#SVGID_2_)" fill="#ED5565" d="M6.364,0h57.273C67.15,0,70,2.869,70,6.409v34.182
		C70,44.131,67.15,47,63.637,47H6.364C2.849,47,0,44.131,0,40.591V6.409C0,2.869,2.849,0,6.364,0z"/>
	<path clip-path="url(#SVGID_2_)" fill="#4758A9" d="M0,0h70v16H0V0z"/>
	<path clip-path="url(#SVGID_2_)" fill="#57A863" d="M0,31h70v16H0V31z"/>
	<path clip-path="url(#SVGID_2_)" fill="#FFFFFF" d="M41.995,24.366c0.247,0.204,0.19,0.383-0.126,0.396l-1.146,0.045
		c-0.019,0-0.037,0.01-0.056,0.012l0.265,0.972c0.084,0.31-0.064,0.423-0.33,0.252l-0.725-0.465l-0.334,0.922
		c-0.107,0.297-0.29,0.295-0.404-0.004l-0.408-1.068c-0.015,0.009-0.035,0.005-0.049,0.015l-0.981,0.69
		c-0.259,0.183-0.407,0.076-0.329-0.235l0.289-1.16c0.001-0.002,0-0.004,0.001-0.006l-0.838-0.102
		c-0.315-0.039-0.365-0.221-0.111-0.406l0.636-0.459l-0.805-0.723c-0.236-0.212-0.172-0.39,0.143-0.395l1.172-0.02
		c0.024,0,0.049-0.011,0.074-0.015l-0.402-1.22c-0.1-0.305,0.029-0.399,0.289-0.21l0.854,0.627l0.306-1.015
		c0.094-0.307,0.254-0.31,0.356-0.007l0.418,1.229c0.024-0.012,0.06-0.006,0.082-0.021l0.995-0.664
		c0.261-0.174,0.412-0.065,0.335,0.242l-0.261,1.045l0.813,0.018c0.314,0.007,0.375,0.183,0.136,0.391l-0.713,0.618
		c0.014,0.013,0.023,0.031,0.037,0.042L41.995,24.366z M39.081,18.721c-0.008-0.002-0.017-0.005-0.024-0.009v0.001
		c-0.255-0.122-0.522-0.225-0.803-0.304c-2.688-0.759-5.455,0.857-6.18,3.608c-0.139,0.531-0.193,1.065-0.169,1.587
		c0.013,0.522,0.103,1.052,0.279,1.573c0.914,2.7,3.789,4.144,6.417,3.22c0.273-0.096,0.533-0.215,0.78-0.352l0,0
		c0.007-0.004,0.015-0.007,0.022-0.01c0.09-0.031,0.187,0.018,0.219,0.109c0.025,0.075-0.002,0.155-0.061,0.199
		c-0.607,0.561-1.33,1.008-2.152,1.295c-3.301,1.158-6.909-0.654-8.057-4.045c-0.213-0.63-0.326-1.269-0.348-1.901
		c-0.022-0.632,0.046-1.277,0.215-1.919c0.91-3.454,4.384-5.484,7.758-4.531c0.84,0.238,1.594,0.639,2.238,1.16
		c0.062,0.041,0.094,0.119,0.074,0.195C39.266,18.692,39.172,18.747,39.081,18.721z"/>
</g>
</svg>
