<?xml version="1.0" encoding="utf-8"?><!DOCTYPE svg PUBLIC "-//W3C//DTD SVG 1.1//EN" "http://www.w3.org/Graphics/SVG/1.1/DTD/svg11.dtd"><svg version="1.1" baseProfile="full" xmlns="http://www.w3.org/2000/svg" xmlns:xlink="http://www.w3.org/1999/xlink" xmlns:ev="http://www.w3.org/2001/xml-events"   height="47px"   width="70px" ><path fill="rgb( 71, 88, 169 )" d="M6.364,0 C6.364,0 63.636,0 63.636,0 C67.151,0 70,2.86900000000003 70,6.40899999999999 C70,6.40899999999999 70,40.591 70,40.591 C70,44.131 67.151,47 63.636,47 C63.636,47 6.364,47 6.364,47 C2.849,47 0,44.131 0,40.591 C0,40.591 0,6.40899999999999 0,6.40899999999999 C0,2.86900000000003 2.849,0 6.364,0 Z "/><path fill="rgb( 246, 214, 96 )" d="M13,0 C13,0 50,0 50,0 C50,0 50,47 50,47 C50,47 13,0 13,0 C13,0 13,0 13,0 Z "/><path fill="rgb( 255, 255, 255 )" d="M7.282,4.74799999999999 C7.012,4.66800000000001 7.001,4.50599999999997 7.258,4.38900000000001 C7.258,4.38900000000001 8.215,3.95100000000002 8.215,3.95100000000002 C8.47199999999999,3.83300000000003 8.693,3.50599999999997 8.706,3.22500000000002 C8.706,3.22500000000002 8.752,2.23599999999999 8.752,2.23599999999999 C8.765,1.95499999999998 8.922,1.90100000000001 9.102,2.11700000000002 C9.102,2.11700000000002 9.774,2.92200000000003 9.774,2.92200000000003 C9.95399999999999,3.13799999999998 10.316,3.22800000000001 10.578,3.12299999999999 C10.578,3.12299999999999 11.659,2.69 11.659,2.69 C11.922,2.58499999999998 12.014,2.69499999999999 11.863,2.935 C11.863,2.935 11.241,3.92700000000002 11.241,3.92700000000002 C11.091,4.166 11.109,4.54399999999998 11.28,4.76600000000002 C11.28,4.76600000000002 11.933,5.613 11.933,5.613 C12.104,5.83600000000001 12.018,5.97500000000002 11.741,5.923 C11.741,5.923 10.678,5.72399999999999 10.678,5.72399999999999 C10.401,5.67200000000003 10.04,5.81799999999998 9.875,6.04700000000003 C9.875,6.04700000000003 9.32899999999999,6.80799999999999 9.32899999999999,6.80799999999999 C9.164,7.03800000000001 9.003,6.99700000000001 8.971,6.71699999999998 C8.971,6.71699999999998 8.855,5.70299999999997 8.855,5.70299999999997 C8.82299999999999,5.42399999999998 8.57599999999999,5.13 8.306,5.05000000000001 C8.306,5.05000000000001 7.282,4.74799999999999 7.282,4.74799999999999 Z "/><path fill="rgb( 255, 255, 255 )" d="M11.611,10.249 C11.341,10.169 11.33,10.007 11.587,9.88999999999999 C11.587,9.88999999999999 12.544,9.45100000000002 12.544,9.45100000000002 C12.801,9.334 13.022,9.00700000000001 13.035,8.726 C13.035,8.726 13.081,7.73700000000002 13.081,7.73700000000002 C13.094,7.45600000000002 13.251,7.40199999999999 13.431,7.61799999999999 C13.431,7.61799999999999 14.103,8.423 14.103,8.423 C14.283,8.63900000000001 14.644,8.72899999999998 14.907,8.62400000000002 C14.907,8.62400000000002 15.988,8.19099999999997 15.988,8.19099999999997 C16.251,8.08600000000001 16.342,8.19600000000003 16.192,8.43599999999998 C16.192,8.43599999999998 15.57,9.428 15.57,9.428 C15.42,9.66699999999997 15.438,10.045 15.609,10.267 C15.609,10.267 16.262,11.114 16.262,11.114 C16.433,11.337 16.347,11.476 16.07,11.424 C16.07,11.424 15.007,11.225 15.007,11.225 C14.73,11.173 14.369,11.319 14.204,11.548 C14.204,11.548 13.658,12.309 13.658,12.309 C13.493,12.539 13.331,12.498 13.3,12.218 C13.3,12.218 13.184,11.204 13.184,11.204 C13.152,10.924 12.905,10.631 12.635,10.551 C12.635,10.551 11.611,10.249 11.611,10.249 Z "/><path fill="rgb( 255, 255, 255 )" d="M15.94,15.749 C15.67,15.67 15.659,15.508 15.916,15.391 C15.916,15.391 16.873,14.952 16.873,14.952 C17.13,14.835 17.351,14.508 17.364,14.227 C17.364,14.227 17.41,13.238 17.41,13.238 C17.423,12.957 17.58,12.903 17.76,13.118 C17.76,13.118 18.432,13.924 18.432,13.924 C18.612,14.14 18.973,14.23 19.236,14.125 C19.236,14.125 20.317,13.692 20.317,13.692 C20.579,13.587 20.671,13.697 20.521,13.936 C20.521,13.936 19.899,14.929 19.899,14.929 C19.749,15.168 19.767,15.546 19.938,15.768 C19.938,15.768 20.591,16.615 20.591,16.615 C20.762,16.838 20.676,16.977 20.399,16.925 C20.399,16.925 19.336,16.726 19.336,16.726 C19.059,16.674 18.698,16.82 18.533,17.049 C18.533,17.049 17.986,17.81 17.986,17.81 C17.822,18.04 17.66,17.999 17.628,17.719 C17.628,17.719 17.513,16.705 17.513,16.705 C17.481,16.425 17.234,16.132 16.964,16.052 C16.964,16.052 15.94,15.749 15.94,15.749 Z "/><path fill="rgb( 255, 255, 255 )" d="M20.269,21.25 C19.999,21.171 19.988,21.009 20.245,20.892 C20.245,20.892 21.202,20.453 21.202,20.453 C21.459,20.336 21.68,20.009 21.693,19.728 C21.693,19.728 21.739,18.739 21.739,18.739 C21.752,18.457 21.909,18.404 22.089,18.619 C22.089,18.619 22.761,19.425 22.761,19.425 C22.941,19.641 23.302,19.731 23.565,19.626 C23.565,19.626 24.646,19.193 24.646,19.193 C24.908,19.088 25,19.198 24.85,19.437 C24.85,19.437 24.228,20.429 24.228,20.429 C24.078,20.669 24.096,21.047 24.267,21.269 C24.267,21.269 24.92,22.116 24.92,22.116 C25.091,22.338 25.005,22.478 24.728,22.426 C24.728,22.426 23.665,22.227 23.665,22.227 C23.388,22.175 23.027,22.321 22.862,22.55 C22.862,22.55 22.315,23.311 22.315,23.311 C22.15,23.541 21.989,23.5 21.957,23.22 C21.957,23.22 21.841,22.206 21.841,22.206 C21.81,21.926 21.563,21.632 21.293,21.553 C21.293,21.553 20.269,21.25 20.269,21.25 Z "/><path fill="rgb( 255, 255, 255 )" d="M24.598,26.751 C24.328,26.672 24.317,26.51 24.574,26.392 C24.574,26.392 25.531,25.954 25.531,25.954 C25.788,25.836 26.009,25.51 26.022,25.229 C26.022,25.229 26.068,24.24 26.068,24.24 C26.081,23.958 26.238,23.905 26.418,24.12 C26.418,24.12 27.09,24.926 27.09,24.926 C27.269,25.142 27.631,25.232 27.894,25.127 C27.894,25.127 28.975,24.694 28.975,24.694 C29.237,24.589 29.329,24.699 29.179,24.938 C29.179,24.938 28.557,25.93 28.557,25.93 C28.407,26.17 28.424,26.548 28.596,26.77 C28.596,26.77 29.249,27.617 29.249,27.617 C29.42,27.839 29.334,27.979 29.057,27.927 C29.057,27.927 27.994,27.728 27.994,27.728 C27.717,27.676 27.356,27.822 27.191,28.051 C27.191,28.051 26.644,28.812 26.644,28.812 C26.479,29.041 26.318,29.001 26.286,28.721 C26.286,28.721 26.17,27.707 26.17,27.707 C26.139,27.427 25.892,27.133 25.622,27.054 C25.622,27.054 24.598,26.751 24.598,26.751 Z "/><path fill="rgb( 255, 255, 255 )" d="M28.927,32.252 C28.657,32.173 28.646,32.011 28.903,31.893 C28.903,31.893 29.86,31.455 29.86,31.455 C30.117,31.337 30.338,31.011 30.351,30.73 C30.351,30.73 30.397,29.741 30.397,29.741 C30.41,29.459 30.567,29.406 30.747,29.621 C30.747,29.621 31.419,30.427 31.419,30.427 C31.598,30.642 31.96,30.733 32.223,30.628 C32.223,30.628 33.304,30.195 33.304,30.195 C33.566,30.09 33.658,30.2 33.508,30.439 C33.508,30.439 32.886,31.431 32.886,31.431 C32.736,31.671 32.753,32.049 32.925,32.271 C32.925,32.271 33.578,33.118 33.578,33.118 C33.749,33.34 33.663,33.48 33.386,33.428 C33.386,33.428 32.323,33.229 32.323,33.229 C32.046,33.177 31.685,33.322 31.52,33.552 C31.52,33.552 30.973,34.313 30.973,34.313 C30.808,34.542 30.647,34.502 30.615,34.222 C30.615,34.222 30.499,33.208 30.499,33.208 C30.467,32.928 30.221,32.634 29.951,32.555 C29.951,32.555 28.927,32.252 28.927,32.252 Z "/><path fill="rgb( 255, 255, 255 )" d="M33.256,37.753 C32.986,37.673 32.975,37.512 33.232,37.394 C33.232,37.394 34.189,36.956 34.189,36.956 C34.446,36.838 34.667,36.512 34.68,36.231 C34.68,36.231 34.726,35.242 34.726,35.242 C34.739,34.96 34.896,34.906 35.076,35.122 C35.076,35.122 35.748,35.928 35.748,35.928 C35.927,36.143 36.289,36.234 36.552,36.129 C36.552,36.129 37.633,35.696 37.633,35.696 C37.895,35.591 37.987,35.701 37.837,35.94 C37.837,35.94 37.215,36.932 37.215,36.932 C37.065,37.172 37.082,37.549 37.254,37.772 C37.254,37.772 37.907,38.619 37.907,38.619 C38.078,38.841 37.992,38.981 37.715,38.929 C37.715,38.929 36.652,38.73 36.652,38.73 C36.375,38.678 36.014,38.823 35.849,39.053 C35.849,39.053 35.302,39.814 35.302,39.814 C35.137,40.043 34.976,40.002 34.944,39.723 C34.944,39.723 34.828,38.709 34.828,38.709 C34.796,38.429 34.55,38.135 34.28,38.056 C34.28,38.056 33.256,37.753 33.256,37.753 Z "/><path fill="rgb( 255, 255, 255 )" d="M36.966,42.468 C36.696,42.389 36.686,42.227 36.943,42.109 C36.943,42.109 37.9,41.671 37.9,41.671 C38.157,41.553 38.377,41.227 38.39,40.946 C38.39,40.946 38.436,39.957 38.436,39.957 C38.449,39.675 38.607,39.622 38.787,39.837 C38.787,39.837 39.458,40.643 39.458,40.643 C39.638,40.858 40,40.949 40.262,40.844 C40.262,40.844 41.343,40.411 41.343,40.411 C41.606,40.306 41.698,40.416 41.548,40.655 C41.548,40.655 40.926,41.647 40.926,41.647 C40.776,41.887 40.793,42.265 40.964,42.487 C40.964,42.487 41.617,43.334 41.617,43.334 C41.789,43.556 41.702,43.696 41.425,43.644 C41.425,43.644 40.363,43.445 40.363,43.445 C40.086,43.393 39.724,43.538 39.559,43.768 C39.559,43.768 39.013,44.529 39.013,44.529 C38.848,44.758 38.687,44.718 38.655,44.438 C38.655,44.438 38.539,43.424 38.539,43.424 C38.507,43.144 38.26,42.85 37.99,42.771 C37.99,42.771 36.966,42.468 36.966,42.468 Z "/></svg>