<?xml version="1.0" encoding="utf-8"?><!DOCTYPE svg PUBLIC "-//W3C//DTD SVG 1.1//EN" "http://www.w3.org/Graphics/SVG/1.1/DTD/svg11.dtd"><svg version="1.1" baseProfile="full" xmlns="http://www.w3.org/2000/svg" xmlns:xlink="http://www.w3.org/1999/xlink" xmlns:ev="http://www.w3.org/2001/xml-events"   height="47px"   width="70px" ><path fill="rgb( 82, 193, 98 )" d="M6.364,0 C6.364,0 63.636,0 63.636,0 C67.151,0 70,2.86900000000003 70,6.40899999999999 C70,6.40899999999999 70,40.591 70,40.591 C70,44.131 67.151,47 63.636,47 C63.636,47 6.364,47 6.364,47 C2.849,47 0,44.131 0,40.591 C0,40.591 0,6.40899999999999 0,6.40899999999999 C0,2.86900000000003 2.849,0 6.364,0 Z "/><path fill="rgb( 246, 214, 96 )" d="M5.806,23.527 C5.806,23.527 35,1 35,1 C35,1 64.194,23.527 64.194,23.527 C64.194,23.527 35,46.054 35,46.054 C35,46.054 5.806,23.527 5.806,23.527 Z "/><path fill="rgb( 71, 88, 169 )" d="M35,8 C43.284,8 50,14.716 50,23 C50,31.284 43.284,38 35,38 C26.716,38 20,31.284 20,23 C20,14.716 26.716,8 35,8 Z "/><path fill="rgb( 245, 247, 250 )" d="M47.995,29.999 C48.421,29.11 48.76,28.173 49.002,27.198 C45.929,20.03 38.746,15.001 30.375,15.001 C26.932,15.001 23.692,15.853 20.854,17.352 C20.509,18.078 20.222,18.836 19.998,19.621 C22.762,18.22 25.894,17.429 29.214,17.429 C37.729,17.429 45.014,22.633 47.995,29.999 Z "/></svg>