<?xml version="1.0" encoding="utf-8"?>
<!-- Generator: Adobe Illustrator 15.1.0, SVG Export Plug-In . SVG Version: 6.00 Build 0)  -->
<!DOCTYPE svg PUBLIC "-//W3C//DTD SVG 1.1//EN" "http://www.w3.org/Graphics/SVG/1.1/DTD/svg11.dtd">
<svg version="1.1" id="Layer_1" xmlns:ev="http://www.w3.org/2001/xml-events"
	 xmlns="http://www.w3.org/2000/svg" xmlns:xlink="http://www.w3.org/1999/xlink" x="0px" y="0px" width="70px" height="47px"
	 viewBox="0 0 70 47" enable-background="new 0 0 70 47" xml:space="preserve">
<g>
	<defs>
		<path id="SVGID_1_" d="M6.364,0h57.273C67.15,0,70,2.869,70,6.409v34.182C70,44.131,67.15,47,63.637,47H6.364
			C2.849,47,0,44.131,0,40.591V6.409C0,2.869,2.849,0,6.364,0z"/>
	</defs>
	<clipPath id="SVGID_2_">
		<use xlink:href="#SVGID_1_"  overflow="visible"/>
	</clipPath>
	<path clip-path="url(#SVGID_2_)" fill="#4758A9" d="M6.364,0h57.273C67.15,0,70,2.869,70,6.409v34.182
		C70,44.131,67.15,47,63.637,47H6.364C2.849,47,0,44.131,0,40.591V6.409C0,2.869,2.849,0,6.364,0z"/>
	<path clip-path="url(#SVGID_2_)" fill="#ED5565" d="M0,0h70v4H0V0z"/>
	<path clip-path="url(#SVGID_2_)" fill="#ED5565" d="M0,43h70v4H0V43z"/>
	<path clip-path="url(#SVGID_2_)" fill="#F5F7FA" d="M52.914,33.466v-1.491h-0.918v-1.224h-0.839v-1.06h-0.622v-0.736h-0.576
		c-0.082-0.042-0.184-0.123-0.281-0.223l-0.169-3.881c0.115-0.18,0.269-0.309,0.435-0.385v-2.699
		c-0.077,0.204-0.543,0.133-0.543,0.581V20.96h-0.412v1.389h-0.125v-0.487h-0.436c0-0.063,0-0.126,0-0.188h0.436v-0.365h-0.436
		c0-0.583,0-1.04,0-1.102c0-0.18-0.035-0.244-0.179-0.196c-0.187,0.063-0.326,0.267-0.435,0.471
		c-0.109,0.204-0.358,0.117-0.358-0.024c0-0.58,0.335-0.408,0.335-0.91c0-0.173-0.148-0.11-0.311,0.008
		c-0.164,0.118-0.172-0.094-0.172-0.29c0-0.283,0.217-0.197,0.217-0.565c0-0.212-0.186-0.102-0.303,0.015
		c-0.117,0.118-0.193,0.071-0.193-0.188c0-0.282,0.279-0.29,0.279-0.549c0-0.157-0.133-0.11-0.218,0.008
		c-0.086,0.117-0.296,0.094-0.264-0.039c0.106-0.456-0.132-0.919-0.319-1.075c-0.188-0.157-0.201-0.259-0.201-0.393
		c0-0.133-0.017-0.211-0.109-0.211c-0.094,0-0.109,0.078-0.109,0.211c0,0.134-0.015,0.236-0.201,0.393
		c-0.188,0.156-0.426,0.619-0.32,1.075c0.031,0.133-0.178,0.156-0.264,0.039c-0.086-0.118-0.218-0.165-0.218-0.008
		c0,0.259,0.28,0.267,0.28,0.549c0,0.259-0.078,0.306-0.194,0.188c-0.116-0.117-0.303-0.227-0.303-0.015
		c0,0.368,0.217,0.282,0.217,0.565c0,0.196-0.008,0.408-0.171,0.29c-0.163-0.118-0.311-0.181-0.311-0.008
		c0,0.502,0.334,0.33,0.334,0.91c0,0.141-0.248,0.228-0.357,0.024s-0.249-0.408-0.436-0.471c-0.143-0.048-0.179,0.016-0.179,0.196
		c0,0.096,0,1.137,0,2.142h-0.708v-0.287h-0.264v0.287h-3.6v-1.852c0,0.079-0.459,0.298-0.459,0.494h-0.651c0-0.142,0-0.31,0-0.452
		c0.131,0,0.263-0.12,0.29-0.223c0.013-0.051-0.016-0.072-0.061-0.041c-0.046,0.031-0.297,0.14-0.338,0.061
		c-0.021-0.038-0.025-0.046,0.075-0.116c0.073-0.051,0.332-0.232,0.383-0.267c0.033-0.024,0.032-0.066,0.015-0.107
		c0-0.002-0.002-0.003-0.004-0.005c-0.006-0.012-0.012-0.024-0.02-0.034c-0.037-0.051-0.093-0.088-0.129-0.064
		c-0.089,0.06-0.217,0.15-0.312,0.216c-0.072,0.049-0.166,0.108-0.199,0.009c-0.045-0.127-0.176-0.239-0.332-0.249
		c0-0.023,0-0.046,0-0.061c0-0.181-0.022-0.322,0.195-0.502c0.217-0.181,0.18-0.306,0.18-0.479c0-0.173-0.141-0.29-0.266-0.047
		c-0.123,0.243-0.248,0.149-0.248,0.071c0-0.079,0-0.173,0-0.314c0-0.141,0.147-0.392,0.342-0.549
		c0.194-0.157,0.172-0.228,0.172-0.298c0-0.071,0-0.236,0-0.322c0-0.298-0.336-0.133-0.437,0.086
		c-0.055,0.121-0.155,0.024-0.155-0.071c0-0.094,0-0.243,0-0.329c0-0.188,0.272-0.267,0.272-0.471c0-0.102,0-0.274,0-0.408
		c0-0.329-0.312-0.125-0.358-0.023c-0.129,0.282-0.24,0.165-0.24,0.016c0-0.135-0.016-0.259,0.14-0.424
		c0.155-0.165,0.108-0.377,0.108-0.487c0-0.36-0.311-0.133-0.381,0.008c-0.069,0.142-0.187,0.181-0.187-0.031
		c0-0.259,0.226-0.408,0.226-0.604c0-0.228-0.162-0.196-0.187-0.141c-0.05,0.119-0.265,0.156-0.265-0.04
		c0-0.188,0.099-0.204,0.099-0.439c0.21,0,0.202-0.492,0-0.492h-0.272c0.146,0,0.146-0.056,0.039-0.191
		c-0.105-0.134-0.102-0.161-0.291-0.161c0.146,0,0.146-0.058,0.038-0.192c-0.106-0.134-0.102-0.161-0.292-0.161h-0.105
		c0-0.188,0.047-0.658-0.279-0.658c-0.327,0-0.28,0.47-0.28,0.658h-0.105c-0.19,0-0.186,0.027-0.292,0.161
		c-0.107,0.134-0.107,0.192,0.039,0.192c-0.19,0-0.186,0.027-0.292,0.161c-0.106,0.135-0.106,0.191,0.04,0.191h-0.273
		c-0.202,0-0.21,0.492,0,0.492c0,0.235,0.098,0.251,0.098,0.439c0,0.196-0.214,0.159-0.264,0.04
		c-0.024-0.055-0.187-0.087-0.187,0.141c0,0.196,0.226,0.345,0.226,0.604c0,0.212-0.117,0.173-0.187,0.031
		c-0.07-0.141-0.381-0.368-0.381-0.008c0,0.11-0.047,0.322,0.109,0.487c0.155,0.165,0.14,0.289,0.14,0.424
		c0,0.149-0.112,0.266-0.241-0.016c-0.047-0.102-0.358-0.306-0.358,0.023c0,0.134,0,0.306,0,0.408c0,0.204,0.272,0.283,0.272,0.471
		c0,0.086,0,0.235,0,0.329c0,0.095-0.1,0.192-0.155,0.071c-0.101-0.219-0.436-0.384-0.436-0.086c0,0.086,0,0.251,0,0.322
		c0,0.07-0.023,0.141,0.171,0.298c0.195,0.157,0.343,0.408,0.343,0.549c0,0.141,0,0.235,0,0.314c0,0.078-0.125,0.172-0.249-0.071
		c-0.125-0.243-0.265-0.126-0.265,0.047c0,0.173-0.038,0.298,0.179,0.479c0.218,0.18,0.195,0.321,0.195,0.502
		c0,0.015,0,0.038,0,0.061c-0.156,0.01-0.286,0.122-0.331,0.249c-0.034,0.099-0.127,0.04-0.199-0.009
		c-0.096-0.066-0.224-0.156-0.313-0.216c-0.035-0.024-0.092,0.013-0.129,0.064c-0.008,0.01-0.014,0.022-0.02,0.034
		c-0.001,0.002-0.002,0.003-0.003,0.005c-0.018,0.041-0.019,0.083,0.014,0.107c0.051,0.035,0.31,0.216,0.383,0.267
		c0.101,0.07,0.096,0.078,0.075,0.116c-0.041,0.079-0.292-0.03-0.338-0.061c-0.045-0.031-0.073-0.01-0.06,0.041
		c0.027,0.103,0.159,0.223,0.29,0.223c0,0.142,0,0.316,0,0.458h-0.683c0-0.196-0.428-0.421-0.428-0.5v1.852h-3.599v-0.287h-0.264
		v0.287h-0.708c0-1.005,0-2.046,0-2.142c0-0.18-0.036-0.244-0.178-0.196c-0.187,0.063-0.327,0.267-0.436,0.471
		s-0.357,0.117-0.357-0.024c0-0.58,0.334-0.408,0.334-0.91c0-0.173-0.148-0.11-0.311,0.008c-0.163,0.118-0.171-0.094-0.171-0.29
		c0-0.283,0.217-0.197,0.217-0.565c0-0.212-0.186-0.102-0.303,0.015c-0.116,0.118-0.194,0.071-0.194-0.188
		c0-0.282,0.28-0.29,0.28-0.549c0-0.157-0.132-0.11-0.218,0.008c-0.085,0.117-0.295,0.094-0.264-0.039
		c0.106-0.456-0.132-0.919-0.319-1.075c-0.187-0.157-0.202-0.259-0.202-0.393c0-0.133-0.016-0.211-0.109-0.211
		c-0.093,0-0.109,0.078-0.109,0.211c0,0.134-0.015,0.236-0.202,0.393c-0.186,0.156-0.425,0.619-0.319,1.075
		c0.031,0.133-0.178,0.156-0.264,0.039c-0.085-0.118-0.217-0.165-0.217-0.008c0,0.259,0.279,0.267,0.279,0.549
		c0,0.259-0.078,0.306-0.194,0.188c-0.117-0.117-0.303-0.227-0.303-0.015c0,0.368,0.218,0.282,0.218,0.565
		c0,0.196-0.008,0.408-0.172,0.29c-0.163-0.118-0.311-0.181-0.311-0.008c0,0.502,0.335,0.33,0.335,0.91
		c0,0.141-0.249,0.228-0.358,0.024s-0.249-0.408-0.435-0.471c-0.143-0.048-0.179,0.016-0.179,0.196c0,0.062,0,0.519,0,1.102h-0.435
		v0.365h0.435c0,0.062,0,0.125,0,0.188h-0.435v0.487h-0.125V20.96H21.6v1.389c0-0.448-0.466-0.377-0.544-0.581v2.699
		c0.166,0.076,0.32,0.205,0.435,0.387l-0.169,3.879c-0.098,0.1-0.199,0.181-0.281,0.223h-0.576v0.736h-0.622v1.06h-0.839v1.224
		h-0.918v1.491h-1.088v1.529h6.67h0.498h1.275h0.497h8.629h0.342h1.182h0.343h8.629h0.496h1.275h0.498h6.67v-1.529H52.914z"/>
</g>
</svg>
