<?xml version="1.0" encoding="utf-8"?>
<!-- Generator: Adobe Illustrator 15.1.0, SVG Export Plug-In . SVG Version: 6.00 Build 0)  -->
<!DOCTYPE svg PUBLIC "-//W3C//DTD SVG 1.1//EN" "http://www.w3.org/Graphics/SVG/1.1/DTD/svg11.dtd">
<svg version="1.1" id="Layer_1" xmlns:ev="http://www.w3.org/2001/xml-events"
	 xmlns="http://www.w3.org/2000/svg" xmlns:xlink="http://www.w3.org/1999/xlink" x="0px" y="0px" width="70px" height="47px"
	 viewBox="0 0 70 47" enable-background="new 0 0 70 47" xml:space="preserve">
<g>
	<defs>
		<path id="SVGID_1_" d="M6.364,0h57.273C67.15,0,70,2.869,70,6.409v34.182C70,44.131,67.15,47,63.637,47H6.364
			C2.849,47,0,44.131,0,40.591V6.409C0,2.869,2.849,0,6.364,0z"/>
	</defs>
	<clipPath id="SVGID_2_">
		<use xlink:href="#SVGID_1_"  overflow="visible"/>
	</clipPath>
	<path clip-path="url(#SVGID_2_)" fill="#F5F7FA" d="M6.364,0h57.273C67.15,0,70,2.869,70,6.409v34.182
		C70,44.131,67.15,47,63.637,47H6.364C2.849,47,0,44.131,0,40.591V6.409C0,2.869,2.849,0,6.364,0z"/>
	<path clip-path="url(#SVGID_2_)" fill="#ED5565" d="M0,0h23v47H0V0z"/>
	<path clip-path="url(#SVGID_2_)" fill="#ED5565" d="M46,0h24v47H46V0z"/>
	<path clip-path="url(#SVGID_2_)" fill="#ED5565" d="M35.11,14.472c-0.336-0.637-0.885-0.637-1.221,0l-0.504,0.955
		c-0.335,0.637-0.733,1.23-0.884,1.319c-0.15,0.089-0.904-0.185-1.248-0.366c-0.344-0.181-0.518,0.247-0.387,0.952l0.456,2.462
		c0.131,0.704,0.14,1.487,0.021,1.739c-0.119,0.253-0.917-0.382-1.395-0.927l-0.441-0.502c-0.478-0.544-0.949-0.705-1.046-0.359
		c-0.098,0.346-0.227,0.706-0.287,0.799c-0.061,0.094-0.968,0.003-1.687-0.151l-0.141-0.03c-0.719-0.154-1.154,0.287-0.967,0.979
		l0.043,0.158c0.187,0.692,0.403,1.448,0.478,1.68c0.076,0.231-0.515,0.683-0.785,0.812c-0.27,0.129-0.032,0.613,0.529,1.076
		l2.704,2.232c0.561,0.465,1.084,0.936,1.161,1.051c0.078,0.113-0.019,0.76-0.133,1.141c-0.114,0.381,0.39,0.623,1.121,0.537
		l2.074-0.243c0.731-0.085,1.416-0.127,1.522-0.093c0.106,0.033,0.167,0.816,0.136,1.531l-0.105,2.475
		c-0.031,0.715,0.123,1.3,0.341,1.3c0.219,0,0.383-0.586,0.365-1.301l-0.06-2.462c-0.018-0.715,0.016-1.37,0.076-1.454
		c0.06-0.084,0.852-0.081,1.583,0.004l2.073,0.243c0.729,0.086,1.235-0.156,1.121-0.537s-0.201-0.807-0.194-0.946
		c0.008-0.14,0.661-0.78,1.223-1.245l2.703-2.232c0.562-0.463,0.799-0.947,0.529-1.076c-0.27-0.129-0.561-0.325-0.646-0.436
		c-0.086-0.111,0.152-1.364,0.34-2.056l0.043-0.158c0.188-0.692-0.248-1.133-0.967-0.979l-0.141,0.03
		c-0.72,0.154-1.408,0.25-1.533,0.214c-0.123-0.037-0.344-0.516-0.441-0.862c-0.098-0.346-0.568-0.185-1.046,0.36l-0.441,0.501
		c-0.478,0.545-1.079,1.079-1.338,1.188c-0.258,0.109-0.167-1.296-0.036-2l0.457-2.462c0.131-0.705-0.044-1.133-0.388-0.952
		c-0.343,0.181-0.782,0.381-0.976,0.444c-0.192,0.064-0.82-0.76-1.156-1.397L35.11,14.472z"/>
</g>
</svg>
