<?xml version="1.0" encoding="utf-8"?>
<!-- Generator: Adobe Illustrator 15.1.0, SVG Export Plug-In . SVG Version: 6.00 Build 0)  -->
<!DOCTYPE svg PUBLIC "-//W3C//DTD SVG 1.1//EN" "http://www.w3.org/Graphics/SVG/1.1/DTD/svg11.dtd">
<svg version="1.1" id="Layer_1" xmlns:ev="http://www.w3.org/2001/xml-events"
	 xmlns="http://www.w3.org/2000/svg" xmlns:xlink="http://www.w3.org/1999/xlink" x="0px" y="0px" width="70px" height="49px"
	 viewBox="0 0 70 49" enable-background="new 0 0 70 49" xml:space="preserve">
<g>
	<g>
		<g>
			<defs>
				<path id="SVGID_1_" d="M6.363,0h57.274C67.15,0,70,2.991,70,6.682v35.636C70,46.009,67.15,49,63.637,49H6.363
					C2.849,49,0,46.009,0,42.318V6.682C0,2.991,2.849,0,6.363,0z"/>
			</defs>
			<clipPath id="SVGID_2_">
				<use xlink:href="#SVGID_1_"  overflow="visible"/>
			</clipPath>
			<path clip-path="url(#SVGID_2_)" fill="#FAE00E" d="M6.363,0h57.274C67.15,0,70,2.991,70,6.682v35.636
				C70,46.009,67.15,49,63.637,49H6.363C2.849,49,0,46.009,0,42.318V6.682C0,2.991,2.849,0,6.363,0z"/>
		</g>
	</g>
	<g>
		<g>
			<defs>
				<path id="SVGID_3_" d="M6.363,0h57.274C67.15,0,70,2.991,70,6.682v35.636C70,46.009,67.15,49,63.637,49H6.363
					C2.849,49,0,46.009,0,42.318V6.682C0,2.991,2.849,0,6.363,0z"/>
			</defs>
			<clipPath id="SVGID_4_">
				<use xlink:href="#SVGID_3_"  overflow="visible"/>
			</clipPath>
			<path clip-path="url(#SVGID_4_)" fill="#DC060D" d="M0,11.468h70v6.255H0V11.468z"/>
		</g>
	</g>
	<g>
		<g>
			<defs>
				<path id="SVGID_5_" d="M6.363,0h57.274C67.15,0,70,2.991,70,6.682v35.636C70,46.009,67.15,49,63.637,49H6.363
					C2.849,49,0,46.009,0,42.318V6.682C0,2.991,2.849,0,6.363,0z"/>
			</defs>
			<clipPath id="SVGID_6_">
				<use xlink:href="#SVGID_5_"  overflow="visible"/>
			</clipPath>
			<path clip-path="url(#SVGID_6_)" fill="#DC060D" d="M0,0h70v6.255H0V0z"/>
		</g>
	</g>
	<g>
		<g>
			<defs>
				<path id="SVGID_7_" d="M6.363,0h57.274C67.15,0,70,2.991,70,6.682v35.636C70,46.009,67.15,49,63.637,49H6.363
					C2.849,49,0,46.009,0,42.318V6.682C0,2.991,2.849,0,6.363,0z"/>
			</defs>
			<clipPath id="SVGID_8_">
				<use xlink:href="#SVGID_7_"  overflow="visible"/>
			</clipPath>
			<path clip-path="url(#SVGID_8_)" fill="#DC060D" d="M0,21.894h70v6.256H0V21.894z"/>
		</g>
	</g>
	<g>
		<g>
			<defs>
				<path id="SVGID_9_" d="M6.363,0h57.274C67.15,0,70,2.991,70,6.682v35.636C70,46.009,67.15,49,63.637,49H6.363
					C2.849,49,0,46.009,0,42.318V6.682C0,2.991,2.849,0,6.363,0z"/>
			</defs>
			<clipPath id="SVGID_10_">
				<use xlink:href="#SVGID_9_"  overflow="visible"/>
			</clipPath>
			<path clip-path="url(#SVGID_10_)" fill="#DC060D" d="M0,33.361h70v6.256H0V33.361z"/>
		</g>
	</g>
	<g>
		<g>
			<defs>
				<path id="SVGID_11_" d="M6.363,0h57.274C67.15,0,70,2.991,70,6.682v35.636C70,46.009,67.15,49,63.637,49H6.363
					C2.849,49,0,46.009,0,42.318V6.682C0,2.991,2.849,0,6.363,0z"/>
			</defs>
			<clipPath id="SVGID_12_">
				<use xlink:href="#SVGID_11_"  overflow="visible"/>
			</clipPath>
			<path clip-path="url(#SVGID_12_)" fill="#DC060D" d="M0,44.83h70v6.256H0V44.83z"/>
		</g>
	</g>
</g>
</svg>
