<?xml version="1.0" encoding="utf-8"?><!DOCTYPE svg PUBLIC "-//W3C//DTD SVG 1.1//EN" "http://www.w3.org/Graphics/SVG/1.1/DTD/svg11.dtd"><svg version="1.1" baseProfile="full" xmlns="http://www.w3.org/2000/svg" xmlns:xlink="http://www.w3.org/1999/xlink" xmlns:ev="http://www.w3.org/2001/xml-events"   height="47px"   width="70px" ><path fill="rgb( 237, 85, 101 )" d="M6.364,0 C6.364,0 63.636,0 63.636,0 C67.151,0 70,2.86900000000003 70,6.40899999999999 C70,6.40899999999999 70,40.591 70,40.591 C70,44.131 67.151,47 63.636,47 C63.636,47 6.364,47 6.364,47 C2.84899999999999,47 0,44.131 0,40.591 C0,40.591 0,6.40899999999999 0,6.40899999999999 C0,2.86900000000003 2.84899999999999,0 6.364,0 Z "/><path fill="rgb( 246, 187, 66 )" d="M10.304,25.708 C9.47900000000001,26.294 9,25.9640000000001 9.239,24.975 C9.239,24.975 10.128,21.292 10.128,21.292 C10.367,20.303 9.93600000000001,18.951 9.16999999999999,18.288 C9.16999999999999,18.288 6.47800000000001,15.957 6.47800000000001,15.957 C5.71199999999999,15.294 5.911,14.729 6.91900000000001,14.7 C6.91900000000001,14.7 10.688,14.5940000000001 10.688,14.5940000000001 C11.697,14.5650000000001 12.756,13.7430000000001 13.043,12.7670000000001 C13.043,12.7670000000001 14.223,8.74400000000003 14.223,8.74400000000003 C14.51,7.76800000000003 15.024,7.75199999999995 15.367,8.71000000000004 C15.367,8.71000000000004 16.787,12.679 16.787,12.679 C17.129,13.636 18.235,14.428 19.244,14.438 C19.244,14.438 23.088,14.477 23.088,14.477 C24.097,14.487 24.299,15.042 23.537,15.71 C23.537,15.71 20.612,18.274 20.612,18.274 C19.851,18.941 19.458,20.288 19.74,21.265 C19.74,21.265 20.674,24.505 20.674,24.505 C20.956,25.4829999999999 20.482,25.848 19.622,25.316 C19.622,25.316 16.499,23.385 16.499,23.385 C15.639,22.853 14.26,22.898 13.435,23.484 C13.435,23.484 10.304,25.708 10.304,25.708 Z "/><path fill="rgb( 246, 187, 66 )" d="M27.442,10.149 C27.163,10.352 27.001,10.2380000000001 27.082,9.89400000000001 C27.082,9.89400000000001 27.382,8.61500000000001 27.382,8.61500000000001 C27.463,8.27200000000005 27.317,7.803 27.059,7.572 C27.059,7.572 26.15,6.76300000000003 26.15,6.76300000000003 C25.891,6.53300000000002 25.958,6.33600000000001 26.299,6.32600000000002 C26.299,6.32600000000002 27.571,6.28999999999996 27.571,6.28999999999996 C27.912,6.27999999999997 28.27,5.99400000000003 28.366,5.65499999999997 C28.366,5.65499999999997 28.765,4.25800000000004 28.765,4.25800000000004 C28.862,3.91899999999998 29.036,3.91399999999999 29.151,4.24699999999996 C29.151,4.24699999999996 29.631,5.625 29.631,5.625 C29.746,5.95699999999999 30.12,6.23199999999997 30.461,6.23500000000001 C30.461,6.23500000000001 31.759,6.24900000000002 31.759,6.24900000000002 C32.099,6.25300000000004 32.168,6.44500000000005 31.911,6.67700000000002 C31.911,6.67700000000002 30.923,7.56700000000001 30.923,7.56700000000001 C30.665,7.79899999999998 30.533,8.26700000000005 30.628,8.60599999999999 C30.628,8.60599999999999 30.943,9.73099999999999 30.943,9.73099999999999 C31.039,10.0700000000001 30.879,10.197 30.588,10.0119999999999 C30.588,10.0119999999999 29.534,9.34199999999998 29.534,9.34199999999998 C29.243,9.15700000000004 28.777,9.173 28.499,9.37599999999998 C28.499,9.37599999999998 27.442,10.149 27.442,10.149 Z "/><path fill="rgb( 246, 187, 66 )" d="M27.442,28.899 C27.163,29.102 27.001,28.9880000000001 27.082,28.644 C27.082,28.644 27.382,27.365 27.382,27.365 C27.463,27.022 27.317,26.553 27.059,26.322 C27.059,26.322 26.15,25.513 26.15,25.513 C25.891,25.283 25.958,25.086 26.299,25.076 C26.299,25.076 27.571,25.039 27.571,25.039 C27.912,25.03 28.27,24.744 28.366,24.405 C28.366,24.405 28.765,23.008 28.765,23.008 C28.862,22.669 29.036,22.664 29.151,22.997 C29.151,22.997 29.631,24.375 29.631,24.375 C29.746,24.707 30.12,24.982 30.461,24.986 C30.461,24.986 31.759,24.999 31.759,24.999 C32.099,25.003 32.168,25.1950000000001 31.911,25.427 C31.911,25.427 30.923,26.317 30.923,26.317 C30.665,26.549 30.533,27.016 30.628,27.356 C30.628,27.356 30.943,28.481 30.943,28.481 C31.039,28.8200000000001 30.879,28.947 30.588,28.7619999999999 C30.588,28.7619999999999 29.534,28.092 29.534,28.092 C29.243,27.907 28.777,27.923 28.499,28.126 C28.499,28.126 27.442,28.899 27.442,28.899 Z "/><path fill="rgb( 246, 187, 66 )" d="M34.375,23.5410000000001 C34.097,23.745 33.934,23.631 34.015,23.287 C34.015,23.287 34.316,22.008 34.316,22.008 C34.396,21.665 34.251,21.1950000000001 33.992,20.965 C33.992,20.965 33.083,20.1559999999999 33.083,20.1559999999999 C32.824,19.926 32.891,19.729 33.232,19.7190000000001 C33.232,19.7190000000001 34.505,19.682 34.505,19.682 C34.845,19.672 35.203,19.3869999999999 35.3,19.048 C35.3,19.048 35.699,17.651 35.699,17.651 C35.795,17.312 35.969,17.307 36.085,17.639 C36.085,17.639 36.564,19.0170000000001 36.564,19.0170000000001 C36.68,19.35 37.053,19.625 37.394,19.628 C37.394,19.628 38.692,19.6420000000001 38.692,19.6420000000001 C39.033,19.645 39.101,19.838 38.844,20.0700000000001 C38.844,20.0700000000001 37.856,20.96 37.856,20.96 C37.599,21.192 37.466,21.659 37.561,21.999 C37.561,21.999 37.877,23.124 37.877,23.124 C37.972,23.463 37.812,23.59 37.522,23.405 C37.522,23.405 36.467,22.735 36.467,22.735 C36.176,22.55 35.711,22.566 35.432,22.769 C35.432,22.769 34.375,23.5410000000001 34.375,23.5410000000001 Z "/><path fill="rgb( 246, 187, 66 )" d="M34.375,16.399 C34.097,16.602 33.934,16.4880000000001 34.015,16.144 C34.015,16.144 34.316,14.865 34.316,14.865 C34.396,14.522 34.251,14.053 33.992,13.822 C33.992,13.822 33.083,13.013 33.083,13.013 C32.824,12.783 32.891,12.586 33.232,12.576 C33.232,12.576 34.505,12.539 34.505,12.539 C34.845,12.53 35.203,12.244 35.3,11.905 C35.3,11.905 35.699,10.508 35.699,10.508 C35.795,10.169 35.969,10.164 36.085,10.497 C36.085,10.497 36.564,11.874 36.564,11.874 C36.68,12.207 37.053,12.482 37.394,12.486 C37.394,12.486 38.692,12.499 38.692,12.499 C39.033,12.503 39.101,12.6950000000001 38.844,12.927 C38.844,12.927 37.856,13.817 37.856,13.817 C37.599,14.049 37.466,14.5170000000001 37.561,14.856 C37.561,14.856 37.877,15.981 37.877,15.981 C37.972,16.3200000000001 37.812,16.447 37.522,16.2619999999999 C37.522,16.2619999999999 36.467,15.592 36.467,15.592 C36.176,15.407 35.711,15.423 35.432,15.626 C35.432,15.626 34.375,16.399 34.375,16.399 Z "/></svg>