<?xml version="1.0" encoding="utf-8"?>
<!-- Generator: Adobe Illustrator 15.1.0, SVG Export Plug-In . SVG Version: 6.00 Build 0)  -->
<!DOCTYPE svg PUBLIC "-//W3C//DTD SVG 1.1//EN" "http://www.w3.org/Graphics/SVG/1.1/DTD/svg11.dtd">
<svg version="1.1" id="Layer_1" xmlns:ev="http://www.w3.org/2001/xml-events"
	 xmlns="http://www.w3.org/2000/svg" xmlns:xlink="http://www.w3.org/1999/xlink" x="0px" y="0px" width="70px" height="47px"
	 viewBox="0 0 70 47" enable-background="new 0 0 70 47" xml:space="preserve">
<g>
	<defs>
		<path id="SVGID_1_" d="M6.364,0h57.273C67.15,0,70,2.869,70,6.409v34.182C70,44.131,67.15,47,63.637,47H6.364
			C2.849,47,0,44.131,0,40.591V6.409C0,2.869,2.849,0,6.364,0z"/>
	</defs>
	<clipPath id="SVGID_2_">
		<use xlink:href="#SVGID_1_"  overflow="visible"/>
	</clipPath>
	<path clip-path="url(#SVGID_2_)" fill="#F5F7FA" d="M6.364,0h57.273C67.15,0,70,2.869,70,6.409v34.182
		C70,44.131,67.15,47,63.637,47H6.364C2.849,47,0,44.131,0,40.591V6.409C0,2.869,2.849,0,6.364,0z"/>
	<path clip-path="url(#SVGID_2_)" fill="#4758A9" d="M0,32h70v15H0V32z"/>
	<path clip-path="url(#SVGID_2_)" fill="#ED5565" d="M0,15V0h70v15H0z"/>
	<path clip-path="url(#SVGID_2_)" fill="#F5F7FA" d="M40.764,11.722c-3.408,0-5.25-2.722-5.25-2.722s-1.85,2.722-5.257,2.722
		c-3.139,0-5.257-2.26-5.257-2.26v14.78C25.096,33.977,35.5,38,35.5,38S46,33.977,46,24.242V9.462
		C46,9.462,43.9,11.722,40.764,11.722z"/>
	<path clip-path="url(#SVGID_2_)" fill="#ED5565" d="M39.512,13.346c-2.922,0-4.5-2.346-4.5-2.346s-1.585,2.346-4.505,2.346
		c-2.691,0-4.506-1.948-4.506-1.948v12.743C26.082,32.532,35,36,35,36s9-3.468,9-11.859V11.398
		C44,11.398,42.201,13.346,39.512,13.346z"/>
</g>
</svg>
