<?xml version="1.0" encoding="utf-8"?>
<!-- Generator: Adobe Illustrator 15.1.0, SVG Export Plug-In . SVG Version: 6.00 Build 0)  -->
<!DOCTYPE svg PUBLIC "-//W3C//DTD SVG 1.1//EN" "http://www.w3.org/Graphics/SVG/1.1/DTD/svg11.dtd">
<svg version="1.1" id="Layer_1" xmlns:ev="http://www.w3.org/2001/xml-events"
	 xmlns="http://www.w3.org/2000/svg" xmlns:xlink="http://www.w3.org/1999/xlink" x="0px" y="0px" width="79px" height="53px"
	 viewBox="0 0 79 53" enable-background="new 0 0 79 53" xml:space="preserve">
<g>
	<g>
		<g>
			<defs>
				<path id="SVGID_1_" d="M7.176,0H71.75c3.961,0,7.174,3.235,7.174,7.227v38.545c0,3.99-3.213,7.227-7.174,7.227H7.176
					C3.213,52.998,0,49.763,0,45.771V7.227C0,3.235,3.213,0,7.176,0z"/>
			</defs>
			<clipPath id="SVGID_2_">
				<use xlink:href="#SVGID_1_"  overflow="visible"/>
			</clipPath>
			<path clip-path="url(#SVGID_2_)" fill="#4758A9" d="M7.176,0H71.75c3.961,0,7.174,3.235,7.174,7.227v38.545
				c0,3.99-3.213,7.227-7.174,7.227H7.176C3.213,52.998,0,49.763,0,45.771V7.227C0,3.235,3.213,0,7.176,0z"/>
		</g>
	</g>
	<g>
		<g>
			<defs>
				<path id="SVGID_3_" d="M7.176,0H71.75c3.961,0,7.174,3.235,7.174,7.227v38.545c0,3.99-3.213,7.227-7.174,7.227H7.176
					C3.213,52.998,0,49.763,0,45.771V7.227C0,3.235,3.213,0,7.176,0z"/>
			</defs>
			<clipPath id="SVGID_4_">
				<use xlink:href="#SVGID_3_"  overflow="visible"/>
			</clipPath>
			<path clip-path="url(#SVGID_4_)" fill="#FFFFFF" d="M-0.613,56.062l-3.055-4.739L80.666-3.062l3.057,4.737L-0.613,56.062z"/>
		</g>
	</g>
	<g>
		<g>
			<defs>
				<path id="SVGID_5_" d="M7.176,0H71.75c3.961,0,7.174,3.235,7.174,7.227v38.545c0,3.99-3.213,7.227-7.174,7.227H7.176
					C3.213,52.998,0,49.763,0,45.771V7.227C0,3.235,3.213,0,7.176,0z"/>
			</defs>
			<clipPath id="SVGID_6_">
				<use xlink:href="#SVGID_5_"  overflow="visible"/>
			</clipPath>
			<path clip-path="url(#SVGID_6_)" fill="#ED5565" d="M-1.124,55.271l-2.037-3.161L81.174-2.272l2.038,3.16L-1.124,55.271z"/>
		</g>
	</g>
	<g>
		<g>
			<defs>
				<path id="SVGID_7_" d="M7.176,0H71.75c3.961,0,7.174,3.235,7.174,7.227v38.545c0,3.99-3.213,7.227-7.174,7.227H7.176
					C3.213,52.998,0,49.763,0,45.771V7.227C0,3.235,3.213,0,7.176,0z"/>
			</defs>
			<clipPath id="SVGID_8_">
				<use xlink:href="#SVGID_7_"  overflow="visible"/>
			</clipPath>
			<path clip-path="url(#SVGID_8_)" fill="#FFFFFF" d="M80.402,56.377l3.035-4.696L-0.353-2.251l-3.035,4.7L80.402,56.377z"/>
		</g>
	</g>
	<g>
		<g>
			<defs>
				<path id="SVGID_9_" d="M7.176,0H71.75c3.961,0,7.174,3.235,7.174,7.227v38.545c0,3.99-3.213,7.227-7.174,7.227H7.176
					C3.213,52.998,0,49.763,0,45.771V7.227C0,3.235,3.213,0,7.176,0z"/>
			</defs>
			<clipPath id="SVGID_10_">
				<use xlink:href="#SVGID_9_"  overflow="visible"/>
			</clipPath>
			<path clip-path="url(#SVGID_10_)" fill="#ED5565" d="M80.91,55.594l2.021-3.133L-0.858-1.467l-2.023,3.132L80.91,55.594z"/>
		</g>
	</g>
	<g>
		<g>
			<defs>
				<path id="SVGID_11_" d="M7.176,0H71.75c3.961,0,7.174,3.235,7.174,7.227v38.545c0,3.99-3.213,7.227-7.174,7.227H7.176
					C3.213,52.998,0,49.763,0,45.771V7.227C0,3.235,3.213,0,7.176,0z"/>
			</defs>
			<clipPath id="SVGID_12_">
				<use xlink:href="#SVGID_11_"  overflow="visible"/>
			</clipPath>
			<path clip-path="url(#SVGID_12_)" fill="#FFFFFF" d="M0,33.828V20.297h78.924v13.531H0z"/>
		</g>
	</g>
	<g>
		<g>
			<defs>
				<path id="SVGID_13_" d="M7.176,0H71.75c3.961,0,7.174,3.235,7.174,7.227v38.545c0,3.99-3.213,7.227-7.174,7.227H7.176
					C3.213,52.998,0,49.763,0,45.771V7.227C0,3.235,3.213,0,7.176,0z"/>
			</defs>
			<clipPath id="SVGID_14_">
				<use xlink:href="#SVGID_13_"  overflow="visible"/>
			</clipPath>
			<path clip-path="url(#SVGID_14_)" fill="#FFFFFF" d="M32.697,0h13.532v52.999H32.697V0z"/>
		</g>
	</g>
	<g>
		<g>
			<defs>
				<path id="SVGID_15_" d="M7.176,0H71.75c3.961,0,7.174,3.235,7.174,7.227v38.545c0,3.99-3.213,7.227-7.174,7.227H7.176
					C3.213,52.998,0,49.763,0,45.771V7.227C0,3.235,3.213,0,7.176,0z"/>
			</defs>
			<clipPath id="SVGID_16_">
				<use xlink:href="#SVGID_15_"  overflow="visible"/>
			</clipPath>
			<path clip-path="url(#SVGID_16_)" fill="#ED5565" d="M0,31.574v-9.021h78.924v9.021H0z"/>
		</g>
	</g>
	<g>
		<g>
			<defs>
				<path id="SVGID_17_" d="M7.176,0H71.75c3.961,0,7.174,3.235,7.174,7.227v38.545c0,3.99-3.213,7.227-7.174,7.227H7.176
					C3.213,52.998,0,49.763,0,45.771V7.227C0,3.235,3.213,0,7.176,0z"/>
			</defs>
			<clipPath id="SVGID_18_">
				<use xlink:href="#SVGID_17_"  overflow="visible"/>
			</clipPath>
			<path clip-path="url(#SVGID_18_)" fill="#ED5565" d="M34.952,0h9.021v52.999h-9.021V0z"/>
		</g>
	</g>
</g>
</svg>
