<?xml version="1.0" encoding="utf-8"?>
<!-- Generator: Adobe Illustrator 15.0.0, SVG Export Plug-In . SVG Version: 6.00 Build 0)  -->
<!DOCTYPE svg PUBLIC "-//W3C//DTD SVG 1.1//EN" "http://www.w3.org/Graphics/SVG/1.1/DTD/svg11.dtd">
<svg version="1.1" id="Layer_1" xmlns:ev="http://www.w3.org/2001/xml-events"
	 xmlns="http://www.w3.org/2000/svg" xmlns:xlink="http://www.w3.org/1999/xlink" x="0px" y="0px" width="70px" height="47px"
	 viewBox="0 0 70 47" enable-background="new 0 0 70 47" xml:space="preserve">
<g>
	<g>
		<defs>
			<path id="SVGID_1_" d="M6.364,0h57.273C67.15,0,70,2.869,70,6.409v34.182C70,44.131,67.15,47,63.637,47H6.364
				C2.849,47,0,44.131,0,40.591V6.409C0,2.869,2.849,0,6.364,0z"/>
		</defs>
		<clipPath id="SVGID_2_">
			<use xlink:href="#SVGID_1_"  overflow="visible"/>
		</clipPath>
		<path clip-path="url(#SVGID_2_)" fill="#009900" d="M6.364,0h57.273C67.15,0,70,2.869,70,6.409v34.182
			C70,44.131,67.15,47,63.637,47H6.364C2.849,47,0,44.131,0,40.591V6.409C0,2.869,2.849,0,6.364,0z"/>
	</g>
	<g>
		<defs>
			<path id="SVGID_3_" d="M6.364,0h57.273C67.15,0,70,2.869,70,6.409v34.182C70,44.131,67.15,47,63.637,47H6.364
				C2.849,47,0,44.131,0,40.591V6.409C0,2.869,2.849,0,6.364,0z"/>
		</defs>
		<clipPath id="SVGID_4_">
			<use xlink:href="#SVGID_3_"  overflow="visible"/>
		</clipPath>
		<path clip-path="url(#SVGID_4_)" fill="#F0F0F0" d="M0,0h25v23H0V0z"/>
	</g>
	<g>
		<defs>
			<path id="SVGID_5_" d="M6.364,0h57.273C67.15,0,70,2.869,70,6.409v34.182C70,44.131,67.15,47,63.637,47H6.364
				C2.849,47,0,44.131,0,40.591V6.409C0,2.869,2.849,0,6.364,0z"/>
		</defs>
		<clipPath id="SVGID_6_">
			<use xlink:href="#SVGID_5_"  overflow="visible"/>
		</clipPath>
	</g>
</g>
<path fill="#009900" d="M8.506,18.709c-0.739,0.49-1.152,0.191-0.917-0.664l0.873-3.184c0.235-0.854-0.11-2.041-0.766-2.637
	l-2.306-2.098c-0.655-0.596-0.467-1.084,0.42-1.083l3.312,0.003c0.886,0,1.837-0.688,2.113-1.531l1.138-3.471
	c0.276-0.842,0.728-0.842,1.005,0l1.148,3.489c0.277,0.842,1.228,1.559,2.113,1.594l3.375,0.131
	c0.886,0.034,1.049,0.522,0.364,1.084L17.746,12.5c-0.687,0.562-1.064,1.725-0.842,2.582l0.739,2.843
	c0.224,0.858-0.202,1.163-0.944,0.679l-2.693-1.759c-0.743-0.485-1.956-0.48-2.694,0.009L8.506,18.709z"/>
<image overflow="visible" width="48" height="48" xlink:href="../../flags/Esperanto-48.png"  transform="matrix(0.9999 0 0 0.9999 -70.5 -3.25)">
</image>
</svg>
