<?xml version="1.0" encoding="utf-8"?>
<!-- Generator: Adobe Illustrator 15.0.0, SVG Export Plug-In . SVG Version: 6.00 Build 0)  -->
<!DOCTYPE svg PUBLIC "-//W3C//DTD SVG 1.1//EN" "http://www.w3.org/Graphics/SVG/1.1/DTD/svg11.dtd">
<svg version="1.1" xmlns="http://www.w3.org/2000/svg" xmlns:xlink="http://www.w3.org/1999/xlink" x="0px" y="0px" width="70px"
	 height="47px" viewBox="0 0 70 47" enable-background="new 0 0 70 47" xml:space="preserve">
<g id="Layer_1" xmlns:ev="http://www.w3.org/2001/xml-events">
	<path fill="#ED5565" d="M6.364,0h57.273C67.15,0,70,2.869,70,6.409v34.182C70,44.131,67.15,47,63.637,47H6.364
		C2.849,47,0,44.131,0,40.591V6.409C0,2.869,2.849,0,6.364,0z"/>
</g>
<g id="Layer_2">
	<defs>
		<path id="SVGID_1_" d="M6.363,0h57.273C67.15,0,70,2.869,70,6.409v34.182C70,44.131,67.15,47,63.637,47H6.363
			C2.85,47,0,44.131,0,40.591V6.409C0,2.869,2.85,0,6.363,0z"/>
	</defs>
	<clipPath id="SVGID_2_">
		<use xlink:href="#SVGID_1_"  overflow="visible"/>
	</clipPath>
	<path clip-path="url(#SVGID_2_)" fill="#00933C" d="M-8.527,58.068l-4.412-6.674l94.467-62.463l4.412,6.673L-8.527,58.068z"/>
	<path clip-path="url(#SVGID_2_)" fill="#00933C" d="M86.298,51.251l-4.326,6.73L-13.299-3.25l4.326-6.729L86.298,51.251z"/>
</g>
<g id="Layer_3">
	<path fill="#FFFFFF" d="M32,0h8v47h-8V0z"/>
	<path fill="#FFFFFF" d="M0,28v-8h70v8H0z"/>
</g>
</svg>
