<?xml version="1.0" encoding="utf-8"?>
<!-- Generator: Adobe Illustrator 15.0.0, SVG Export Plug-In . SVG Version: 6.00 Build 0)  -->
<!DOCTYPE svg PUBLIC "-//W3C//DTD SVG 1.1//EN" "http://www.w3.org/Graphics/SVG/1.1/DTD/svg11.dtd">
<svg version="1.1" id="Layer_1" xmlns:ev="http://www.w3.org/2001/xml-events"
	 xmlns="http://www.w3.org/2000/svg" xmlns:xlink="http://www.w3.org/1999/xlink" x="0px" y="0px" width="70px" height="47px"
	 viewBox="0 0 70 47" enable-background="new 0 0 70 47" xml:space="preserve">
<g>
	<g>
		<g>
			<defs>
				<path id="SVGID_1_" d="M6.364,0.003h57.273C67.15,0.003,70,2.872,70,6.412v34.182c0,3.54-2.85,6.409-6.363,6.409H6.364
					C2.849,47.003,0,44.134,0,40.594V6.412C0,2.872,2.849,0.003,6.364,0.003z"/>
			</defs>
			<clipPath id="SVGID_2_">
				<use xlink:href="#SVGID_1_"  overflow="visible"/>
			</clipPath>
			<path clip-path="url(#SVGID_2_)" fill="#F5F7FA" d="M6.364,0.003h57.273C67.15,0.003,70,2.872,70,6.412v34.182
				c0,3.54-2.85,6.409-6.363,6.409H6.364C2.849,47.003,0,44.134,0,40.594V6.412C0,2.872,2.849,0.003,6.364,0.003z"/>
		</g>
	</g>
	<g>
		<g>
			<defs>
				<path id="SVGID_3_" d="M6.364,0.003h57.273C67.15,0.003,70,2.872,70,6.412v34.182c0,3.54-2.85,6.409-6.363,6.409H6.364
					C2.849,47.003,0,44.134,0,40.594V6.412C0,2.872,2.849,0.003,6.364,0.003z"/>
			</defs>
			<clipPath id="SVGID_4_">
				<use xlink:href="#SVGID_3_"  overflow="visible"/>
			</clipPath>
			<path clip-path="url(#SVGID_4_)" fill="#ED5565" d="M0,24.003h70v23H0V24.003z"/>
		</g>
	</g>
</g>
<path fill="#F5F7FA" d="M8.249,23.979C8.242,24.172,8.249,23.783,8.249,23.979c0,8.791,7.13,15.91,15.92,15.91
	c8.621,0,15.644-7.354,15.909-15.91C39.625,23.965,8.916,24.027,8.249,23.979z"/>
<path fill="#ED5565" d="M24.169,8.059c-8.595,0-15.614,7.399-15.92,15.92c0.208,0.048,31.583,0.001,31.829,0
	c0.006-0.167,0,0.169,0,0C40.078,15.188,32.959,8.059,24.169,8.059z"/>
</svg>
