<?xml version="1.0" encoding="utf-8"?>
<!-- Generator: Adobe Illustrator 15.1.0, SVG Export Plug-In . SVG Version: 6.00 Build 0)  -->
<!DOCTYPE svg PUBLIC "-//W3C//DTD SVG 1.1//EN" "http://www.w3.org/Graphics/SVG/1.1/DTD/svg11.dtd">
<svg version="1.1" id="Layer_1" xmlns:ev="http://www.w3.org/2001/xml-events"
	 xmlns="http://www.w3.org/2000/svg" xmlns:xlink="http://www.w3.org/1999/xlink" x="0px" y="0px" width="70px" height="49px"
	 viewBox="0 0 70 49" enable-background="new 0 0 70 49" xml:space="preserve">
<g>
	<g>
		<defs>
			<path id="SVGID_1_" d="M6.364,0h57.273C67.15,0,70,2.984,70,6.666v35.548c0,3.682-2.85,6.665-6.363,6.665H6.364
				C2.849,48.879,0,45.896,0,42.214V6.666C0,2.984,2.849,0,6.364,0z"/>
		</defs>
		<clipPath id="SVGID_2_">
			<use xlink:href="#SVGID_1_"  overflow="visible"/>
		</clipPath>
		<path clip-path="url(#SVGID_2_)" fill="#F5F7FA" d="M6.364,0h57.273C67.15,0,70,2.984,70,6.666v35.548
			c0,3.682-2.85,6.665-6.363,6.665H6.364C2.849,48.879,0,45.896,0,42.214V6.666C0,2.984,2.849,0,6.364,0z"/>
	</g>
	<g>
		<defs>
			<path id="SVGID_3_" d="M6.364,0h57.273C67.15,0,70,2.984,70,6.666v35.548c0,3.682-2.85,6.665-6.363,6.665H6.364
				C2.849,48.879,0,45.896,0,42.214V6.666C0,2.984,2.849,0,6.364,0z"/>
		</defs>
		<clipPath id="SVGID_4_">
			<use xlink:href="#SVGID_3_"  overflow="visible"/>
		</clipPath>
		<path clip-path="url(#SVGID_4_)" fill="#4A89DC" d="M0,11.44h70v6.24H0V11.44z"/>
	</g>
	<g>
		<defs>
			<path id="SVGID_5_" d="M6.364,0h57.273C67.15,0,70,2.984,70,6.666v35.548c0,3.682-2.85,6.665-6.363,6.665H6.364
				C2.849,48.879,0,45.896,0,42.214V6.666C0,2.984,2.849,0,6.364,0z"/>
		</defs>
		<clipPath id="SVGID_6_">
			<use xlink:href="#SVGID_5_"  overflow="visible"/>
		</clipPath>
		<path clip-path="url(#SVGID_6_)" fill="#4A89DC" d="M0,0h70v6.24H0V0z"/>
	</g>
	<g>
		<defs>
			<path id="SVGID_7_" d="M6.364,0h57.273C67.15,0,70,2.984,70,6.666v35.548c0,3.682-2.85,6.665-6.363,6.665H6.364
				C2.849,48.879,0,45.896,0,42.214V6.666C0,2.984,2.849,0,6.364,0z"/>
		</defs>
		<clipPath id="SVGID_8_">
			<use xlink:href="#SVGID_7_"  overflow="visible"/>
		</clipPath>
		<path clip-path="url(#SVGID_8_)" fill="#4A89DC" d="M0,21.839h70v6.24H0V21.839z"/>
	</g>
	<g>
		<defs>
			<path id="SVGID_9_" d="M6.364,0h57.273C67.15,0,70,2.984,70,6.666v35.548c0,3.682-2.85,6.665-6.363,6.665H6.364
				C2.849,48.879,0,45.896,0,42.214V6.666C0,2.984,2.849,0,6.364,0z"/>
		</defs>
		<clipPath id="SVGID_10_">
			<use xlink:href="#SVGID_9_"  overflow="visible"/>
		</clipPath>
		<path clip-path="url(#SVGID_10_)" fill="#4A89DC" d="M0,33.279h70v6.24H0V33.279z"/>
	</g>
	<g>
		<defs>
			<path id="SVGID_11_" d="M6.364,0h57.273C67.15,0,70,2.984,70,6.666v35.548c0,3.682-2.85,6.665-6.363,6.665H6.364
				C2.849,48.879,0,45.896,0,42.214V6.666C0,2.984,2.849,0,6.364,0z"/>
		</defs>
		<clipPath id="SVGID_12_">
			<use xlink:href="#SVGID_11_"  overflow="visible"/>
		</clipPath>
		<path clip-path="url(#SVGID_12_)" fill="#4A89DC" d="M0,44.719h70v6.24H0V44.719z"/>
	</g>
	<g>
		<defs>
			<path id="SVGID_13_" d="M6.364,0h57.273C67.15,0,70,2.984,70,6.666v35.548c0,3.682-2.85,6.665-6.363,6.665H6.364
				C2.849,48.879,0,45.896,0,42.214V6.666C0,2.984,2.849,0,6.364,0z"/>
		</defs>
		<clipPath id="SVGID_14_">
			<use xlink:href="#SVGID_13_"  overflow="visible"/>
		</clipPath>
		<path clip-path="url(#SVGID_14_)" fill="#4A89DC" d="M0,0h27v28.079H0V0z"/>
	</g>
	<g>
		<defs>
			<path id="SVGID_15_" d="M6.364,0h57.273C67.15,0,70,2.984,70,6.666v35.548c0,3.682-2.85,6.665-6.363,6.665H6.364
				C2.849,48.879,0,45.896,0,42.214V6.666C0,2.984,2.849,0,6.364,0z"/>
		</defs>
		<clipPath id="SVGID_16_">
			<use xlink:href="#SVGID_15_"  overflow="visible"/>
		</clipPath>
		<path clip-path="url(#SVGID_16_)" fill="#FFFFFF" d="M11,0h6v28.079h-6V0z"/>
	</g>
	<g>
		<defs>
			<path id="SVGID_17_" d="M6.364,0h57.273C67.15,0,70,2.984,70,6.666v35.548c0,3.682-2.85,6.665-6.363,6.665H6.364
				C2.849,48.879,0,45.896,0,42.214V6.666C0,2.984,2.849,0,6.364,0z"/>
		</defs>
		<clipPath id="SVGID_18_">
			<use xlink:href="#SVGID_17_"  overflow="visible"/>
		</clipPath>
		<path clip-path="url(#SVGID_18_)" fill="#FFFFFF" d="M0,17.68v-6.24h27v6.24H0z"/>
	</g>
</g>
</svg>
