<?xml version="1.0" encoding="utf-8"?>
<!-- Generator: Adobe Illustrator 15.1.0, SVG Export Plug-In . SVG Version: 6.00 Build 0)  -->
<!DOCTYPE svg PUBLIC "-//W3C//DTD SVG 1.1//EN" "http://www.w3.org/Graphics/SVG/1.1/DTD/svg11.dtd">
<svg version="1.1" id="Layer_1" xmlns:ev="http://www.w3.org/2001/xml-events"
	 xmlns="http://www.w3.org/2000/svg" xmlns:xlink="http://www.w3.org/1999/xlink" x="0px" y="0px" width="70px" height="47px"
	 viewBox="0 0 70 47" enable-background="new 0 0 70 47" xml:space="preserve">
<g>
	<defs>
		<path id="SVGID_1_" d="M6.364,0h57.273C67.15,0,70,2.869,70,6.409v34.182C70,44.131,67.15,47,63.637,47H6.364
			C2.849,47,0,44.131,0,40.591V6.409C0,2.869,2.849,0,6.364,0z"/>
	</defs>
	<clipPath id="SVGID_2_">
		<use xlink:href="#SVGID_1_"  overflow="visible"/>
	</clipPath>
	<path clip-path="url(#SVGID_2_)" fill="#F5F7FA" d="M6.364,0h57.273C67.15,0,70,2.869,70,6.409v34.182
		C70,44.131,67.15,47,63.637,47H6.364C2.849,47,0,44.131,0,40.591V6.409C0,2.869,2.849,0,6.364,0z"/>
	<path clip-path="url(#SVGID_2_)" fill="#4758A9" d="M44.895,18.712c0.248-0.409,0.051-0.743-0.435-0.743h-4.795
		c-0.485,0-1.088-0.333-1.337-0.741l-2.417-3.953c-0.249-0.408-0.653-0.406-0.897,0.005l-2.351,3.943
		c-0.244,0.41-0.842,0.746-1.328,0.746h-4.794c-0.486,0-0.683,0.334-0.436,0.743l2.426,4.028c0.247,0.409,0.247,1.078,0.001,1.486
		l-2.427,4.029C25.858,28.665,26.055,29,26.541,29h4.794c0.486,0,1.084,0.336,1.328,0.745l2.351,3.944
		c0.244,0.41,0.645,0.41,0.888,0l2.352-3.944C38.498,29.336,39.096,29,39.582,29h4.878c0.485,0,0.683-0.335,0.435-0.744
		l-2.426-4.029c-0.246-0.409-0.246-1.078,0-1.486L44.895,18.712z M35.292,17.644c0.092-0.178,0.26-0.178,0.374,0
		c0.115,0.179,0.04,0.325-0.166,0.325S35.201,17.823,35.292,17.644z M30.392,26.566c-0.229,0-0.322-0.146-0.208-0.324
		c0.114-0.18,0.3-0.18,0.415,0C30.713,26.42,30.62,26.566,30.392,26.566z M30.6,20.727c-0.115,0.179-0.302,0.179-0.416,0
		c-0.114-0.178-0.021-0.324,0.208-0.324C30.62,20.403,30.713,20.549,30.6,20.727z M35.666,29.324c-0.114,0.179-0.282,0.179-0.374,0
		C35.201,29.145,35.294,29,35.5,29S35.781,29.145,35.666,29.324z M37.729,25.818c-0.242,0.412-0.84,0.748-1.326,0.748h-1.804
		c-0.486,0-1.09-0.332-1.342-0.738l-0.996-1.605c-0.251-0.407-0.258-1.075-0.014-1.486l0.942-1.588
		c0.244-0.41,0.841-0.746,1.327-0.746h1.887c0.486,0,1.084,0.336,1.326,0.746l0.941,1.588c0.243,0.41,0.243,1.083,0,1.494
		L37.729,25.818z M40.607,26.566c-0.228,0-0.32-0.146-0.207-0.324c0.115-0.18,0.302-0.18,0.416,0
		C40.932,26.42,40.837,26.566,40.607,26.566z M40.816,20.727c-0.114,0.179-0.301,0.179-0.416,0
		c-0.113-0.178-0.021-0.324,0.207-0.324C40.837,20.403,40.932,20.549,40.816,20.727z"/>
	<path clip-path="url(#SVGID_2_)" fill="#4758A9" d="M0,0h70v6H0V0z"/>
	<path clip-path="url(#SVGID_2_)" fill="#4758A9" d="M0,41h70v6H0V41z"/>
</g>
</svg>
