<?xml version="1.0" encoding="utf-8"?>
<!-- Generator: Adobe Illustrator 15.1.0, SVG Export Plug-In . SVG Version: 6.00 Build 0)  -->
<!DOCTYPE svg PUBLIC "-//W3C//DTD SVG 1.1//EN" "http://www.w3.org/Graphics/SVG/1.1/DTD/svg11.dtd">
<svg version="1.1" id="Layer_1" xmlns:ev="http://www.w3.org/2001/xml-events"
	 xmlns="http://www.w3.org/2000/svg" xmlns:xlink="http://www.w3.org/1999/xlink" x="0px" y="0px" width="70px" height="48px"
	 viewBox="0 0 70 48" enable-background="new 0 0 70 48" xml:space="preserve">
<g>
	<g>
		<defs>
			<path id="SVGID_1_" d="M6.364,0h57.273C67.15,0,70,2.93,70,6.545v34.909C70,45.07,67.15,48,63.637,48H6.364
				C2.849,48,0,45.07,0,41.454V6.545C0,2.93,2.849,0,6.364,0z"/>
		</defs>
		<clipPath id="SVGID_2_">
			<use xlink:href="#SVGID_1_"  overflow="visible"/>
		</clipPath>
		<path clip-path="url(#SVGID_2_)" fill="#F5F7FA" d="M6.364,0h57.273C67.15,0,70,2.93,70,6.545v34.909C70,45.07,67.15,48,63.637,48
			H6.364C2.849,48,0,45.07,0,41.454V6.545C0,2.93,2.849,0,6.364,0z"/>
	</g>
	<g>
		<defs>
			<path id="SVGID_3_" d="M6.364,0h57.273C67.15,0,70,2.93,70,6.545v34.909C70,45.07,67.15,48,63.637,48H6.364
				C2.849,48,0,45.07,0,41.454V6.545C0,2.93,2.849,0,6.364,0z"/>
		</defs>
		<clipPath id="SVGID_4_">
			<use xlink:href="#SVGID_3_"  overflow="visible"/>
		</clipPath>
		<path clip-path="url(#SVGID_4_)" fill="#FC6E51" d="M0,0h70v16.34H0V0z"/>
	</g>
	<g>
		<defs>
			<path id="SVGID_5_" d="M6.364,0h57.273C67.15,0,70,2.93,70,6.545v34.909C70,45.07,67.15,48,63.637,48H6.364
				C2.849,48,0,45.07,0,41.454V6.545C0,2.93,2.849,0,6.364,0z"/>
		</defs>
		<clipPath id="SVGID_6_">
			<use xlink:href="#SVGID_5_"  overflow="visible"/>
		</clipPath>
		<path clip-path="url(#SVGID_6_)" fill="#57A863" d="M0,32.681h70v16.341H0V32.681z"/>
	</g>
	<g>
		<defs>
			<path id="SVGID_7_" d="M6.364,0h57.273C67.15,0,70,2.93,70,6.545v34.909C70,45.07,67.15,48,63.637,48H6.364
				C2.849,48,0,45.07,0,41.454V6.545C0,2.93,2.849,0,6.364,0z"/>
		</defs>
		<clipPath id="SVGID_8_">
			<use xlink:href="#SVGID_7_"  overflow="visible"/>
		</clipPath>
		<path clip-path="url(#SVGID_8_)" fill="#4758A9" d="M40.909,24.126l-0.388-0.686c-0.121-0.213-0.222-0.589-0.223-0.837
			l-0.003-0.792c-0.001-0.246-0.173-0.548-0.382-0.67l-0.652-0.382c-0.211-0.122-0.479-0.396-0.602-0.61l-0.376-0.666
			c-0.12-0.212-0.416-0.387-0.657-0.387h-0.775c-0.242,0-0.609-0.1-0.819-0.223l-0.673-0.393c-0.21-0.123-0.551-0.121-0.76,0.003
			l-0.65,0.387c-0.208,0.124-0.576,0.226-0.817,0.226h-0.753c-0.241,0-0.537,0.174-0.657,0.387l-0.389,0.688
			c-0.12,0.213-0.389,0.489-0.598,0.613l-0.67,0.399c-0.208,0.123-0.378,0.427-0.377,0.673l0.003,0.769
			c0.001,0.247-0.097,0.623-0.217,0.836l-0.377,0.666c-0.12,0.213-0.12,0.562,0,0.775l0.389,0.687c0.12,0.213,0.22,0.589,0.22,0.836
			l0.004,0.794c0.001,0.245,0.173,0.546,0.382,0.67l0.653,0.381c0.21,0.121,0.48,0.397,0.6,0.61l0.377,0.663
			c0.12,0.214,0.416,0.391,0.657,0.391h0.776c0.242,0,0.61,0.1,0.82,0.221l0.673,0.395c0.21,0.122,0.551,0.12,0.76-0.003l0.65-0.388
			c0.207-0.124,0.574-0.225,0.815-0.225h0.753c0.241,0,0.537-0.177,0.657-0.391l0.388-0.686c0.121-0.214,0.391-0.49,0.6-0.612
			l0.67-0.4c0.209-0.126,0.379-0.427,0.377-0.674l-0.002-0.769c-0.002-0.247,0.097-0.621,0.217-0.835l0.376-0.666
			C41.029,24.688,41.029,24.34,40.909,24.126z M38.574,24.748l-0.227,0.403c-0.074,0.128-0.134,0.356-0.134,0.505l0.002,0.465
			c0.001,0.148-0.103,0.332-0.229,0.406l-0.403,0.241c-0.126,0.075-0.289,0.241-0.36,0.371l-0.234,0.413
			c-0.073,0.13-0.252,0.235-0.398,0.235h-0.455c-0.146,0-0.367,0.062-0.494,0.136l-0.393,0.233
			c-0.126,0.075-0.333,0.077-0.459,0.003l-0.408-0.238c-0.126-0.074-0.349-0.134-0.495-0.134h-0.469
			c-0.146,0-0.325-0.105-0.398-0.235l-0.227-0.402c-0.073-0.129-0.237-0.295-0.363-0.368l-0.395-0.229
			c-0.127-0.073-0.231-0.256-0.231-0.404l-0.002-0.479c-0.001-0.149-0.061-0.376-0.134-0.506l-0.234-0.415
			c-0.073-0.128-0.073-0.34,0-0.468l0.227-0.402c0.073-0.13,0.132-0.356,0.131-0.506l-0.001-0.464
			c-0.001-0.149,0.102-0.332,0.227-0.407l0.406-0.241c0.126-0.074,0.289-0.242,0.361-0.371l0.235-0.415
			c0.073-0.129,0.252-0.235,0.398-0.235h0.455c0.146,0,0.368-0.061,0.494-0.136l0.393-0.235c0.126-0.075,0.333-0.076,0.459-0.001
			l0.408,0.237c0.126,0.075,0.349,0.135,0.495,0.135h0.469c0.146,0,0.325,0.105,0.398,0.235l0.227,0.402
			c0.073,0.129,0.236,0.294,0.363,0.369l0.395,0.23c0.127,0.074,0.231,0.256,0.231,0.404l0.002,0.48
			c0.001,0.149,0.062,0.376,0.134,0.504l0.234,0.416C38.646,24.408,38.646,24.62,38.574,24.748z"/>
	</g>
</g>
</svg>
