<?xml version="1.0" encoding="utf-8"?>
<!-- Generator: Adobe Illustrator 15.0.0, SVG Export Plug-In . SVG Version: 6.00 Build 0)  -->
<!DOCTYPE svg PUBLIC "-//W3C//DTD SVG 1.1//EN" "http://www.w3.org/Graphics/SVG/1.1/DTD/svg11.dtd">
<svg version="1.1" id="Layer_1" xmlns:ev="http://www.w3.org/2001/xml-events"
	 xmlns="http://www.w3.org/2000/svg" xmlns:xlink="http://www.w3.org/1999/xlink" x="0px" y="0px" width="70px" height="47px"
	 viewBox="0 0 70 47" enable-background="new 0 0 70 47" xml:space="preserve">
<g>
	<g>
		<defs>
			<path id="SVGID_1_" d="M6.364,0h57.273C67.15,0,70,2.869,70,6.409v34.182C70,44.131,67.15,47,63.637,47H6.364
				C2.849,47,0,44.131,0,40.591V6.409C0,2.869,2.849,0,6.364,0z"/>
		</defs>
		<clipPath id="SVGID_2_">
			<use xlink:href="#SVGID_1_"  overflow="visible"/>
		</clipPath>
		<path clip-path="url(#SVGID_2_)" fill="#ED5565" d="M6.364,0h57.273C67.15,0,70,2.869,70,6.409v34.182
			C70,44.131,67.15,47,63.637,47H6.364C2.849,47,0,44.131,0,40.591V6.409C0,2.869,2.849,0,6.364,0z"/>
	</g>
	<g>
		<defs>
			<path id="SVGID_3_" d="M26.773,14.916h11.004c0.675,0,1.223,0.551,1.223,1.231v6.567c0,0.68-0.548,1.231-1.223,1.231H26.773
				c-0.675,0-1.223-0.551-1.223-1.231v-6.567C25.551,15.467,26.098,14.916,26.773,14.916z"/>
		</defs>
		<clipPath id="SVGID_4_">
			<use xlink:href="#SVGID_3_"  overflow="visible"/>
		</clipPath>
	</g>
</g>
<path fill="#FFFFFF" d="M33.864,22.921c0,0-1.083-3.553-1.083-4.781c0-1.875,1.156-4.156,2.044-4.742
	c1.166-0.77,3.908-2.746,4.019-2.414c1.031,3.094-0.094,5.438-0.094,5.438s-0.844,1.656-2.469,2.875
	C35.346,19.997,33.864,22.921,33.864,22.921z"/>
<circle fill="#ED5565" cx="37.109" cy="14.687" r="0.734"/>
<path fill="#FFFFFF" d="M37.109,22.679c0,0,2.75-2.497,3.861-3.021c1.695-0.801,4.252-0.729,5.16-0.177
	c1.193,0.727,4.151,2.361,3.899,2.604c-2.357,2.254-4.957,2.237-4.957,2.237s-1.858-0.057-3.654-1.005
	C40.385,22.769,37.109,22.679,37.109,22.679z"/>
<circle fill="#ED5565" cx="45.94" cy="22.097" r="0.734"/>
<path fill="#FFFFFF" d="M38.734,25.046c0,0,3.284,1.737,4.154,2.604c1.33,1.322,2.132,3.751,1.921,4.793
	c-0.277,1.369-0.809,4.706-1.122,4.552c-2.921-1.45-3.789-3.9-3.789-3.9s-0.579-1.768-0.298-3.779
	C39.764,28.157,38.734,25.046,38.734,25.046z"/>
<circle fill="#ED5565" cx="42.285" cy="33.153" r="0.734"/>
<path fill="#FFFFFF" d="M37.139,26.364c0,0-0.18,3.71-0.594,4.867c-0.633,1.765-2.491,3.522-3.524,3.773
	c-1.357,0.33-4.605,1.266-4.598,0.916c0.073-3.261,1.923-5.087,1.923-5.087s1.354-1.274,3.294-1.873
	C34.759,28.616,37.139,26.364,37.139,26.364z"/>
<circle fill="#ED5565" cx="31.306" cy="33.021" r="0.735"/>
<path fill="#FFFFFF" d="M34.68,26.368c0,0-3.692,0.406-4.9,0.179c-1.842-0.348-3.87-1.907-4.28-2.887
	c-0.539-1.29-1.974-4.35-1.627-4.397c3.23-0.44,5.325,1.1,5.325,1.1s1.471,1.138,2.368,2.959
	C32.08,24.372,34.68,26.368,34.68,26.368z"/>
<circle fill="#ED5565" cx="27.189" cy="21.654" r="0.735"/>
</svg>
