<?xml version="1.0" encoding="utf-8"?><!DOCTYPE svg PUBLIC "-//W3C//DTD SVG 1.1//EN" "http://www.w3.org/Graphics/SVG/1.1/DTD/svg11.dtd"><svg version="1.1" baseProfile="full" xmlns="http://www.w3.org/2000/svg" xmlns:xlink="http://www.w3.org/1999/xlink" xmlns:ev="http://www.w3.org/2001/xml-events"   height="47px"   width="70px" ><path fill="rgb( 71, 88, 169 )" d="M6.36399999999998,0 C6.36399999999998,0 63.636,0 63.636,0 C67.151,0 70,2.869 70,6.40899999999999 C70,6.40899999999999 70,40.591 70,40.591 C70,44.131 67.151,47 63.636,47 C63.636,47 6.36399999999998,47 6.36399999999998,47 C2.84899999999999,47 0,44.131 0,40.591 C0,40.591 0,6.40899999999999 0,6.40899999999999 C0,2.869 2.84899999999999,0 6.36399999999998,0 Z "/><path fill="rgb( 255, 255, 255 )" d="M0,30 C0,30 0,18 0,18 C0,18 70,18 70,18 C70,18 70,30 70,30 C70,30 0,30 0,30 Z "/><path fill="rgb( 255, 255, 255 )" d="M16,0 C16,0 28,0 28,0 C28,0 28,47 28,47 C28,47 16,47 16,47 C16,47 16,0 16,0 Z "/><path fill="rgb( 237, 85, 101 )" d="M0,28 C0,28 0,20 0,20 C0,20 70,20 70,20 C70,20 70,28 70,28 C70,28 0,28 0,28 Z "/><path fill="rgb( 237, 85, 101 )" d="M18,0 C18,0 26,0 26,0 C26,0 26,47 26,47 C26,47 18,47 18,47 C18,47 18,0 18,0 Z "/></svg>