<?xml version="1.0" encoding="utf-8"?><!DOCTYPE svg PUBLIC "-//W3C//DTD SVG 1.1//EN" "http://www.w3.org/Graphics/SVG/1.1/DTD/svg11.dtd"><svg version="1.1" baseProfile="full" xmlns="http://www.w3.org/2000/svg" xmlns:xlink="http://www.w3.org/1999/xlink" xmlns:ev="http://www.w3.org/2001/xml-events"   height="47px"   width="70px" ><path fill="rgb( 245, 247, 250 )" d="M6.36399999999998,0 C6.36399999999998,0 63.636,0 63.636,0 C67.151,0 70,2.86900000000003 70,6.40899999999999 C70,6.40899999999999 70,40.591 70,40.591 C70,44.131 67.151,47 63.636,47 C63.636,47 6.36399999999998,47 6.36399999999998,47 C2.84899999999999,47 0,44.131 0,40.591 C0,40.591 0,6.40899999999999 0,6.40899999999999 C0,2.86900000000003 2.84899999999999,0 6.36399999999998,0 Z "/><path fill="rgb( 237, 85, 101 )" d="M35.5,14 C40.747,14 45,18.253 45,23.5 C45,28.747 40.747,33 35.5,33 C30.253,33 26,28.747 26,23.5 C26,18.253 30.253,14 35.5,14 Z "/></svg>