<?xml version="1.0" encoding="utf-8"?><!DOCTYPE svg PUBLIC "-//W3C//DTD SVG 1.1//EN" "http://www.w3.org/Graphics/SVG/1.1/DTD/svg11.dtd"><svg version="1.1" baseProfile="full" xmlns="http://www.w3.org/2000/svg" xmlns:xlink="http://www.w3.org/1999/xlink" xmlns:ev="http://www.w3.org/2001/xml-events"   height="47px"   width="70px" ><path fill="rgb( 245, 247, 250 )" d="M6.36400000000003,0 C6.36400000000003,0 63.636,0 63.636,0 C67.151,0 70,2.86900000000003 70,6.40899999999999 C70,6.40899999999999 70,40.591 70,40.591 C70,44.131 67.151,47 63.636,47 C63.636,47 6.36400000000003,47 6.36400000000003,47 C2.84900000000005,47 0,44.131 0,40.591 C0,40.591 0,6.40899999999999 0,6.40899999999999 C0,2.86900000000003 2.84900000000005,0 6.36400000000003,0 Z "/><path fill="rgb( 237, 85, 101 )" d="M46.979,21.529 C46.979,21.529 46.979,21.529 46.979,21.529 C47.188,22.89 45.883,18.704 42.173,17.997 C38.462,17.289 34.87,19.666 34.149,23.307 C33.503,26.567 30.285,28.697 26.962,28.063 C23.638,27.429 21.468,24.272 22.114,21.011 C23.443,14.3 30.066,9.91699999999997 36.9059999999999,11.222 C42.2910000000001,12.249 46.206,16.495 46.979,21.529 C46.979,21.529 46.979,21.529 46.979,21.529 Z "/><path fill="rgb( 71, 88, 169 )" d="M32.0940000000001,35.778 C32.0940000000001,35.778 32.0940000000001,35.778 32.0940000000001,35.778 C26.7089999999999,34.751 22.794,30.505 22.021,25.471 C21.813,24.11 23.117,28.296 26.828,29.003 C30.538,29.711 34.13,27.334 34.851,23.693 C35.497,20.433 38.715,18.303 42.038,18.937 C45.362,19.571 47.532,22.728 46.886,25.989 C45.557,32.7 38.934,37.083 32.0940000000001,35.778 C32.0940000000001,35.778 32.0940000000001,35.778 32.0940000000001,35.778 Z "/><path fill="rgb( 67, 74, 84 )" d="M48.266,8.19799999999998 C48.266,8.19799999999998 53.974,18.753 53.974,18.753 C53.974,18.753 52.215,19.705 52.215,19.705 C52.215,19.705 46.5069999999999,9.149 46.5069999999999,9.149 C46.5069999999999,9.149 48.266,8.19799999999998 48.266,8.19799999999998 Z "/><path fill="rgb( 67, 74, 84 )" d="M51.785,6.29500000000002 C51.785,6.29500000000002 57.4930000000001,16.851 57.4930000000001,16.851 C57.4930000000001,16.851 55.734,17.802 55.734,17.802 C55.734,17.802 50.026,7.24700000000001 50.026,7.24700000000001 C50.026,7.24700000000001 51.785,6.29500000000002 51.785,6.29500000000002 Z "/><path fill="rgb( 67, 74, 84 )" d="M21.234,7.85399999999998 C21.234,7.85399999999998 15.526,18.066 15.526,18.066 C15.526,18.066 17.285,18.986 17.285,18.986 C17.285,18.986 22.9930000000001,8.77499999999998 22.9930000000001,8.77499999999998 C22.9930000000001,8.77499999999998 21.234,7.85399999999998 21.234,7.85399999999998 Z "/><path fill="rgb( 67, 74, 84 )" d="M17.715,6.01400000000001 C17.715,6.01400000000001 12.0069999999999,16.225 12.0069999999999,16.225 C12.0069999999999,16.225 13.766,17.146 13.766,17.146 C13.766,17.146 19.474,6.93400000000003 19.474,6.93400000000003 C19.474,6.93400000000003 17.715,6.01400000000001 17.715,6.01400000000001 Z "/><path fill="rgb( 67, 74, 84 )" d="M48.665,38.757 C48.665,38.757 54.436,27.985 54.436,27.985 C54.436,27.985 52.657,27.014 52.657,27.014 C52.657,27.014 46.886,37.786 46.886,37.786 C46.886,37.786 48.665,38.757 48.665,38.757 Z "/><path fill="rgb( 67, 74, 84 )" d="M52.222,40.699 C52.222,40.699 57.9930000000001,29.927 57.9930000000001,29.927 C57.9930000000001,29.927 56.2140000000001,28.956 56.2140000000001,28.956 C56.2140000000001,28.956 50.444,39.728 50.444,39.728 C50.444,39.728 52.222,40.699 52.222,40.699 Z "/><path fill="rgb( 67, 74, 84 )" d="M21.335,39.108 C21.335,39.108 15.564,28.687 15.564,28.687 C15.564,28.687 17.343,27.747 17.343,27.747 C17.343,27.747 23.114,38.169 23.114,38.169 C23.114,38.169 21.335,39.108 21.335,39.108 Z "/><path fill="rgb( 67, 74, 84 )" d="M17.778,40.986 C17.778,40.986 12.0069999999999,30.565 12.0069999999999,30.565 C12.0069999999999,30.565 13.7859999999999,29.626 13.7859999999999,29.626 C13.7859999999999,29.626 19.557,40.047 19.557,40.047 C19.557,40.047 17.778,40.986 17.778,40.986 Z "/></svg>