<?xml version="1.0" encoding="utf-8"?>
<!-- Generator: Adobe Illustrator 15.1.0, SVG Export Plug-In . SVG Version: 6.00 Build 0)  -->
<!DOCTYPE svg PUBLIC "-//W3C//DTD SVG 1.1//EN" "http://www.w3.org/Graphics/SVG/1.1/DTD/svg11.dtd">
<svg version="1.1" id="Layer_1" xmlns:ev="http://www.w3.org/2001/xml-events"
	 xmlns="http://www.w3.org/2000/svg" xmlns:xlink="http://www.w3.org/1999/xlink" x="0px" y="0px" width="72px" height="47px"
	 viewBox="0 0 72 47" enable-background="new 0 0 72 47" xml:space="preserve">
<g>
	<g>
		<g>
			<defs>
				<path id="SVGID_1_" d="M6.544,0h58.911C69.068,0,72,2.869,72,6.409v34.182C72,44.131,69.068,47,65.455,47H6.544
					C2.93,47,0,44.131,0,40.591V6.409C0,2.869,2.93,0,6.544,0z"/>
			</defs>
			<clipPath id="SVGID_2_">
				<use xlink:href="#SVGID_1_"  overflow="visible"/>
			</clipPath>
			<path clip-path="url(#SVGID_2_)" fill="#FFFFFF" d="M6.544,0h58.911C69.068,0,72,2.869,72,6.409v34.182
				C72,44.131,69.068,47,65.455,47H6.544C2.93,47,0,44.131,0,40.591V6.409C0,2.869,2.93,0,6.544,0z"/>
		</g>
	</g>
	<g>
		<g>
			<defs>
				<path id="SVGID_3_" d="M6.544,0h58.911C69.068,0,72,2.869,72,6.409v34.182C72,44.131,69.068,47,65.455,47H6.544
					C2.93,47,0,44.131,0,40.591V6.409C0,2.869,2.93,0,6.544,0z"/>
			</defs>
			<clipPath id="SVGID_4_">
				<use xlink:href="#SVGID_3_"  overflow="visible"/>
			</clipPath>
			<path clip-path="url(#SVGID_4_)" fill="#FE0000" d="M48.343,0h24.686v47H48.343V0z"/>
		</g>
	</g>
	<g>
		<g>
			<defs>
				<path id="SVGID_5_" d="M6.544,0h58.911C69.068,0,72,2.869,72,6.409v34.182C72,44.131,69.068,47,65.455,47H6.544
					C2.93,47,0,44.131,0,40.591V6.409C0,2.869,2.93,0,6.544,0z"/>
			</defs>
			<clipPath id="SVGID_6_">
				<use xlink:href="#SVGID_5_"  overflow="visible"/>
			</clipPath>
			<path clip-path="url(#SVGID_6_)" fill="#029930" d="M-1.029,0h24.686v47H-1.029V0z"/>
		</g>
	</g>
	<g>
		<g>
			<defs>
				<path id="SVGID_7_" d="M6.544,0h58.911C69.068,0,72,2.869,72,6.409v34.182C72,44.131,69.068,47,65.455,47H6.544
					C2.93,47,0,44.131,0,40.591V6.409C0,2.869,2.93,0,6.544,0z"/>
			</defs>
			<clipPath id="SVGID_8_">
				<use xlink:href="#SVGID_7_"  overflow="visible"/>
			</clipPath>
			<path clip-path="url(#SVGID_8_)" fill="#434A54" d="M28.779,21.412l2.998-4.399c0.375-0.551,1.189-0.997,1.817-0.997h7.19
				l2.394,13.962H32.109l1.458-8.566H28.779z"/>
		</g>
	</g>
</g>
</svg>
