<?xml version="1.0" encoding="utf-8"?>
<!-- Generator: Adobe Illustrator 15.1.0, SVG Export Plug-In . SVG Version: 6.00 Build 0)  -->
<!DOCTYPE svg PUBLIC "-//W3C//DTD SVG 1.1//EN" "http://www.w3.org/Graphics/SVG/1.1/DTD/svg11.dtd">
<svg version="1.1" id="Layer_1" xmlns:ev="http://www.w3.org/2001/xml-events"
	 xmlns="http://www.w3.org/2000/svg" xmlns:xlink="http://www.w3.org/1999/xlink" x="0px" y="0px" width="74px" height="56px"
	 viewBox="0 0 74 56" enable-background="new 0 0 74 56" xml:space="preserve">
<g>
	<g>
		<defs>
			<path id="SVGID_1_" d="M6.734,0H67.34c3.716,0,6.733,3.418,6.733,7.636v40.728c0,4.22-3.018,7.637-6.733,7.637H6.734
				C3.015,56,0,52.583,0,48.363V7.635C-0.001,3.417,3.015,0,6.734,0z"/>
		</defs>
		<clipPath id="SVGID_2_">
			<use xlink:href="#SVGID_1_"  overflow="visible"/>
		</clipPath>
		<path clip-path="url(#SVGID_2_)" fill="#ED5565" d="M6.734,0H67.34c3.716,0,6.733,3.418,6.733,7.636v40.728
			c0,4.22-3.018,7.637-6.733,7.637H6.734C3.015,56,0,52.583,0,48.363V7.635C-0.001,3.417,3.015,0,6.734,0z"/>
	</g>
	<g>
		<defs>
			<path id="SVGID_3_" d="M6.734,0H67.34c3.716,0,6.733,3.418,6.733,7.636v40.728c0,4.22-3.018,7.637-6.733,7.637H6.734
				C3.015,56,0,52.583,0,48.363V7.635C-0.001,3.417,3.015,0,6.734,0z"/>
		</defs>
		<clipPath id="SVGID_4_">
			<use xlink:href="#SVGID_3_"  overflow="visible"/>
		</clipPath>
		<path clip-path="url(#SVGID_4_)" fill="#FFCE54" d="M-1.748,7.244l5.291-11.51l25.556,21.563l-2.116,2.937L-1.748,7.244z"/>
	</g>
	<g>
		<defs>
			<path id="SVGID_5_" d="M6.734,0H67.34c3.716,0,6.733,3.418,6.733,7.636v40.728c0,4.22-3.018,7.637-6.733,7.637H6.734
				C3.015,56,0,52.583,0,48.363V7.635C-0.001,3.417,3.015,0,6.734,0z"/>
		</defs>
		<clipPath id="SVGID_6_">
			<use xlink:href="#SVGID_5_"  overflow="visible"/>
		</clipPath>
		<path clip-path="url(#SVGID_6_)" fill="#FFCE54" d="M76.184,7.005L70.921-4.749L45.502,17.272l2.104,3L76.184,7.005z"/>
	</g>
	<g>
		<defs>
			<path id="SVGID_7_" d="M6.734,0H67.34c3.716,0,6.733,3.418,6.733,7.636v40.728c0,4.22-3.018,7.637-6.733,7.637H6.734
				C3.015,56,0,52.583,0,48.363V7.635C-0.001,3.417,3.015,0,6.734,0z"/>
		</defs>
		<clipPath id="SVGID_8_">
			<use xlink:href="#SVGID_7_"  overflow="visible"/>
		</clipPath>
		<path clip-path="url(#SVGID_8_)" fill="#FFCE54" d="M-2.11,49.945l5.315,11.512L28.88,39.893l-2.126-2.935L-2.11,49.945z"/>
	</g>
	<g>
		<defs>
			<path id="SVGID_9_" d="M6.734,0H67.34c3.716,0,6.733,3.418,6.733,7.636v40.728c0,4.22-3.018,7.637-6.733,7.637H6.734
				C3.015,56,0,52.583,0,48.363V7.635C-0.001,3.417,3.015,0,6.734,0z"/>
		</defs>
		<clipPath id="SVGID_10_">
			<use xlink:href="#SVGID_9_"  overflow="visible"/>
		</clipPath>
		<path clip-path="url(#SVGID_10_)" fill="#FFCE54" d="M76.182,50.185l-5.284,11.754L45.358,39.917l2.114-2.997L76.182,50.185z"/>
	</g>
	<g>
		<defs>
			<path id="SVGID_11_" d="M6.734,0H67.34c3.716,0,6.733,3.418,6.733,7.636v40.728c0,4.22-3.018,7.637-6.733,7.637H6.734
				C3.015,56,0,52.583,0,48.363V7.635C-0.001,3.417,3.015,0,6.734,0z"/>
		</defs>
		<clipPath id="SVGID_12_">
			<use xlink:href="#SVGID_11_"  overflow="visible"/>
		</clipPath>
		<path clip-path="url(#SVGID_12_)" fill="#FFCE54" d="M37.566,18.516c4.65,0,8.42,4.246,8.42,9.483s-3.77,9.481-8.42,9.481
			c-4.653,0-8.423-4.244-8.423-9.481S32.913,18.516,37.566,18.516z"/>
	</g>
	<g>
		<defs>
			<path id="SVGID_13_" d="M6.734,0H67.34c3.716,0,6.733,3.418,6.733,7.636v40.728c0,4.22-3.018,7.637-6.733,7.637H6.734
				C3.015,56,0,52.583,0,48.363V7.635C-0.001,3.417,3.015,0,6.734,0z"/>
		</defs>
		<clipPath id="SVGID_14_">
			<use xlink:href="#SVGID_13_"  overflow="visible"/>
		</clipPath>
		<path clip-path="url(#SVGID_14_)" fill="#FFCE54" d="M31.746,0h10.582l-3.174,15.49H34.92L31.746,0z"/>
	</g>
	<g>
		<defs>
			<path id="SVGID_15_" d="M6.734,0H67.34c3.716,0,6.733,3.418,6.733,7.636v40.728c0,4.22-3.018,7.637-6.733,7.637H6.734
				C3.015,56,0,52.583,0,48.363V7.635C-0.001,3.417,3.015,0,6.734,0z"/>
		</defs>
		<clipPath id="SVGID_16_">
			<use xlink:href="#SVGID_15_"  overflow="visible"/>
		</clipPath>
		<path clip-path="url(#SVGID_16_)" fill="#FFCE54" d="M31.746,56h10.582l-3.174-15.49H34.92L31.746,56z"/>
	</g>
	<g>
		<defs>
			<path id="SVGID_17_" d="M6.734,0H67.34c3.716,0,6.733,3.418,6.733,7.636v40.728c0,4.22-3.018,7.637-6.733,7.637H6.734
				C3.015,56,0,52.583,0,48.363V7.635C-0.001,3.417,3.015,0,6.734,0z"/>
		</defs>
		<clipPath id="SVGID_18_">
			<use xlink:href="#SVGID_17_"  overflow="visible"/>
		</clipPath>
		<path clip-path="url(#SVGID_18_)" fill="#FFCE54" d="M74.073,34.553V22.638l-25.397,3.574v4.766L74.073,34.553z"/>
	</g>
	<g>
		<defs>
			<path id="SVGID_19_" d="M6.734,0H67.34c3.716,0,6.733,3.418,6.733,7.636v40.728c0,4.22-3.018,7.637-6.733,7.637H6.734
				C3.015,56,0,52.583,0,48.363V7.635C-0.001,3.417,3.015,0,6.734,0z"/>
		</defs>
		<clipPath id="SVGID_20_">
			<use xlink:href="#SVGID_19_"  overflow="visible"/>
		</clipPath>
		<path clip-path="url(#SVGID_20_)" fill="#FFCE54" d="M-0.001,34.553V22.638l26.455,3.574v4.766L-0.001,34.553z"/>
	</g>
</g>
</svg>
