<?xml version="1.0" encoding="utf-8"?>
<!-- Generator: Adobe Illustrator 15.1.0, SVG Export Plug-In . SVG Version: 6.00 Build 0)  -->
<!DOCTYPE svg PUBLIC "-//W3C//DTD SVG 1.1//EN" "http://www.w3.org/Graphics/SVG/1.1/DTD/svg11.dtd">
<svg version="1.1" id="Layer_1" xmlns:ev="http://www.w3.org/2001/xml-events"
	 xmlns="http://www.w3.org/2000/svg" xmlns:xlink="http://www.w3.org/1999/xlink" x="0px" y="0px" width="70px" height="47px"
	 viewBox="0 0 70 47" enable-background="new 0 0 70 47" xml:space="preserve">
<g>
	<defs>
		<path id="SVGID_1_" d="M6.364,0h57.273C67.15,0,70,2.87,70,6.409v34.182C70,44.131,67.15,47,63.637,47H6.364
			C2.849,47,0,44.131,0,40.591V6.409C0,2.87,2.849,0,6.364,0z"/>
	</defs>
	<clipPath id="SVGID_2_">
		<use xlink:href="#SVGID_1_"  overflow="visible"/>
	</clipPath>
	<path clip-path="url(#SVGID_2_)" fill="#F5F7FA" d="M6.364,0h57.273C67.15,0,70,2.87,70,6.409v34.182C70,44.131,67.15,47,63.637,47
		H6.364C2.849,47,0,44.131,0,40.591V6.409C0,2.87,2.849,0,6.364,0z"/>
	<path clip-path="url(#SVGID_2_)" fill="#ED5565" d="M34,0h36v47H34V0z"/>
	<path clip-path="url(#SVGID_2_)" fill="#CCD1D9" d="M14,7h3c1.105,0,2,0.895,2,2v15c0,1.105-0.895,2-2,2h-3c-1.105,0-2-0.895-2-2V9
		C12,7.895,12.895,7,14,7z"/>
	<path clip-path="url(#SVGID_2_)" fill="#CCD1D9" d="M6,18v-3c0-1.105,0.895-2,2-2h15c1.105,0,2,0.895,2,2v3c0,1.105-0.895,2-2,2H8
		C6.895,20,6,19.105,6,18z"/>
</g>
</svg>
