<?xml version="1.0" encoding="utf-8"?>
<!-- Generator: Adobe Illustrator 15.1.0, SVG Export Plug-In . SVG Version: 6.00 Build 0)  -->
<!DOCTYPE svg PUBLIC "-//W3C//DTD SVG 1.1//EN" "http://www.w3.org/Graphics/SVG/1.1/DTD/svg11.dtd">
<svg version="1.1" id="Layer_1" xmlns:ev="http://www.w3.org/2001/xml-events"
	 xmlns="http://www.w3.org/2000/svg" xmlns:xlink="http://www.w3.org/1999/xlink" x="0px" y="0px" width="72px" height="47px"
	 viewBox="0 0 72 47" enable-background="new 0 0 72 47" xml:space="preserve">
<g>
	<g>
		<defs>
			<path id="SVGID_1_" d="M6.536,0h58.821c3.608,0,6.535,2.869,6.535,6.409v34.182c0,3.54-2.927,6.409-6.535,6.409H6.536
				C2.926,47,0,44.131,0,40.591V6.409C0,2.869,2.926,0,6.536,0z"/>
		</defs>
		<clipPath id="SVGID_2_">
			<use xlink:href="#SVGID_1_"  overflow="visible"/>
		</clipPath>
		<path clip-path="url(#SVGID_2_)" fill="#F6D660" d="M6.536,0h58.821c3.608,0,6.535,2.869,6.535,6.409v34.182
			c0,3.54-2.927,6.409-6.535,6.409H6.536C2.926,47,0,44.131,0,40.591V6.409C0,2.869,2.926,0,6.536,0z"/>
	</g>
	<g>
		<defs>
			<path id="SVGID_3_" d="M6.536,0h58.821c3.608,0,6.535,2.869,6.535,6.409v34.182c0,3.54-2.927,6.409-6.535,6.409H6.536
				C2.926,47,0,44.131,0,40.591V6.409C0,2.869,2.926,0,6.536,0z"/>
		</defs>
		<clipPath id="SVGID_4_">
			<use xlink:href="#SVGID_3_"  overflow="visible"/>
		</clipPath>
		<path clip-path="url(#SVGID_4_)" fill="#ED5565" d="M48.271,0h24.648v47H48.271V0z"/>
	</g>
	<g>
		<defs>
			<path id="SVGID_5_" d="M6.536,0h58.821c3.608,0,6.535,2.869,6.535,6.409v34.182c0,3.54-2.927,6.409-6.535,6.409H6.536
				C2.926,47,0,44.131,0,40.591V6.409C0,2.869,2.926,0,6.536,0z"/>
		</defs>
		<clipPath id="SVGID_6_">
			<use xlink:href="#SVGID_5_"  overflow="visible"/>
		</clipPath>
		<path clip-path="url(#SVGID_6_)" fill="#4A89DC" d="M-1.027,0h24.648v47H-1.027V0z"/>
	</g>
	<g>
		<defs>
			<path id="SVGID_7_" d="M6.536,0h58.821c3.608,0,6.535,2.869,6.535,6.409v34.182c0,3.54-2.927,6.409-6.535,6.409H6.536
				C2.926,47,0,44.131,0,40.591V6.409C0,2.869,2.926,0,6.536,0z"/>
		</defs>
		<clipPath id="SVGID_8_">
			<use xlink:href="#SVGID_7_"  overflow="visible"/>
		</clipPath>
		<path clip-path="url(#SVGID_8_)" fill="#434A54" d="M28.736,21.412l2.994-4.399c0.375-0.551,1.187-0.997,1.815-0.997h7.179
			l2.39,13.962H32.062l1.456-8.566H28.736z"/>
	</g>
</g>
</svg>
