<?xml version="1.0" encoding="utf-8"?>
<!-- Generator: Adobe Illustrator 15.1.0, SVG Export Plug-In . SVG Version: 6.00 Build 0)  -->
<!DOCTYPE svg PUBLIC "-//W3C//DTD SVG 1.1//EN" "http://www.w3.org/Graphics/SVG/1.1/DTD/svg11.dtd">
<svg version="1.1" id="Layer_1" xmlns:ev="http://www.w3.org/2001/xml-events"
	 xmlns="http://www.w3.org/2000/svg" xmlns:xlink="http://www.w3.org/1999/xlink" x="0px" y="0px" width="72px" height="47px"
	 viewBox="0 0 72 47" enable-background="new 0 0 72 47" xml:space="preserve">
<g>
	<g>
		<defs>
			<path id="SVGID_1_" d="M6.547,0h58.922c3.614,0,6.546,2.869,6.546,6.409v34.182c0,3.54-2.932,6.409-6.546,6.409H6.547
				C2.931,47,0,44.131,0,40.591V6.409C0,2.869,2.931,0,6.547,0z"/>
		</defs>
		<clipPath id="SVGID_2_">
			<use xlink:href="#SVGID_1_"  overflow="visible"/>
		</clipPath>
		<path clip-path="url(#SVGID_2_)" fill="#4A89DC" d="M6.547,0h58.922c3.614,0,6.546,2.869,6.546,6.409v34.182
			c0,3.54-2.932,6.409-6.546,6.409H6.547C2.931,47,0,44.131,0,40.591V6.409C0,2.869,2.931,0,6.547,0z"/>
	</g>
	<g>
		<defs>
			<path id="SVGID_3_" d="M6.547,0h58.922c3.614,0,6.546,2.869,6.546,6.409v34.182c0,3.54-2.932,6.409-6.546,6.409H6.547
				C2.931,47,0,44.131,0,40.591V6.409C0,2.869,2.931,0,6.547,0z"/>
		</defs>
		<clipPath id="SVGID_4_">
			<use xlink:href="#SVGID_3_"  overflow="visible"/>
		</clipPath>
		<path clip-path="url(#SVGID_4_)" fill="#ED5565" d="M48.354,0h24.69v47h-24.69V0z"/>
	</g>
	<g>
		<defs>
			<path id="SVGID_5_" d="M6.547,0h58.922c3.614,0,6.546,2.869,6.546,6.409v34.182c0,3.54-2.932,6.409-6.546,6.409H6.547
				C2.931,47,0,44.131,0,40.591V6.409C0,2.869,2.931,0,6.547,0z"/>
		</defs>
		<clipPath id="SVGID_6_">
			<use xlink:href="#SVGID_5_"  overflow="visible"/>
		</clipPath>
		<path clip-path="url(#SVGID_6_)" fill="#ED5565" d="M-1.029,0h24.691v47H-1.029V0z"/>
	</g>
	<g>
		<defs>
			<path id="SVGID_7_" d="M6.547,0h58.922c3.614,0,6.546,2.869,6.546,6.409v34.182c0,3.54-2.932,6.409-6.546,6.409H6.547
				C2.931,47,0,44.131,0,40.591V6.409C0,2.869,2.931,0,6.547,0z"/>
		</defs>
		<clipPath id="SVGID_8_">
			<use xlink:href="#SVGID_7_"  overflow="visible"/>
		</clipPath>
		<path clip-path="url(#SVGID_8_)" fill="#F6BB42" d="M4.115,20h3.086v13H4.115V20z"/>
	</g>
	<g>
		<defs>
			<path id="SVGID_9_" d="M6.547,0h58.922c3.614,0,6.546,2.869,6.546,6.409v34.182c0,3.54-2.932,6.409-6.546,6.409H6.547
				C2.931,47,0,44.131,0,40.591V6.409C0,2.869,2.931,0,6.547,0z"/>
		</defs>
		<clipPath id="SVGID_10_">
			<use xlink:href="#SVGID_9_"  overflow="visible"/>
		</clipPath>
		<path clip-path="url(#SVGID_10_)" fill="#F6BB42" d="M15.432,20h3.086v13h-3.086V20z"/>
	</g>
	<g>
		<defs>
			<path id="SVGID_11_" d="M6.547,0h58.922c3.614,0,6.546,2.869,6.546,6.409v34.182c0,3.54-2.932,6.409-6.546,6.409H6.547
				C2.931,47,0,44.131,0,40.591V6.409C0,2.869,2.931,0,6.547,0z"/>
		</defs>
		<clipPath id="SVGID_12_">
			<use xlink:href="#SVGID_11_"  overflow="visible"/>
		</clipPath>
		<path clip-path="url(#SVGID_12_)" fill="#F6BB42" d="M11.317,23c1.705,0,3.086,1.343,3.086,3s-1.382,3-3.086,3
			c-1.706,0-3.086-1.343-3.086-3S9.611,23,11.317,23z"/>
	</g>
	<g>
		<defs>
			<path id="SVGID_13_" d="M6.547,0h58.922c3.614,0,6.546,2.869,6.546,6.409v34.182c0,3.54-2.932,6.409-6.546,6.409H6.547
				C2.931,47,0,44.131,0,40.591V6.409C0,2.869,2.931,0,6.547,0z"/>
		</defs>
		<clipPath id="SVGID_14_">
			<use xlink:href="#SVGID_13_"  overflow="visible"/>
		</clipPath>
		<path clip-path="url(#SVGID_14_)" fill="#F6BB42" d="M11.317,13c1.705,0,3.086,1.343,3.086,3s-1.382,3-3.086,3
			c-1.706,0-3.086-1.343-3.086-3S9.611,13,11.317,13z"/>
	</g>
	<g>
		<defs>
			<path id="SVGID_15_" d="M6.547,0h58.922c3.614,0,6.546,2.869,6.546,6.409v34.182c0,3.54-2.932,6.409-6.546,6.409H6.547
				C2.931,47,0,44.131,0,40.591V6.409C0,2.869,2.931,0,6.547,0z"/>
		</defs>
		<clipPath id="SVGID_16_">
			<use xlink:href="#SVGID_15_"  overflow="visible"/>
		</clipPath>
		<path clip-path="url(#SVGID_16_)" fill="#F6BB42" d="M11.317,30.005L14.397,30l-3.081,2.995L8.235,30L11.317,30.005z"/>
	</g>
</g>
</svg>
