<?xml version="1.0" encoding="utf-8"?>
<!-- Generator: Adobe Illustrator 15.1.0, SVG Export Plug-In . SVG Version: 6.00 Build 0)  -->
<!DOCTYPE svg PUBLIC "-//W3C//DTD SVG 1.1//EN" "http://www.w3.org/Graphics/SVG/1.1/DTD/svg11.dtd">
<svg version="1.1" id="Layer_1" xmlns:ev="http://www.w3.org/2001/xml-events"
	 xmlns="http://www.w3.org/2000/svg" xmlns:xlink="http://www.w3.org/1999/xlink" x="0px" y="0px" width="70px" height="48px"
	 viewBox="0 0 70 48" enable-background="new 0 0 70 48" xml:space="preserve">
<g>
	<g>
		<defs>
			<path id="SVGID_1_" d="M6.364,0h57.273C67.15,0,70,2.93,70,6.545v34.909C70,45.07,67.15,48,63.637,48H6.364
				C2.849,48,0,45.07,0,41.454V6.545C0,2.93,2.849,0,6.364,0z"/>
		</defs>
		<clipPath id="SVGID_2_">
			<use xlink:href="#SVGID_1_"  overflow="visible"/>
		</clipPath>
		<path clip-path="url(#SVGID_2_)" fill="#F5F7FA" d="M6.364,0h57.273C67.15,0,70,2.93,70,6.545v34.909C70,45.07,67.15,48,63.637,48
			H6.364C2.849,48,0,45.07,0,41.454V6.545C0,2.93,2.849,0,6.364,0z"/>
	</g>
	<g>
		<defs>
			<path id="SVGID_3_" d="M6.364,0h57.273C67.15,0,70,2.93,70,6.545v34.909C70,45.07,67.15,48,63.637,48H6.364
				C2.849,48,0,45.07,0,41.454V6.545C0,2.93,2.849,0,6.364,0z"/>
		</defs>
		<clipPath id="SVGID_4_">
			<use xlink:href="#SVGID_3_"  overflow="visible"/>
		</clipPath>
		<path clip-path="url(#SVGID_4_)" fill="#ED5565" d="M27,48H0V20.426 M27,26.553H0V-1.021"/>
	</g>
	<g>
		<defs>
			<path id="SVGID_5_" d="M6.364,0h57.273C67.15,0,70,2.93,70,6.545v34.909C70,45.07,67.15,48,63.637,48H6.364
				C2.849,48,0,45.07,0,41.454V6.545C0,2.93,2.849,0,6.364,0z"/>
		</defs>
		<clipPath id="SVGID_6_">
			<use xlink:href="#SVGID_5_"  overflow="visible"/>
		</clipPath>
		<path clip-path="url(#SVGID_6_)" fill="#FFFFFF" d="M11.36,14.489c0.002,0.007,0.005,0.014,0.008,0.02l0,0
			c0.117,0.213,0.218,0.438,0.299,0.675c0.782,2.275-0.441,4.761-2.732,5.551c-0.442,0.152-0.891,0.231-1.334,0.241
			c-0.442,0.021-0.896-0.025-1.346-0.146c-2.333-0.627-3.703-3.021-3.06-5.345c0.067-0.244,0.154-0.475,0.258-0.696l0,0
			c0.002-0.006,0.005-0.014,0.007-0.021c0.022-0.079-0.025-0.16-0.104-0.182c-0.065-0.017-0.132,0.01-0.166,0.064
			c-0.442,0.558-0.782,1.209-0.984,1.936c-0.808,2.919,0.914,5.925,3.843,6.711c0.544,0.147,1.092,0.207,1.628,0.187
			c0.536-0.02,1.078-0.117,1.612-0.301c2.877-0.993,4.413-4.114,3.431-6.97c-0.244-0.711-0.623-1.337-1.098-1.862
			c-0.037-0.051-0.105-0.073-0.169-0.052C11.375,14.326,11.333,14.411,11.36,14.489z"/>
	</g>
	<g>
		<defs>
			<path id="SVGID_7_" d="M6.364,0h57.273C67.15,0,70,2.93,70,6.545v34.909C70,45.07,67.15,48,63.637,48H6.364
				C2.849,48,0,45.07,0,41.454V6.545C0,2.93,2.849,0,6.364,0z"/>
		</defs>
		<clipPath id="SVGID_8_">
			<use xlink:href="#SVGID_7_"  overflow="visible"/>
		</clipPath>
		<path clip-path="url(#SVGID_8_)" fill="#FFFFFF" d="M10.674,39.405l-1.408,0.142c0.005,0.024,0.002,0.054,0.01,0.078l0.359,1.198
			c0.108,0.362-0.074,0.495-0.405,0.299l-0.952-0.566L7.98,41.599c-0.101,0.354-0.327,0.365-0.502,0.027l-0.614-1.184
			c-0.003,0.002-0.009,0-0.012,0.004l-1.203,0.821c-0.318,0.217-0.502,0.095-0.41-0.271l0.324-1.292l-1.162-0.059
			c-0.395-0.021-0.477-0.228-0.182-0.461l0.916-0.724l-0.958-0.798c-0.294-0.246-0.217-0.453,0.17-0.465l1.182-0.032l-0.607-1.329
			c-0.158-0.346-0.007-0.465,0.334-0.266l1.416,0.827c0.015,0.008,0.034,0.01,0.05,0.02l0.433-1.42
			c0.11-0.361,0.308-0.366,0.44-0.014l0.455,1.223l0.959-0.7c0.304-0.224,0.503-0.107,0.442,0.255l-0.228,1.341l1.34,0.013
			c0.388,0.005,0.465,0.208,0.173,0.456l-0.882,0.743l0.933,0.62C11.115,39.154,11.064,39.365,10.674,39.405z"/>
	</g>
	<g>
		<defs>
			<path id="SVGID_9_" d="M6.364,0h57.273C67.15,0,70,2.93,70,6.545v34.909C70,45.07,67.15,48,63.637,48H6.364
				C2.849,48,0,45.07,0,41.454V6.545C0,2.93,2.849,0,6.364,0z"/>
		</defs>
		<clipPath id="SVGID_10_">
			<use xlink:href="#SVGID_9_"  overflow="visible"/>
		</clipPath>
		<path clip-path="url(#SVGID_10_)" fill="#FFFFFF" d="M10.674,20l-1.408,0.141c0.005,0.025,0.002,0.054,0.01,0.08l0.359,1.197
			c0.108,0.361-0.074,0.496-0.405,0.299l-0.952-0.566L7.98,22.195c-0.101,0.354-0.327,0.366-0.502,0.027l-0.614-1.185
			c-0.003,0.002-0.009,0.001-0.012,0.004l-1.203,0.821c-0.318,0.216-0.502,0.095-0.41-0.271l0.324-1.291l-1.162-0.059
			c-0.395-0.02-0.477-0.227-0.182-0.46l0.916-0.724l-0.958-0.798c-0.294-0.245-0.217-0.453,0.17-0.465l1.182-0.031l-0.607-1.33
			c-0.158-0.345-0.007-0.465,0.334-0.265l1.416,0.826c0.015,0.008,0.034,0.011,0.05,0.02l0.433-1.42
			c0.11-0.36,0.308-0.366,0.44-0.012l0.455,1.223l0.959-0.701c0.304-0.223,0.503-0.107,0.442,0.255L9.223,17.7l1.34,0.013
			c0.388,0.003,0.465,0.208,0.173,0.456l-0.882,0.743l0.933,0.621C11.115,19.75,11.064,19.961,10.674,20z"/>
	</g>
</g>
</svg>
