<?xml version="1.0" encoding="utf-8"?>
<!-- Generator: Adobe Illustrator 15.1.0, SVG Export Plug-In . SVG Version: 6.00 Build 0)  -->
<!DOCTYPE svg PUBLIC "-//W3C//DTD SVG 1.1//EN" "http://www.w3.org/Graphics/SVG/1.1/DTD/svg11.dtd">
<svg version="1.1" id="Layer_1" xmlns:ev="http://www.w3.org/2001/xml-events"
	 xmlns="http://www.w3.org/2000/svg" xmlns:xlink="http://www.w3.org/1999/xlink" x="0px" y="0px" width="70px" height="48px"
	 viewBox="0 0 70 48" enable-background="new 0 0 70 48" xml:space="preserve">
<g>
	<g>
		<g>
			<defs>
				<path id="SVGID_1_" d="M63.637,47.85H6.363C2.85,47.85,0,44.929,0,41.324V6.525C0,2.921,2.85,0,6.363,0h57.272
					C67.15,0,70,2.921,70,6.525v34.799C70,44.929,67.15,47.85,63.637,47.85z"/>
			</defs>
			<clipPath id="SVGID_2_">
				<use xlink:href="#SVGID_1_"  overflow="visible"/>
			</clipPath>
			<path clip-path="url(#SVGID_2_)" fill="#F5F7FA" d="M63.637,47.85H6.363C2.85,47.85,0,44.929,0,41.324V6.525
				C0,2.921,2.85,0,6.363,0h57.272C67.15,0,70,2.921,70,6.525v34.799C70,44.929,67.15,47.85,63.637,47.85z"/>
		</g>
	</g>
	<g>
		<g>
			<defs>
				<path id="SVGID_3_" d="M63.637,47.85H6.363C2.85,47.85,0,44.929,0,41.324V6.525C0,2.921,2.85,0,6.363,0h57.272
					C67.15,0,70,2.921,70,6.525v34.799C70,44.929,67.15,47.85,63.637,47.85z"/>
			</defs>
			<clipPath id="SVGID_4_">
				<use xlink:href="#SVGID_3_"  overflow="visible"/>
			</clipPath>
			<path clip-path="url(#SVGID_4_)" fill="#FC6E51" d="M70,47.85H0V31.561h70V47.85z"/>
		</g>
	</g>
	<g>
		<g>
			<defs>
				<path id="SVGID_5_" d="M63.637,47.85H6.363C2.85,47.85,0,44.929,0,41.324V6.525C0,2.921,2.85,0,6.363,0h57.272
					C67.15,0,70,2.921,70,6.525v34.799C70,44.929,67.15,47.85,63.637,47.85z"/>
			</defs>
			<clipPath id="SVGID_6_">
				<use xlink:href="#SVGID_5_"  overflow="visible"/>
			</clipPath>
			<path clip-path="url(#SVGID_6_)" fill="#57A863" d="M70,15.271H0V-1.018h70V15.271z"/>
		</g>
	</g>
	<g>
		<g>
			<defs>
				<path id="SVGID_7_" d="M63.637,47.85H6.363C2.85,47.85,0,44.929,0,41.324V6.525C0,2.921,2.85,0,6.363,0h57.272
					C67.15,0,70,2.921,70,6.525v34.799C70,44.929,67.15,47.85,63.637,47.85z"/>
			</defs>
			<clipPath id="SVGID_8_">
				<use xlink:href="#SVGID_7_"  overflow="visible"/>
			</clipPath>
			<path clip-path="url(#SVGID_8_)" fill="#4758A9" d="M29.091,23.798l0.388,0.684c0.121,0.213,0.222,0.588,0.223,0.834l0.003,0.79
				c0.001,0.244,0.173,0.545,0.382,0.667l0.652,0.381c0.211,0.121,0.479,0.396,0.602,0.608l0.376,0.663
				c0.12,0.212,0.416,0.386,0.657,0.386h0.775c0.242,0,0.609,0.101,0.819,0.222l0.673,0.392c0.21,0.123,0.551,0.121,0.76-0.002
				l0.65-0.386c0.208-0.123,0.576-0.226,0.817-0.226h0.753c0.24,0,0.537-0.174,0.656-0.386l0.39-0.686
				c0.12-0.213,0.39-0.486,0.599-0.612l0.67-0.397c0.207-0.123,0.377-0.426,0.377-0.67l-0.004-0.768c0-0.245,0.098-0.62,0.217-0.833
				l0.377-0.664c0.121-0.212,0.121-0.56,0-0.772l-0.389-0.685c-0.119-0.212-0.22-0.587-0.22-0.833l-0.004-0.789
				c-0.001-0.244-0.173-0.544-0.382-0.668l-0.653-0.38c-0.21-0.12-0.479-0.396-0.601-0.608l-0.377-0.661
				c-0.119-0.213-0.416-0.389-0.656-0.389h-0.775c-0.242,0-0.611-0.1-0.82-0.221l-0.672-0.393c-0.21-0.123-0.551-0.12-0.76,0.003
				l-0.65,0.386c-0.207,0.124-0.574,0.225-0.815,0.225h-0.753c-0.241,0-0.537,0.176-0.657,0.389l-0.388,0.684
				c-0.121,0.213-0.391,0.488-0.6,0.611l-0.67,0.399c-0.209,0.125-0.379,0.426-0.377,0.672l0.002,0.766
				c0.002,0.247-0.097,0.619-0.217,0.832l-0.376,0.664C28.971,23.239,28.971,23.586,29.091,23.798z M31.426,23.179l0.227-0.401
				c0.074-0.128,0.134-0.356,0.134-0.504l-0.002-0.463c-0.001-0.148,0.103-0.331,0.229-0.404l0.403-0.24
				c0.126-0.075,0.289-0.24,0.36-0.37l0.234-0.411c0.073-0.129,0.252-0.234,0.398-0.234h0.455c0.146,0,0.367-0.062,0.494-0.135
				l0.393-0.233c0.126-0.075,0.333-0.077,0.459-0.003l0.408,0.238c0.126,0.073,0.349,0.133,0.493,0.133h0.471
				c0.146,0,0.325,0.106,0.396,0.234l0.229,0.401c0.072,0.128,0.236,0.294,0.361,0.366l0.397,0.228
				c0.127,0.074,0.229,0.256,0.229,0.403l0.004,0.479c0.001,0.148,0.061,0.374,0.134,0.503l0.233,0.414
				c0.072,0.128,0.072,0.339,0,0.467l-0.227,0.401c-0.072,0.129-0.132,0.355-0.131,0.504l0.001,0.462
				c0.001,0.149-0.103,0.332-0.228,0.406l-0.405,0.241c-0.126,0.072-0.289,0.239-0.361,0.368l-0.235,0.414
				c-0.071,0.129-0.252,0.233-0.396,0.233h-0.455c-0.146,0-0.367,0.061-0.494,0.135l-0.393,0.234c-0.126,0.073-0.333,0.075-0.459,0
				l-0.408-0.235c-0.126-0.074-0.349-0.134-0.495-0.134h-0.47c-0.146,0-0.325-0.106-0.398-0.233l-0.227-0.402
				c-0.073-0.128-0.236-0.293-0.363-0.367l-0.395-0.229c-0.127-0.074-0.231-0.256-0.231-0.404l-0.002-0.478
				c-0.001-0.149-0.062-0.375-0.134-0.503l-0.234-0.414C31.354,23.518,31.354,23.307,31.426,23.179z"/>
		</g>
	</g>
</g>
</svg>
