<?xml version="1.0" encoding="utf-8"?>
<!-- Generator: Adobe Illustrator 15.1.0, SVG Export Plug-In . SVG Version: 6.00 Build 0)  -->
<!DOCTYPE svg PUBLIC "-//W3C//DTD SVG 1.1//EN" "http://www.w3.org/Graphics/SVG/1.1/DTD/svg11.dtd">
<svg version="1.1" id="Layer_1" xmlns:ev="http://www.w3.org/2001/xml-events"
	 xmlns="http://www.w3.org/2000/svg" xmlns:xlink="http://www.w3.org/1999/xlink" x="0px" y="0px" width="70px" height="49px"
	 viewBox="0 0 70 49" enable-background="new 0 0 70 49" xml:space="preserve">
<g>
	<g>
		<g>
			<g>
				<defs>
					<path id="SVGID_1_" d="M6.363-0.074h57.274C67.15-0.074,70,2.914,70,6.6v35.592c0,3.687-2.85,6.674-6.363,6.674H6.363
						C2.849,48.866,0,45.879,0,42.192V6.6C0,2.914,2.849-0.074,6.363-0.074z"/>
				</defs>
				<clipPath id="SVGID_2_">
					<use xlink:href="#SVGID_1_"  overflow="visible"/>
				</clipPath>
				<path clip-path="url(#SVGID_2_)" fill="#CC0099" d="M6.363-0.074h57.274C67.15-0.074,70,2.914,70,6.6v35.592
					c0,3.687-2.85,6.674-6.363,6.674H6.363C2.849,48.866,0,45.879,0,42.192V6.6C0,2.914,2.849-0.074,6.363-0.074z"/>
			</g>
		</g>
	</g>
	<g>
		<g>
			<g>
				<defs>
					<path id="SVGID_3_" d="M6.363-7.363h57.274C67.15-7.363,70-3.761,70,0.684v42.912c0,4.443-2.85,8.047-6.363,8.047H6.363
						C2.849,51.643,0,48.039,0,43.596V0.684C0-3.761,2.849-7.363,6.363-7.363z"/>
				</defs>
				<clipPath id="SVGID_4_">
					<use xlink:href="#SVGID_3_"  overflow="visible"/>
				</clipPath>
				<path clip-path="url(#SVGID_4_)" fill="#FF9900" d="M0,6.446h70v7.533H0V6.446z"/>
			</g>
		</g>
	</g>
	<g>
		<g>
			<g>
				<defs>
					<path id="SVGID_5_" d="M6.363-0.074h57.274c6.021,0,6.367,5.718,6.363,6.829v35.438c0,3.687-2.85,6.674-6.363,6.674H6.363
						C2.849,48.866,0,45.879,0,42.192V6.868C0,2.704,2.849-0.074,6.363-0.074z"/>
				</defs>
				<clipPath id="SVGID_6_">
					<use xlink:href="#SVGID_5_"  overflow="visible"/>
				</clipPath>
				<path clip-path="url(#SVGID_6_)" fill="#FF0000" d="M0-0.074h70l-0.007,6.521L0,6.442V-0.074z"/>
			</g>
		</g>
	</g>
	<g>
		<g>
			<g>
				<defs>
					<path id="SVGID_7_" d="M6.363-0.42h57.274C67.15-0.42,70,3.181,70,7.625v42.913c0,4.444-2.85,8.048-6.363,8.048H6.363
						C2.849,58.586,0,54.982,0,50.538V7.625C0,3.181,2.849-0.42,6.363-0.42z"/>
				</defs>
				<clipPath id="SVGID_8_">
					<use xlink:href="#SVGID_7_"  overflow="visible"/>
				</clipPath>
				<path clip-path="url(#SVGID_8_)" fill="#FFFF00" d="M0,13.389h70v7.532H0V13.389z"/>
			</g>
		</g>
	</g>
	<g>
		<g>
			<g>
				<defs>
					<path id="SVGID_9_" d="M6.363,6.868h57.274C67.15,6.868,70,10.47,70,14.914v42.914c0,4.444-2.85,8.048-6.363,8.048H6.363
						C2.849,65.875,0,62.271,0,57.828V14.914C0,10.47,2.849,6.868,6.363,6.868z"/>
				</defs>
				<clipPath id="SVGID_10_">
					<use xlink:href="#SVGID_9_"  overflow="visible"/>
				</clipPath>
				<path clip-path="url(#SVGID_10_)" fill="#FFFFFF" d="M0,20.678h70v7.532H0V20.678z"/>
			</g>
		</g>
	</g>
	<g>
		<g>
			<g>
				<defs>
					<path id="SVGID_11_" d="M6.363,14.158h57.274c3.514,0,6.363,3.601,6.363,8.045v42.914c0,4.444-2.85,8.047-6.363,8.047H6.363
						C2.849,73.163,0,69.56,0,65.117V22.203C0,17.759,2.849,14.158,6.363,14.158z"/>
				</defs>
				<clipPath id="SVGID_12_">
					<use xlink:href="#SVGID_11_"  overflow="visible"/>
				</clipPath>
				<path clip-path="url(#SVGID_12_)" fill="#009800" d="M0,27.966h70V35.5H0V27.966z"/>
			</g>
		</g>
	</g>
	<g>
		<g>
			<g>
				<defs>
					<path id="SVGID_13_" d="M6.363,21.446h57.274c3.514,0,6.363,3.602,6.363,8.046v42.913c0,4.444-2.85,8.048-6.363,8.048H6.363
						C2.849,80.452,0,76.849,0,72.405V29.492C0,25.048,2.849,21.446,6.363,21.446z"/>
				</defs>
				<clipPath id="SVGID_14_">
					<use xlink:href="#SVGID_13_"  overflow="visible"/>
				</clipPath>
				<path clip-path="url(#SVGID_14_)" fill="#0000FF" d="M0,35.255h70v7.533H0V35.255z"/>
			</g>
		</g>
	</g>
</g>
</svg>
