<?xml version="1.0" encoding="utf-8"?>
<!-- Generator: Adobe Illustrator 15.1.0, SVG Export Plug-In . SVG Version: 6.00 Build 0)  -->
<!DOCTYPE svg PUBLIC "-//W3C//DTD SVG 1.1//EN" "http://www.w3.org/Graphics/SVG/1.1/DTD/svg11.dtd">
<svg version="1.1" id="Layer_1" xmlns:ev="http://www.w3.org/2001/xml-events"
	 xmlns="http://www.w3.org/2000/svg" xmlns:xlink="http://www.w3.org/1999/xlink" x="0px" y="0px" width="70px" height="47px"
	 viewBox="0 0 70 47" enable-background="new 0 0 70 47" xml:space="preserve">
<g>
	<defs>
		<path id="SVGID_1_" d="M6.364,0h57.273C67.15,0,70,2.869,70,6.409v34.182C70,44.131,67.15,47,63.637,47H6.364
			C2.849,47,0,44.131,0,40.591V6.409C0,2.869,2.849,0,6.364,0z"/>
	</defs>
	<clipPath id="SVGID_2_">
		<use xlink:href="#SVGID_1_"  overflow="visible"/>
	</clipPath>
	<path clip-path="url(#SVGID_2_)" fill="#4758A9" d="M6.364,0h57.273C67.15,0,70,2.869,70,6.409v34.182
		C70,44.131,67.15,47,63.637,47H6.364C2.849,47,0,44.131,0,40.591V6.409C0,2.869,2.849,0,6.364,0z"/>
	<path clip-path="url(#SVGID_2_)" fill="#F5F7FA" d="M0,0h70v16H0V0z"/>
	<path clip-path="url(#SVGID_2_)" fill="#ED5565" d="M0,31h70v16H0V31z"/>
	<path clip-path="url(#SVGID_2_)" fill="#F5F7FA" d="M17.007,11.314c-1.947,0-3-1.314-3-1.314s-1.056,1.314-3.003,1.314
		C9.21,11.314,8,10.223,8,10.223v7.135C8.055,22.058,14,24,14,24s6-1.942,6-6.642v-7.135C20,10.223,18.801,11.314,17.007,11.314z"/>
	<path clip-path="url(#SVGID_2_)" fill="#4758A9" d="M16.406,12.262c-1.558,0-2.4-1.095-2.4-1.095s-0.845,1.095-2.403,1.095
		c-1.435,0-2.403-0.91-2.403-0.91v5.947c0.044,3.916,4.8,5.534,4.8,5.534s4.8-1.618,4.8-5.534v-5.947
		C18.8,11.352,17.84,12.262,16.406,12.262z"/>
</g>
</svg>
