<?xml version="1.0" encoding="utf-8"?>
<!-- Generator: Adobe Illustrator 15.1.0, SVG Export Plug-In . SVG Version: 6.00 Build 0)  -->
<!DOCTYPE svg PUBLIC "-//W3C//DTD SVG 1.1//EN" "http://www.w3.org/Graphics/SVG/1.1/DTD/svg11.dtd">
<svg version="1.1" id="Layer_1" xmlns:ev="http://www.w3.org/2001/xml-events"
	 xmlns="http://www.w3.org/2000/svg" xmlns:xlink="http://www.w3.org/1999/xlink" x="0px" y="0px" width="70px" height="47px"
	 viewBox="0 0 70 47" enable-background="new 0 0 70 47" xml:space="preserve">
<g>
	<defs>
		<path id="SVGID_1_" d="M6.364,0h57.273C67.15,0,70,2.869,70,6.409v34.182C70,44.131,67.15,47,63.637,47H6.364
			C2.849,47,0,44.131,0,40.591V6.409C0,2.869,2.849,0,6.364,0z"/>
	</defs>
	<clipPath id="SVGID_2_">
		<use xlink:href="#SVGID_1_"  overflow="visible"/>
	</clipPath>
	<path clip-path="url(#SVGID_2_)" fill="#4758A9" d="M6.364,0h57.273C67.15,0,70,2.869,70,6.409v34.182
		C70,44.131,67.15,47,63.637,47H6.364C2.849,47,0,44.131,0,40.591V6.409C0,2.869,2.849,0,6.364,0z"/>
	<path clip-path="url(#SVGID_2_)" fill="#F5F7FA" d="M0,0h70v16H0V0z"/>
	<path clip-path="url(#SVGID_2_)" fill="#ED5565" d="M0,31h70v16H0V31z"/>
	<path clip-path="url(#SVGID_2_)" fill="#F5F7FA" d="M22.012,13.252c-3.245,0-5-2.252-5-2.252s-1.76,2.252-5.006,2.252
		c-2.989,0-5.006-1.87-5.006-1.87v12.232C7.091,31.67,17,35,17,35s10-3.33,10-11.386V11.382C27,11.382,25.001,13.252,22.012,13.252z
		"/>
	<path clip-path="url(#SVGID_2_)" fill="#ED5565" d="M21.01,14.877c-2.597,0-4-1.877-4-1.877s-1.409,1.877-4.005,1.877
		C10.614,14.877,9,13.318,9,13.318v10.194C9.073,30.225,17,33,17,33s8-2.775,8-9.488V13.318C25,13.318,23.401,14.877,21.01,14.877z"
		/>
</g>
</svg>
