<?xml version="1.0" encoding="utf-8"?><!DOCTYPE svg PUBLIC "-//W3C//DTD SVG 1.1//EN" "http://www.w3.org/Graphics/SVG/1.1/DTD/svg11.dtd"><svg version="1.1" baseProfile="full" xmlns="http://www.w3.org/2000/svg" xmlns:xlink="http://www.w3.org/1999/xlink" xmlns:ev="http://www.w3.org/2001/xml-events"   height="47px"   width="70px" ><path fill="rgb( 74, 137, 220 )" d="M6.36400000000003,0 C6.36400000000003,0 63.636,0 63.636,0 C67.1510000000001,0 70,2.869 70,6.40899999999999 C70,6.40899999999999 70,40.591 70,40.591 C70,44.131 67.1510000000001,47 63.636,47 C63.636,47 6.36400000000003,47 6.36400000000003,47 C2.84899999999993,47 0,44.131 0,40.591 C0,40.591 0,6.40899999999999 0,6.40899999999999 C0,2.869 2.84899999999993,0 6.36400000000003,0 Z "/><path fill="rgb( 255, 255, 255 )" d="M30.153,30.959 C29.414,31.449 29.001,31.15 29.2360000000001,30.295 C29.2360000000001,30.295 30.1089999999999,27.112 30.1089999999999,27.112 C30.3440000000001,26.257 29.999,25.07 29.3430000000001,24.474 C29.3430000000001,24.474 27.037,22.377 27.037,22.377 C26.3820000000001,21.781 26.5699999999999,21.293 27.4570000000001,21.294 C27.4570000000001,21.294 30.769,21.297 30.769,21.297 C31.655,21.297 32.606,20.609 32.8820000000001,19.766 C32.8820000000001,19.766 34.02,16.295 34.02,16.295 C34.296,15.453 34.748,15.453 35.0250000000001,16.295 C35.0250000000001,16.295 36.173,19.784 36.173,19.784 C36.45,20.626 37.4010000000001,21.343 38.2860000000001,21.378 C38.2860000000001,21.378 41.6610000000001,21.509 41.6610000000001,21.509 C42.547,21.543 42.71,22.031 42.0250000000001,22.593 C42.0250000000001,22.593 39.3920000000001,24.75 39.3920000000001,24.75 C38.7059999999999,25.312 38.328,26.474 38.5509999999999,27.332 C38.5509999999999,27.332 39.29,30.175 39.29,30.175 C39.5129999999999,31.033 39.088,31.338 38.346,30.854 C38.346,30.854 35.652,29.095 35.652,29.095 C34.9090000000001,28.61 33.6969999999999,28.614 32.9580000000001,29.103 C32.9580000000001,29.103 30.153,30.959 30.153,30.959 Z "/></svg>