<?xml version="1.0" encoding="utf-8"?>
<!-- Generator: Adobe Illustrator 15.1.0, SVG Export Plug-In . SVG Version: 6.00 Build 0)  -->
<!DOCTYPE svg PUBLIC "-//W3C//DTD SVG 1.1//EN" "http://www.w3.org/Graphics/SVG/1.1/DTD/svg11.dtd">
<svg version="1.1" id="Layer_1" xmlns:ev="http://www.w3.org/2001/xml-events"
	 xmlns="http://www.w3.org/2000/svg" xmlns:xlink="http://www.w3.org/1999/xlink" x="0px" y="0px" width="70px" height="47px"
	 viewBox="0 0 70 47" enable-background="new 0 0 70 47" xml:space="preserve">
<g>
	<defs>
		<path id="SVGID_1_" d="M6.364,0h57.273C67.15,0,70,2.869,70,6.409v34.182C70,44.131,67.15,47,63.637,47H6.364
			C2.849,47,0,44.131,0,40.591V6.409C0,2.869,2.849,0,6.364,0z"/>
	</defs>
	<clipPath id="SVGID_2_">
		<use xlink:href="#SVGID_1_"  overflow="visible"/>
	</clipPath>
	<path clip-path="url(#SVGID_2_)" fill="#FFCE54" d="M6.364,0h57.273C67.15,0,70,2.869,70,6.409v34.182
		C70,44.131,67.15,47,63.637,47H6.364C2.849,47,0,44.131,0,40.591V6.409C0,2.869,2.849,0,6.364,0z"/>
	<path clip-path="url(#SVGID_2_)" fill="#ED5565" d="M0,0h70v10H0V0z"/>
	<path clip-path="url(#SVGID_2_)" fill="#ED5565" d="M0,37h70v10H0V37z"/>
	<path clip-path="url(#SVGID_2_)" fill="#ED5565" d="M16.758,17.502c-2.11,0-3.25-1.502-3.25-1.502s-1.144,1.502-3.254,1.502
		C8.311,17.502,7,16.255,7,16.255v8.154C7.059,29.78,13.5,32,13.5,32s6.5-2.22,6.5-7.591v-8.154
		C20,16.255,18.7,17.502,16.758,17.502z"/>
</g>
</svg>
