<?xml version="1.0" encoding="utf-8"?><!DOCTYPE svg PUBLIC "-//W3C//DTD SVG 1.1//EN" "http://www.w3.org/Graphics/SVG/1.1/DTD/svg11.dtd"><svg version="1.1" baseProfile="full" xmlns="http://www.w3.org/2000/svg" xmlns:xlink="http://www.w3.org/1999/xlink" xmlns:ev="http://www.w3.org/2001/xml-events"   height="47px"   width="70px" ><path fill="rgb( 255, 206, 84 )" d="M6.36400000000003,0 C6.36400000000003,0 63.636,0 63.636,0 C67.1510000000001,0 70,2.86900000000003 70,6.40899999999999 C70,6.40899999999999 70,40.591 70,40.591 C70,44.131 67.1510000000001,47 63.636,47 C63.636,47 6.36400000000003,47 6.36400000000003,47 C2.84899999999993,47 0,44.131 0,40.591 C0,40.591 0,6.40899999999999 0,6.40899999999999 C0,2.86900000000003 2.84899999999993,0 6.36400000000003,0 Z "/><path fill="rgb( 87, 168, 99 )" d="M5,43 C5,43 5,5 5,5 C5,5 15,5 15,5 C15,5 15,43 15,43 C15,43 5,43 5,43 Z "/><path fill="rgb( 255, 132, 22 )" d="M15,43 C15,43 15,5 15,5 C15,5 25,5 25,5 C25,5 25,43 25,43 C25,43 15,43 15,43 Z "/><path fill="rgb( 237, 85, 101 )" d="M29,43 C29,43 29,5 29,5 C29,5 65,5 65,5 C65,5 65,43 65,43 C65,43 29,43 29,43 Z "/></svg>