<?xml version="1.0" encoding="utf-8"?>
<!-- Generator: Adobe Illustrator 15.1.0, SVG Export Plug-In . SVG Version: 6.00 Build 0)  -->
<!DOCTYPE svg PUBLIC "-//W3C//DTD SVG 1.1//EN" "http://www.w3.org/Graphics/SVG/1.1/DTD/svg11.dtd">
<svg version="1.1" id="Layer_1" xmlns:ev="http://www.w3.org/2001/xml-events"
	 xmlns="http://www.w3.org/2000/svg" xmlns:xlink="http://www.w3.org/1999/xlink" x="0px" y="0px" width="70px" height="47px"
	 viewBox="0 0 70 47" enable-background="new 0 0 70 47" xml:space="preserve">
<g>
	<defs>
		<path id="SVGID_1_" d="M6.364,0h57.273C67.15,0,70,2.869,70,6.409v34.182C70,44.131,67.15,47,63.637,47H6.364
			C2.849,47,0,44.131,0,40.591V6.409C0,2.869,2.849,0,6.364,0z"/>
	</defs>
	<clipPath id="SVGID_2_">
		<use xlink:href="#SVGID_1_"  overflow="visible"/>
	</clipPath>
	<path clip-path="url(#SVGID_2_)" fill="#ED5565" d="M6.364,0h57.273C67.15,0,70,2.869,70,6.409v34.182
		C70,44.131,67.15,47,63.637,47H6.364C2.849,47,0,44.131,0,40.591V6.409C0,2.869,2.849,0,6.364,0z"/>
	<path clip-path="url(#SVGID_2_)" fill="#4758A9" d="M0,0h31v24H0V0z"/>
	<path clip-path="url(#SVGID_2_)" fill="#F5F7FA" d="M22.241,14.493c-0.001-0.261,0.105-0.66,0.235-0.886l0.407-0.705
		c0.131-0.226,0.131-0.596,0-0.822l-0.419-0.728c-0.131-0.226-0.239-0.624-0.24-0.885l-0.003-0.84
		c-0.001-0.261-0.188-0.581-0.414-0.711L21.1,8.512c-0.227-0.13-0.519-0.421-0.65-0.647L20.043,7.16
		c-0.13-0.226-0.451-0.411-0.712-0.411h-0.84c-0.261,0-0.66-0.106-0.886-0.235l-0.73-0.418c-0.226-0.129-0.596-0.128-0.822,0.004
		L15.35,6.51c-0.226,0.132-0.624,0.239-0.885,0.239H13.65c-0.261,0-0.581,0.185-0.711,0.411l-0.421,0.728
		c-0.13,0.226-0.421,0.518-0.647,0.65l-0.726,0.423c-0.225,0.131-0.409,0.452-0.408,0.713l0.004,0.815
		c0.001,0.261-0.105,0.659-0.236,0.885l-0.407,0.706c-0.13,0.226-0.13,0.596,0,0.822l0.42,0.727
		c0.131,0.226,0.238,0.625,0.239,0.886l0.004,0.84c0.001,0.261,0.187,0.581,0.414,0.71l0.707,0.404
		c0.226,0.13,0.519,0.421,0.649,0.647l0.408,0.706c0.13,0.226,0.45,0.411,0.711,0.411h0.841c0.261,0,0.66,0.106,0.886,0.235
		l0.729,0.417c0.227,0.13,0.597,0.128,0.822-0.003l0.704-0.41c0.226-0.132,0.624-0.239,0.885-0.239h0.814
		c0.261,0,0.582-0.185,0.712-0.411l0.42-0.729c0.131-0.226,0.422-0.519,0.648-0.65l0.725-0.423c0.226-0.132,0.409-0.453,0.408-0.714
		L22.241,14.493z"/>
</g>
</svg>
