<?xml version="1.0" encoding="utf-8"?>
<!-- Generator: Adobe Illustrator 15.1.0, SVG Export Plug-In . SVG Version: 6.00 Build 0)  -->
<!DOCTYPE svg PUBLIC "-//W3C//DTD SVG 1.1//EN" "http://www.w3.org/Graphics/SVG/1.1/DTD/svg11.dtd">
<svg version="1.1" id="Layer_1" xmlns:ev="http://www.w3.org/2001/xml-events"
	 xmlns="http://www.w3.org/2000/svg" xmlns:xlink="http://www.w3.org/1999/xlink" x="0px" y="0px" width="70px" height="48px"
	 viewBox="0 0 70 48" enable-background="new 0 0 70 48" xml:space="preserve">
<g>
	<g>
		<g>
			<path id="SVGID_1_" fill="#ED5565" d="M6.364,0h57.273C67.15,0,70,2.93,70,6.545v34.909C70,45.07,67.15,48,63.637,48H6.364
				C2.849,48,0,45.07,0,41.454V6.545C0,2.93,2.849,0,6.364,0z"/>
		</g>
		<g>
			<defs>
				<path id="SVGID_2_" d="M6.364,0h57.273C67.15,0,70,2.93,70,6.545v34.909C70,45.07,67.15,48,63.637,48H6.364
					C2.849,48,0,45.07,0,41.454V6.545C0,2.93,2.849,0,6.364,0z"/>
			</defs>
			<clipPath id="SVGID_3_">
				<use xlink:href="#SVGID_2_"  overflow="visible"/>
			</clipPath>
			<path clip-path="url(#SVGID_3_)" fill="#ED5565" d="M6.364,0h57.273C67.15,0,70,2.93,70,6.545v34.909
				C70,45.07,67.15,48,63.637,48H6.364C2.849,48,0,45.07,0,41.454V6.545C0,2.93,2.849,0,6.364,0z"/>
		</g>
	</g>
	<g>
		<g>
			<defs>
				<path id="SVGID_4_" d="M6.364,0h57.273C67.15,0,70,2.93,70,6.545v34.909C70,45.07,67.15,48,63.637,48H6.364
					C2.849,48,0,45.07,0,41.454V6.545C0,2.93,2.849,0,6.364,0z"/>
			</defs>
			<clipPath id="SVGID_5_">
				<use xlink:href="#SVGID_4_"  overflow="visible"/>
			</clipPath>
			<path clip-path="url(#SVGID_5_)" fill="#FFCE54" d="M41.227,19.003h4.779l-6.441,16.732h-9.149l-6.419-16.732h4.931l0.74-4.6
				h-2.653l1.661-2.576l1.006-0.584h3.983l1.183,7.299l1.314-7.299h4.2l1.062,0.553l1.751,2.445h-2.797L41.227,19.003z"/>
		</g>
	</g>
</g>
</svg>
