<?xml version="1.0" encoding="utf-8"?><!DOCTYPE svg PUBLIC "-//W3C//DTD SVG 1.1//EN" "http://www.w3.org/Graphics/SVG/1.1/DTD/svg11.dtd"><svg version="1.1" baseProfile="full" xmlns="http://www.w3.org/2000/svg" xmlns:xlink="http://www.w3.org/1999/xlink" xmlns:ev="http://www.w3.org/2001/xml-events"   height="47px"   width="70px" ><path fill="rgb( 237, 85, 101 )" d="M6.36400000000003,0 C6.36400000000003,0 63.636,0 63.636,0 C67.1510000000001,0 70,2.86900000000003 70,6.40899999999999 C70,6.40899999999999 70,40.591 70,40.591 C70,44.131 67.1510000000001,47 63.636,47 C63.636,47 6.36400000000003,47 6.36400000000003,47 C2.84899999999993,47 0,44.131 0,40.591 C0,40.591 0,6.40899999999999 0,6.40899999999999 C0,2.86900000000003 2.84899999999993,0 6.36400000000003,0 Z "/><path fill="rgb( 255, 255, 255 )" d="M0,10 C0,10 70,10 70,10 C70,10 70,38 70,38 C70,38 0,38 0,38 C0,38 0,10 0,10 Z "/><path fill="rgb( 71, 88, 169 )" d="M0,14 C0,14 70,14 70,14 C70,14 70,34 70,34 C70,34 0,34 0,34 C0,34 0,14 0,14 Z "/></svg>