<?xml version="1.0" encoding="utf-8"?><!DOCTYPE svg PUBLIC "-//W3C//DTD SVG 1.1//EN" "http://www.w3.org/Graphics/SVG/1.1/DTD/svg11.dtd"><svg version="1.1" baseProfile="full" xmlns="http://www.w3.org/2000/svg" xmlns:xlink="http://www.w3.org/1999/xlink" xmlns:ev="http://www.w3.org/2001/xml-events"   height="47px"   width="70px" ><path fill="rgb( 237, 85, 101 )" d="M6.36400000000003,0 C6.36400000000003,0 63.636,0 63.636,0 C67.1510000000001,0 70,2.86900000000003 70,6.40899999999999 C70,6.40899999999999 70,40.591 70,40.591 C70,44.131 67.1510000000001,47 63.636,47 C63.636,47 6.36400000000003,47 6.36400000000003,47 C2.84899999999993,47 0,44.131 0,40.591 C0,40.591 0,6.40899999999999 0,6.40899999999999 C0,2.86900000000003 2.84899999999993,0 6.36400000000003,0 Z "/><path fill="rgb( 255, 255, 255 )" d="M49.413,22.597 C49.413,22.597 47.364,24.273 47.364,24.273 C46.8299999999999,24.71 46.529,25.617 46.6949999999999,26.29 C46.6949999999999,26.29 47.2460000000001,28.52 47.2460000000001,28.52 C47.412,29.193 47.0809999999999,29.4299999999999 46.511,29.047 C46.511,29.047 44.443,27.6559999999999 44.443,27.6559999999999 C43.873,27.273 42.9369999999999,27.27 42.3630000000001,27.65 C42.3630000000001,27.65 40.183,29.0890000000001 40.183,29.0890000000001 C39.6089999999999,29.4690000000001 39.2919999999999,29.2329999999999 39.479,28.5650000000001 C39.479,28.5650000000001 40.1759999999999,26.077 40.1759999999999,26.077 C40.364,25.409 40.106,24.478 39.604,24.008 C39.604,24.008 37.838,22.355 37.838,22.355 C37.336,21.885 37.4849999999999,21.504 38.1700000000001,21.509 C38.1700000000001,21.509 40.7280000000001,21.527 40.7280000000001,21.527 C41.412,21.532 42.152,20.998 42.3710000000001,20.3390000000001 C42.3710000000001,20.3390000000001 43.2750000000001,17.627 43.2750000000001,17.627 C43.4939999999999,16.9690000000001 43.8440000000001,16.971 44.0519999999999,17.6319999999999 C44.0519999999999,17.6319999999999 44.913,20.369 44.913,20.369 C45.1199999999999,21.03 45.8499999999999,21.596 46.5340000000001,21.627 C46.5340000000001,21.627 49.1389999999999,21.746 49.1389999999999,21.746 C49.8230000000001,21.778 49.9459999999999,22.16 49.413,22.597 ZM41.643,13.6130000000001 C41.626,13.6079999999999 41.6089999999999,13.601 41.5940000000001,13.593 C41.5940000000001,13.593 41.5930000000001,13.5940000000001 41.5930000000001,13.5940000000001 C41.0509999999999,13.307 40.4780000000001,13.061 39.876,12.864 C34.1030000000001,10.976 27.8589999999999,14.188 25.933,20.035 C25.5619999999999,21.163 25.3789999999999,22.307 25.366,23.432 C25.328,24.556 25.4590000000001,25.704 25.779,26.841 C27.4369999999999,32.736 33.5309999999999,36.112 39.3869999999999,34.379 C39.998,34.199 40.5809999999999,33.968 41.135,33.6950000000001 C41.135,33.6950000000001 41.136,33.696 41.136,33.696 C41.152,33.689 41.1690000000001,33.682 41.1859999999999,33.677 C41.386,33.6180000000001 41.5930000000001,33.7329999999999 41.6489999999999,33.934 C41.6949999999999,34.097 41.627,34.2670000000001 41.4929999999999,34.356 C40.098,35.503 38.462,36.394 36.6310000000001,36.936 C29.279,39.112 21.627,34.872 19.5450000000001,27.47 C19.1579999999999,26.095 18.991,24.708 19.021,23.347 C19.0530000000001,21.986 19.2829999999999,20.604 19.732,19.241 C22.1500000000001,11.899 29.989,7.86400000000003 37.239,10.235 C39.0440000000001,10.825 40.6379999999999,11.76 41.98,12.943 C42.1099999999999,13.0359999999999 42.171,13.207 42.117,13.369 C42.0519999999999,13.568 41.8389999999999,13.678 41.643,13.6130000000001 Z "/></svg>