<?xml version="1.0" encoding="utf-8"?>
<!-- Generator: Adobe Illustrator 15.1.0, SVG Export Plug-In . SVG Version: 6.00 Build 0)  -->
<!DOCTYPE svg PUBLIC "-//W3C//DTD SVG 1.1//EN" "http://www.w3.org/Graphics/SVG/1.1/DTD/svg11.dtd">
<svg version="1.1" id="Layer_1" xmlns:ev="http://www.w3.org/2001/xml-events"
	 xmlns="http://www.w3.org/2000/svg" xmlns:xlink="http://www.w3.org/1999/xlink" x="0px" y="0px" width="70px" height="47px"
	 viewBox="0 0 70 47" enable-background="new 0 0 70 47" xml:space="preserve">
<g>
	<defs>
		<path id="SVGID_1_" d="M6.364,0h57.273C67.15,0,70,2.869,70,6.409v34.182C70,44.131,67.15,47,63.637,47H6.364
			C2.849,47,0,44.131,0,40.591V6.409C0,2.869,2.849,0,6.364,0z"/>
	</defs>
	<clipPath id="SVGID_2_">
		<use xlink:href="#SVGID_1_"  overflow="visible"/>
	</clipPath>
	<path clip-path="url(#SVGID_2_)" fill="#57A863" d="M6.364,0h57.273C67.15,0,70,2.869,70,6.409v34.182
		C70,44.131,67.15,47,63.637,47H6.364C2.849,47,0,44.131,0,40.591V6.409C0,2.869,2.849,0,6.364,0z"/>
	<path clip-path="url(#SVGID_2_)" fill="#F5F7FA" d="M54.938,30.211c-0.817,1.48-1.941,2.827-3.367,3.943
		c-5.729,4.482-14.086,3.568-18.665-2.039c-0.85-1.041-1.509-2.172-1.984-3.35c-0.473-1.179-0.778-2.445-0.882-3.774
		c-0.558-7.158,4.918-13.407,12.229-13.954c1.82-0.136,3.58,0.098,5.209,0.635c0.149,0.033,0.267,0.159,0.278,0.317
		c0.015,0.194-0.133,0.363-0.331,0.378c-0.017,0.001-0.035,0.001-0.051,0l-0.001,0.001c-0.587-0.053-1.187-0.061-1.793-0.015
		c-5.823,0.435-10.185,5.412-9.74,11.112c0.085,1.1,0.345,2.146,0.747,3.115c0.381,0.979,0.92,1.916,1.623,2.777
		c3.645,4.466,10.303,5.193,14.864,1.623c0.476-0.373,0.909-0.778,1.3-1.209h0.002c0.012-0.012,0.023-0.023,0.037-0.035
		c0.154-0.12,0.382-0.096,0.506,0.057C55.021,29.917,55.023,30.087,54.938,30.211z M52.587,22.501
		c-0.497,0.422-0.753,1.275-0.569,1.894l0.609,2.051c0.184,0.619-0.125,0.85-0.686,0.514l-2.037-1.223
		c-0.562-0.336-1.461-0.309-2,0.062l-2.043,1.408c-0.537,0.371-0.85,0.162-0.694-0.464l0.58-2.331
		c0.155-0.627-0.125-1.482-0.625-1.902l-1.756-1.476c-0.5-0.419-0.37-0.778,0.288-0.796l2.459-0.067
		c0.658-0.018,1.349-0.538,1.535-1.156l0.771-2.547c0.187-0.618,0.522-0.628,0.746-0.022l0.926,2.512
		c0.224,0.607,0.945,1.108,1.604,1.115l2.507,0.024c0.659,0.007,0.791,0.358,0.294,0.78L52.587,22.501z"/>
	<path clip-path="url(#SVGID_2_)" fill="#F5F7FA" d="M0,0h18v47H0V0z"/>
</g>
</svg>
