<?xml version="1.0" encoding="utf-8"?>
<!-- Generator: Adobe Illustrator 15.1.0, SVG Export Plug-In . SVG Version: 6.00 Build 0)  -->
<!DOCTYPE svg PUBLIC "-//W3C//DTD SVG 1.1//EN" "http://www.w3.org/Graphics/SVG/1.1/DTD/svg11.dtd">
<svg version="1.1" id="Layer_1" xmlns:ev="http://www.w3.org/2001/xml-events"
	 xmlns="http://www.w3.org/2000/svg" xmlns:xlink="http://www.w3.org/1999/xlink" x="0px" y="0px" width="71px" height="48px"
	 viewBox="0 0 71 48" enable-background="new 0 0 71 48" xml:space="preserve">
<g>
	<g>
		<defs>
			<path id="SVGID_1_" d="M6.436,0h57.921c3.555,0,6.437,2.93,6.437,6.545v34.909c0,3.616-2.882,6.546-6.437,6.546H6.436
				C2.881,48,0,45.07,0,41.454V6.545C0,2.93,2.881,0,6.436,0z"/>
		</defs>
		<clipPath id="SVGID_2_">
			<use xlink:href="#SVGID_1_"  overflow="visible"/>
		</clipPath>
		<path clip-path="url(#SVGID_2_)" fill="#ED5565" d="M6.436,0h57.921c3.555,0,6.437,2.93,6.437,6.545v34.909
			c0,3.616-2.882,6.546-6.437,6.546H6.436C2.881,48,0,45.07,0,41.454V6.545C0,2.93,2.881,0,6.436,0z"/>
	</g>
	<g>
		<defs>
			<path id="SVGID_3_" d="M6.436,0h57.921c3.555,0,6.437,2.93,6.437,6.545v34.909c0,3.616-2.882,6.546-6.437,6.546H6.436
				C2.881,48,0,45.07,0,41.454V6.545C0,2.93,2.881,0,6.436,0z"/>
		</defs>
		<clipPath id="SVGID_4_">
			<use xlink:href="#SVGID_3_"  overflow="visible"/>
		</clipPath>
		<path clip-path="url(#SVGID_4_)" fill="#3BAFDA" d="M0,0h71.807v16.341H0V0z"/>
	</g>
	<g>
		<defs>
			<path id="SVGID_5_" d="M6.436,0h57.921c3.555,0,6.437,2.93,6.437,6.545v34.909c0,3.616-2.882,6.546-6.437,6.546H6.436
				C2.881,48,0,45.07,0,41.454V6.545C0,2.93,2.881,0,6.436,0z"/>
		</defs>
		<clipPath id="SVGID_6_">
			<use xlink:href="#SVGID_5_"  overflow="visible"/>
		</clipPath>
		<path clip-path="url(#SVGID_6_)" fill="#F5F7FA" d="M0,18.383h71.807v12.255H0V18.383z"/>
	</g>
	<g>
		<defs>
			<path id="SVGID_7_" d="M6.436,0h57.921c3.555,0,6.437,2.93,6.437,6.545v34.909c0,3.616-2.882,6.546-6.437,6.546H6.436
				C2.881,48,0,45.07,0,41.454V6.545C0,2.93,2.881,0,6.436,0z"/>
		</defs>
		<clipPath id="SVGID_8_">
			<use xlink:href="#SVGID_7_"  overflow="visible"/>
		</clipPath>
		<path clip-path="url(#SVGID_8_)" fill="#52C162" d="M0,32.681h71.807v16.34H0V32.681z"/>
	</g>
	<g>
		<defs>
			<path id="SVGID_9_" d="M6.436,0h57.921c3.555,0,6.437,2.93,6.437,6.545v34.909c0,3.616-2.882,6.546-6.437,6.546H6.436
				C2.881,48,0,45.07,0,41.454V6.545C0,2.93,2.881,0,6.436,0z"/>
		</defs>
		<clipPath id="SVGID_10_">
			<use xlink:href="#SVGID_9_"  overflow="visible"/>
		</clipPath>
		<path clip-path="url(#SVGID_10_)" fill="#FFFFFF" d="M14.76,12.621c-0.008,0.002-0.015,0.005-0.022,0.008l0,0
			c-0.244,0.119-0.499,0.22-0.767,0.3c-2.564,0.76-5.232-0.721-5.959-3.307c-0.14-0.5-0.197-1.002-0.181-1.496
			C7.837,7.633,7.917,7.131,8.08,6.637c0.844-2.565,3.577-3.974,6.105-3.146c0.264,0.086,0.515,0.193,0.752,0.321V3.81
			c0.007,0.004,0.014,0.007,0.021,0.009c0.086,0.028,0.179-0.02,0.208-0.108c0.023-0.07-0.003-0.145-0.061-0.187
			c-0.588-0.519-1.286-0.929-2.077-1.188c-3.174-1.04-6.608,0.729-7.667,3.95c-0.194,0.6-0.296,1.205-0.308,1.802
			C5.04,8.688,5.112,9.294,5.281,9.898c0.912,3.247,4.263,5.108,7.483,4.153c0.802-0.239,1.518-0.629,2.129-1.132
			c0.059-0.041,0.089-0.114,0.069-0.186C14.938,12.645,14.847,12.596,14.76,12.621z"/>
	</g>
	<g>
		<defs>
			<path id="SVGID_11_" d="M6.436,0h57.921c3.555,0,6.437,2.93,6.437,6.545v34.909c0,3.616-2.882,6.546-6.437,6.546H6.436
				C2.881,48,0,45.07,0,41.454V6.545C0,2.93,2.881,0,6.436,0z"/>
		</defs>
		<clipPath id="SVGID_12_">
			<use xlink:href="#SVGID_11_"  overflow="visible"/>
		</clipPath>
		<path clip-path="url(#SVGID_12_)" fill="#FAFDFE" d="M18.204,12.255c0.558,0,1.011,0.458,1.011,1.021
			c0,0.564-0.453,1.021-1.011,1.021s-1.011-0.458-1.011-1.021C17.193,12.712,17.646,12.255,18.204,12.255z"/>
	</g>
	<g>
		<defs>
			<path id="SVGID_13_" d="M6.436,0h57.921c3.555,0,6.437,2.93,6.437,6.545v34.909c0,3.616-2.882,6.546-6.437,6.546H6.436
				C2.881,48,0,45.07,0,41.454V6.545C0,2.93,2.881,0,6.436,0z"/>
		</defs>
		<clipPath id="SVGID_14_">
			<use xlink:href="#SVGID_13_"  overflow="visible"/>
		</clipPath>
		<path clip-path="url(#SVGID_14_)" fill="#FAFDFE" d="M22.25,12.255c0.558,0,1.011,0.458,1.011,1.021
			c0,0.564-0.453,1.021-1.011,1.021s-1.011-0.458-1.011-1.021C21.239,12.712,21.691,12.255,22.25,12.255z"/>
	</g>
	<g>
		<defs>
			<path id="SVGID_15_" d="M6.436,0h57.921c3.555,0,6.437,2.93,6.437,6.545v34.909c0,3.616-2.882,6.546-6.437,6.546H6.436
				C2.881,48,0,45.07,0,41.454V6.545C0,2.93,2.881,0,6.436,0z"/>
		</defs>
		<clipPath id="SVGID_16_">
			<use xlink:href="#SVGID_15_"  overflow="visible"/>
		</clipPath>
		<path clip-path="url(#SVGID_16_)" fill="#FAFDFE" d="M22.25,8.17c0.558,0,1.011,0.458,1.011,1.021s-0.453,1.021-1.011,1.021
			s-1.011-0.457-1.011-1.021S21.691,8.17,22.25,8.17z"/>
	</g>
	<g>
		<defs>
			<path id="SVGID_17_" d="M6.436,0h57.921c3.555,0,6.437,2.93,6.437,6.545v34.909c0,3.616-2.882,6.546-6.437,6.546H6.436
				C2.881,48,0,45.07,0,41.454V6.545C0,2.93,2.881,0,6.436,0z"/>
		</defs>
		<clipPath id="SVGID_18_">
			<use xlink:href="#SVGID_17_"  overflow="visible"/>
		</clipPath>
		<path clip-path="url(#SVGID_18_)" fill="#FAFDFE" d="M26.295,4.084c0.558,0,1.011,0.458,1.011,1.021
			c0,0.563-0.453,1.021-1.011,1.021s-1.011-0.457-1.011-1.021C25.284,4.542,25.737,4.084,26.295,4.084z"/>
	</g>
	<g>
		<defs>
			<path id="SVGID_19_" d="M6.436,0h57.921c3.555,0,6.437,2.93,6.437,6.545v34.909c0,3.616-2.882,6.546-6.437,6.546H6.436
				C2.881,48,0,45.07,0,41.454V6.545C0,2.93,2.881,0,6.436,0z"/>
		</defs>
		<clipPath id="SVGID_20_">
			<use xlink:href="#SVGID_19_"  overflow="visible"/>
		</clipPath>
		<path clip-path="url(#SVGID_20_)" fill="#FAFDFE" d="M26.295,8.17c0.558,0,1.011,0.458,1.011,1.021s-0.453,1.021-1.011,1.021
			s-1.011-0.457-1.011-1.021S25.737,8.17,26.295,8.17z"/>
	</g>
	<g>
		<defs>
			<path id="SVGID_21_" d="M6.436,0h57.921c3.555,0,6.437,2.93,6.437,6.545v34.909c0,3.616-2.882,6.546-6.437,6.546H6.436
				C2.881,48,0,45.07,0,41.454V6.545C0,2.93,2.881,0,6.436,0z"/>
		</defs>
		<clipPath id="SVGID_22_">
			<use xlink:href="#SVGID_21_"  overflow="visible"/>
		</clipPath>
		<path clip-path="url(#SVGID_22_)" fill="#FAFDFE" d="M26.295,12.255c0.558,0,1.011,0.458,1.011,1.021
			c0,0.564-0.453,1.021-1.011,1.021s-1.011-0.458-1.011-1.021C25.284,12.712,25.737,12.255,26.295,12.255z"/>
	</g>
	<g>
		<defs>
			<path id="SVGID_23_" d="M6.436,0h57.921c3.555,0,6.437,2.93,6.437,6.545v34.909c0,3.616-2.882,6.546-6.437,6.546H6.436
				C2.881,48,0,45.07,0,41.454V6.545C0,2.93,2.881,0,6.436,0z"/>
		</defs>
		<clipPath id="SVGID_24_">
			<use xlink:href="#SVGID_23_"  overflow="visible"/>
		</clipPath>
		<path clip-path="url(#SVGID_24_)" fill="#FAFDFE" d="M30.34,4.084c0.558,0,1.011,0.458,1.011,1.021
			c0,0.563-0.453,1.021-1.011,1.021c-0.558,0-1.011-0.457-1.011-1.021C29.329,4.542,29.782,4.084,30.34,4.084z"/>
	</g>
	<g>
		<defs>
			<path id="SVGID_25_" d="M6.436,0h57.921c3.555,0,6.437,2.93,6.437,6.545v34.909c0,3.616-2.882,6.546-6.437,6.546H6.436
				C2.881,48,0,45.07,0,41.454V6.545C0,2.93,2.881,0,6.436,0z"/>
		</defs>
		<clipPath id="SVGID_26_">
			<use xlink:href="#SVGID_25_"  overflow="visible"/>
		</clipPath>
		<path clip-path="url(#SVGID_26_)" fill="#FAFDFE" d="M30.34,8.17c0.558,0,1.011,0.458,1.011,1.021s-0.453,1.021-1.011,1.021
			c-0.558,0-1.011-0.457-1.011-1.021S29.782,8.17,30.34,8.17z"/>
	</g>
	<g>
		<defs>
			<path id="SVGID_27_" d="M6.436,0h57.921c3.555,0,6.437,2.93,6.437,6.545v34.909c0,3.616-2.882,6.546-6.437,6.546H6.436
				C2.881,48,0,45.07,0,41.454V6.545C0,2.93,2.881,0,6.436,0z"/>
		</defs>
		<clipPath id="SVGID_28_">
			<use xlink:href="#SVGID_27_"  overflow="visible"/>
		</clipPath>
		<path clip-path="url(#SVGID_28_)" fill="#FAFDFE" d="M30.34,12.255c0.558,0,1.011,0.458,1.011,1.021
			c0,0.564-0.453,1.021-1.011,1.021c-0.558,0-1.011-0.458-1.011-1.021C29.329,12.712,29.782,12.255,30.34,12.255z"/>
	</g>
	<g>
		<defs>
			<path id="SVGID_29_" d="M6.436,0h57.921c3.555,0,6.437,2.93,6.437,6.545v34.909c0,3.616-2.882,6.546-6.437,6.546H6.436
				C2.881,48,0,45.07,0,41.454V6.545C0,2.93,2.881,0,6.436,0z"/>
		</defs>
		<clipPath id="SVGID_30_">
			<use xlink:href="#SVGID_29_"  overflow="visible"/>
		</clipPath>
		<path clip-path="url(#SVGID_30_)" fill="#FAFDFE" d="M34.386,4.084c0.558,0,1.011,0.458,1.011,1.021
			c0,0.563-0.453,1.021-1.011,1.021c-0.558,0-1.011-0.457-1.011-1.021C33.375,4.542,33.828,4.084,34.386,4.084z"/>
	</g>
	<g>
		<defs>
			<path id="SVGID_31_" d="M6.436,0h57.921c3.555,0,6.437,2.93,6.437,6.545v34.909c0,3.616-2.882,6.546-6.437,6.546H6.436
				C2.881,48,0,45.07,0,41.454V6.545C0,2.93,2.881,0,6.436,0z"/>
		</defs>
		<clipPath id="SVGID_32_">
			<use xlink:href="#SVGID_31_"  overflow="visible"/>
		</clipPath>
		<path clip-path="url(#SVGID_32_)" fill="#FAFDFE" d="M34.386,8.17c0.558,0,1.011,0.458,1.011,1.021s-0.453,1.021-1.011,1.021
			c-0.558,0-1.011-0.457-1.011-1.021S33.828,8.17,34.386,8.17z"/>
	</g>
	<g>
		<defs>
			<path id="SVGID_33_" d="M6.436,0h57.921c3.555,0,6.437,2.93,6.437,6.545v34.909c0,3.616-2.882,6.546-6.437,6.546H6.436
				C2.881,48,0,45.07,0,41.454V6.545C0,2.93,2.881,0,6.436,0z"/>
		</defs>
		<clipPath id="SVGID_34_">
			<use xlink:href="#SVGID_33_"  overflow="visible"/>
		</clipPath>
		<path clip-path="url(#SVGID_34_)" fill="#FAFDFE" d="M34.386,12.255c0.558,0,1.011,0.458,1.011,1.021
			c0,0.564-0.453,1.021-1.011,1.021c-0.558,0-1.011-0.458-1.011-1.021C33.375,12.712,33.828,12.255,34.386,12.255z"/>
	</g>
</g>
</svg>
