<?xml version="1.0" encoding="utf-8"?>
<!-- Generator: Adobe Illustrator 15.0.0, SVG Export Plug-In . SVG Version: 6.00 Build 0)  -->
<!DOCTYPE svg PUBLIC "-//W3C//DTD SVG 1.1//EN" "http://www.w3.org/Graphics/SVG/1.1/DTD/svg11.dtd">
<svg version="1.1" id="Layer_1" xmlns:ev="http://www.w3.org/2001/xml-events"
	 xmlns="http://www.w3.org/2000/svg" xmlns:xlink="http://www.w3.org/1999/xlink" x="0px" y="0px" width="70px" height="47px"
	 viewBox="0 0 70 47" enable-background="new 0 0 70 47" xml:space="preserve">
<g>
	<g>
		<g>
			<g>
				<defs>
					<path id="SVGID_1_" d="M6.364,0.003h57.273C67.15,0.003,70,2.872,70,6.412v34.182c0,3.54-2.85,6.409-6.363,6.409H6.364
						C2.849,47.003,0,44.134,0,40.594V6.412C0,2.872,2.849,0.003,6.364,0.003z"/>
				</defs>
				<clipPath id="SVGID_2_">
					<use xlink:href="#SVGID_1_"  overflow="visible"/>
				</clipPath>
				<path clip-path="url(#SVGID_2_)" fill="#F5F7FA" d="M6.364,0.003h57.273C67.15,0.003,70,2.872,70,6.412v34.182
					c0,3.54-2.85,6.409-6.363,6.409H6.364C2.849,47.003,0,44.134,0,40.594V6.412C0,2.872,2.849,0.003,6.364,0.003z"/>
			</g>
		</g>
	</g>
	<g>
		<g>
			<g>
				<defs>
					<path id="SVGID_3_" d="M6.364,0.003h57.273C67.15,0.003,70,2.872,70,6.412v34.182c0,3.54-2.85,6.409-6.363,6.409H6.364
						C2.849,47.003,0,44.134,0,40.594V6.412C0,2.872,2.849,0.003,6.364,0.003z"/>
				</defs>
				<clipPath id="SVGID_4_">
					<use xlink:href="#SVGID_3_"  overflow="visible"/>
				</clipPath>
				<path clip-path="url(#SVGID_4_)" fill="#119553" d="M0,24.003h70v23H0V24.003z"/>
			</g>
		</g>
	</g>
</g>
<path fill="#BE313E" d="M22.084,40.25l-2.917-1.444h-4.75l-2.166,1.944l-0.256-1.944l2.422-2.306h4.084l1.25-2.333l1.083-3.345
	h-3.875h-1.875l-4.583-5.572l-0.417-1.416l-3.667,1.833v-0.75l3.167-2.658l-0.306-2.91l-2.444-3.265h0.75l3.833,3.667l0.584,3.195
	l1.75,2.555l3.25,0.25l1.083-2.911l0.167-3.672l2.583-3.083v-4.25l0.917-3L18.667,9.75l-2.583,1.75L14.25,9.25l3.584-2.274
	l5.333-2.393l4.417-1.167v4.417l-1,3.75l0.167,4.917l0.833,4l4.083-0.167l1.084-0.5l0.833-6.167l2.917-3.333l4.166-2.917
	l5.917-2.583l-0.833,3.833l4.166,0.25l5.75-4.083l-4.333,7.833l-1.75,2.833l-2.5,2.917l-1,2.833l3.667,0.333h3.333l3.417-0.25
	l-0.75-0.583l-1.084-0.417L53.001,18c0,0-2.001-2.913,1.416-3.04s3.417-0.127,3.417-0.127l1.812-0.207l1.021-0.709l0.897-3.993
	l0.02-0.423l-0.25,5.46l-2.333,0.623l-4.5,0.75l1.527,2.22l3.306,1.78l-0.333,2.921l-4.417,2.995l0.167,2.167l1.5,2.405l-0.25,2.428
	l-0.084,4.334l2.917,2.5c0,0-5.738-0.077-5.404-0.244s-6.179,0.744-6.179,0.744l0.083-1.778l2.583-0.722l2.834,0.083l0.333-1.667
	l0.167-2.75l-1.25-2.416l-2.584-1.667l-5.583,0.417l-1.75-0.25l1.333,1.75l0.25,1.666l-3.666,2.584l-1,2.972l-6.417,0.361
	l-0.583-2.5l5.666-0.417l0.417-2.916l-3.167-3.084l-6.416-0.083l-4.584,0.655L21.334,36.5l1.667,2.75"/>
</svg>
