<?xml version="1.0" encoding="utf-8"?>
<!-- Generator: Adobe Illustrator 15.1.0, SVG Export Plug-In . SVG Version: 6.00 Build 0)  -->
<!DOCTYPE svg PUBLIC "-//W3C//DTD SVG 1.1//EN" "http://www.w3.org/Graphics/SVG/1.1/DTD/svg11.dtd">
<svg version="1.1" id="Layer_1" xmlns:ev="http://www.w3.org/2001/xml-events"
	 xmlns="http://www.w3.org/2000/svg" xmlns:xlink="http://www.w3.org/1999/xlink" x="0px" y="0px" width="83px" height="56.363px"
	 viewBox="0 0 83 56.363" enable-background="new 0 0 83 56.363" xml:space="preserve">
<g>
	<g>
		<defs>
			<path id="SVGID_1_" d="M7.546,0h67.908C79.621,0,83,3.441,83,7.686v40.99c0,4.246-3.379,7.688-7.546,7.688H7.546
				C3.378,56.363,0,52.922,0,48.676V7.685C-0.001,3.44,3.377,0,7.546,0z"/>
		</defs>
		<clipPath id="SVGID_2_">
			<use xlink:href="#SVGID_1_"  overflow="visible"/>
		</clipPath>
		<path clip-path="url(#SVGID_2_)" fill="#4758A9" d="M7.546,0h67.908C79.621,0,83,3.441,83,7.686v40.99
			c0,4.246-3.379,7.688-7.546,7.688H7.546C3.378,56.363,0,52.922,0,48.676V7.685C-0.001,3.44,3.377,0,7.546,0z"/>
	</g>
	<g>
		<defs>
			<path id="SVGID_3_" d="M7.546,0h67.908C79.621,0,83,3.441,83,7.686v40.99c0,4.246-3.379,7.688-7.546,7.688H7.546
				C3.378,56.363,0,52.922,0,48.676V7.685C-0.001,3.44,3.377,0,7.546,0z"/>
		</defs>
		<clipPath id="SVGID_4_">
			<use xlink:href="#SVGID_3_"  overflow="visible"/>
		</clipPath>
		<path clip-path="url(#SVGID_4_)" fill="#ED5565" d="M-0.001,0h83v23.983h-83V0z"/>
	</g>
	<g>
		<defs>
			<path id="SVGID_5_" d="M7.546,0h67.908C79.621,0,83,3.441,83,7.686v40.99c0,4.246-3.379,7.688-7.546,7.688H7.546
				C3.378,56.363,0,52.922,0,48.676V7.685C-0.001,3.44,3.377,0,7.546,0z"/>
		</defs>
		<clipPath id="SVGID_6_">
			<use xlink:href="#SVGID_5_"  overflow="visible"/>
		</clipPath>
		<path clip-path="url(#SVGID_6_)" fill="#FFFFFF" d="M-7.133,28.18l0.273-37.791L59.639,28.18L-6.859,65.972L-7.133,28.18z"/>
	</g>
	<g>
		<defs>
			<path id="SVGID_7_" d="M7.546,0h67.908C79.621,0,83,3.441,83,7.686v40.99c0,4.246-3.379,7.688-7.546,7.688H7.546
				C3.378,56.363,0,52.922,0,48.676V7.685C-0.001,3.44,3.377,0,7.546,0z"/>
		</defs>
		<clipPath id="SVGID_8_">
			<use xlink:href="#SVGID_7_"  overflow="visible"/>
		</clipPath>
		<path clip-path="url(#SVGID_8_)" fill="#FFFFFF" d="M33.208,19.205h56.907v17.949H33.208V19.205z"/>
	</g>
	<g>
		<defs>
			<path id="SVGID_9_" d="M7.546,0h67.908C79.621,0,83,3.441,83,7.686v40.99c0,4.246-3.379,7.688-7.546,7.688H7.546
				C3.378,56.363,0,52.922,0,48.676V7.685C-0.001,3.44,3.377,0,7.546,0z"/>
		</defs>
		<clipPath id="SVGID_10_">
			<use xlink:href="#SVGID_9_"  overflow="visible"/>
		</clipPath>
		<path clip-path="url(#SVGID_10_)" fill="#57A863" d="M-4.759,28.18l0.236-32.993L53.373,28.18L-4.522,61.176L-4.759,28.18z"/>
	</g>
	<g>
		<defs>
			<path id="SVGID_11_" d="M7.546,0h67.908C79.621,0,83,3.441,83,7.686v40.99c0,4.246-3.379,7.688-7.546,7.688H7.546
				C3.378,56.363,0,52.922,0,48.676V7.685C-0.001,3.44,3.377,0,7.546,0z"/>
		</defs>
		<clipPath id="SVGID_12_">
			<use xlink:href="#SVGID_11_"  overflow="visible"/>
		</clipPath>
		<path clip-path="url(#SVGID_12_)" fill="#57A863" d="M33.2,21.585h49.799v13.19H33.2V21.585z"/>
	</g>
	<g>
		<defs>
			<path id="SVGID_13_" d="M7.546,0h67.908C79.621,0,83,3.441,83,7.686v40.99c0,4.246-3.379,7.688-7.546,7.688H7.546
				C3.378,56.363,0,52.922,0,48.676V7.685C-0.001,3.44,3.377,0,7.546,0z"/>
		</defs>
		<clipPath id="SVGID_14_">
			<use xlink:href="#SVGID_13_"  overflow="visible"/>
		</clipPath>
		<path clip-path="url(#SVGID_14_)" fill="#FFCE54" d="M-0.01,29.38L0.131,9.583L34.396,29.38L0.131,49.177L-0.01,29.38z"/>
	</g>
	<g>
		<defs>
			<path id="SVGID_15_" d="M7.546,0h67.908C79.621,0,83,3.441,83,7.686v40.99c0,4.246-3.379,7.688-7.546,7.688H7.546
				C3.378,56.363,0,52.922,0,48.676V7.685C-0.001,3.44,3.377,0,7.546,0z"/>
		</defs>
		<clipPath id="SVGID_16_">
			<use xlink:href="#SVGID_15_"  overflow="visible"/>
		</clipPath>
		<path clip-path="url(#SVGID_16_)" fill="#434A54" d="M-0.007,29.38l0.116-16.197L28.465,29.38L0.108,45.576L-0.007,29.38z"/>
	</g>
</g>
</svg>
